{"glyphs":{"0":{"ha":742,"x_min":60,"x_max":682,"o":"m 371 -12 l 371 -12 q 230 20 289 -12 q 133 112 171 52 q 78 256 96 172 q 60 442 60 340 l 60 442 q 78 629 60 545 q 133 774 96 713 q 230 867 171 834 q 371 899 289 899 l 371 899 q 511 867 452 899 q 608 774 570 834 q 664 630 646 713 q 682 443 682 546 l 682 443 q 664 256 682 340 q 608 112 646 172 q 511 20 570 52 q 371 -12 452 -12 z m 371 115 l 371 115 q 448 142 418 115 q 495 216 479 170 q 519 320 512 262 q 526 443 526 379 l 526 443 q 519 566 526 507 q 495 671 512 625 q 448 744 479 718 q 371 771 418 771 l 371 771 q 293 744 323 771 q 246 671 263 718 q 222 566 229 625 q 215 443 215 507 l 215 443 q 222 320 215 379 q 246 216 229 262 q 293 142 263 170 q 371 115 323 115 z "},"1":{"ha":742,"x_min":117,"x_max":507,"o":"m 507 0 l 353 0 l 353 711 q 301 663 334 686 q 222 622 268 640 q 117 595 176 604 l 117 595 l 117 732 q 224 768 176 744 q 309 824 272 793 q 369 889 345 856 l 369 889 l 507 889 l 507 0 z "},"2":{"ha":742,"x_min":56,"x_max":684,"o":"m 684 0 l 56 0 l 56 107 l 376 398 q 476 515 444 461 q 509 629 509 570 l 509 629 q 477 729 509 690 q 374 769 446 769 l 374 769 q 255 723 291 769 q 220 606 220 677 l 220 606 l 77 606 q 111 762 77 696 q 211 863 144 827 q 374 899 277 899 l 374 899 q 527 867 463 899 q 625 777 591 835 q 659 637 659 718 l 659 637 q 633 511 659 567 q 563 406 607 455 q 463 309 518 357 l 463 309 l 259 126 l 684 126 l 684 0 z "},"3":{"ha":742,"x_min":56,"x_max":686,"o":"m 376 -12 l 376 -12 q 142 60 227 -12 q 56 272 56 132 l 56 272 l 199 272 q 245 154 199 197 q 375 111 292 111 l 375 111 q 493 147 452 111 q 535 261 535 183 l 535 261 q 486 370 535 336 q 357 405 437 405 l 357 405 l 303 405 l 303 524 l 361 524 q 474 561 433 524 q 515 659 515 597 l 515 659 q 477 747 515 718 q 374 776 439 776 l 374 776 q 262 738 302 776 q 222 637 222 700 l 222 637 l 80 637 q 118 781 80 722 q 222 869 156 839 q 373 899 288 899 l 373 899 q 516 874 451 899 q 620 798 581 849 q 659 669 659 747 l 659 669 q 616 539 659 588 q 503 469 574 490 l 503 469 q 634 400 582 454 q 686 252 686 347 l 686 252 q 647 108 686 167 q 539 19 609 49 q 376 -12 470 -12 z "},"4":{"ha":742,"x_min":31,"x_max":709,"o":"m 589 0 l 443 0 l 443 171 l 31 171 l 31 298 l 442 890 l 589 890 l 589 295 l 709 295 l 709 171 l 589 171 l 589 0 z m 446 699 l 169 295 l 446 295 l 446 699 z "},"5":{"ha":742,"x_min":55,"x_max":687,"o":"m 373 -12 l 373 -12 q 212 18 283 -12 q 97 107 140 48 q 55 252 55 165 l 55 252 l 203 252 q 251 148 203 186 q 373 110 298 110 l 373 110 q 492 155 448 110 q 536 293 536 200 l 536 293 q 491 423 536 382 q 372 464 446 464 l 372 464 q 280 447 315 464 q 221 403 244 431 l 221 403 l 89 403 l 127 887 l 622 887 l 622 760 l 246 760 l 227 519 q 292 564 250 545 q 398 583 334 583 l 398 583 q 542 552 476 583 q 647 458 607 522 q 687 293 687 395 l 687 293 q 646 124 687 193 q 534 22 605 56 q 373 -12 463 -12 z "},"6":{"ha":742,"x_min":56,"x_max":692,"o":"m 391 -12 l 391 -12 q 218 33 294 -12 q 99 178 142 79 q 56 437 56 277 l 56 437 q 98 698 56 596 q 217 849 141 800 q 391 899 292 899 l 391 899 q 582 839 507 899 q 675 663 656 779 l 675 663 l 532 663 q 484 748 519 720 q 391 776 448 776 l 391 776 q 254 694 303 776 q 205 437 205 612 l 205 437 l 205 397 q 232 228 205 291 q 301 137 258 165 q 391 110 343 110 l 391 110 q 504 158 467 110 q 541 279 541 207 l 541 279 q 505 393 541 352 q 403 434 469 434 l 403 434 q 261 395 322 434 q 169 302 201 357 l 169 302 l 157 410 q 225 484 186 450 q 314 536 264 517 q 428 556 364 556 l 428 556 q 563 525 503 556 q 657 433 623 494 q 692 283 692 372 l 692 283 q 657 130 692 196 q 555 25 622 63 q 391 -12 488 -12 z "},"7":{"ha":742,"x_min":60,"x_max":683,"o":"m 315 0 l 156 0 l 534 753 l 60 753 l 60 887 l 683 887 l 683 764 l 315 0 z "},"8":{"ha":742,"x_min":60,"x_max":682,"o":"m 372 -12 l 372 -12 q 255 3 311 -12 q 156 50 199 18 q 86 132 112 82 q 60 250 60 182 l 60 250 q 108 391 60 335 q 231 466 156 446 l 231 466 q 133 539 170 488 q 97 667 97 591 l 97 667 q 136 800 97 749 q 238 875 176 851 q 371 899 301 899 l 371 899 q 504 875 441 899 q 606 800 566 851 q 646 667 646 748 l 646 667 q 605 538 646 590 q 510 466 565 486 l 510 466 q 633 391 585 446 q 682 250 682 336 l 682 250 q 656 132 682 182 q 587 50 630 82 q 488 3 543 18 q 372 -12 432 -12 z m 371 108 l 371 108 q 451 124 414 108 q 510 174 488 140 q 532 260 532 208 l 532 260 q 510 342 532 309 q 451 392 488 375 q 372 407 415 408 l 372 407 q 294 392 331 408 q 234 342 257 376 q 210 260 210 309 l 210 260 q 258 146 210 184 q 371 108 306 108 z m 372 524 l 372 524 q 438 537 408 522 q 488 583 469 553 q 507 656 507 613 l 507 656 q 467 753 507 723 q 372 783 427 783 l 372 783 q 306 770 336 783 q 255 729 275 757 q 236 656 236 701 l 236 656 q 255 583 236 613 q 305 538 274 553 q 372 524 336 522 z "},"9":{"ha":742,"x_min":54,"x_max":690,"o":"m 345 -12 l 345 -12 q 202 16 264 -12 q 104 97 141 44 q 56 222 66 150 l 56 222 l 201 222 q 247 140 211 171 q 345 110 283 110 l 345 110 q 488 186 436 110 q 541 430 541 262 l 541 430 l 541 488 q 516 658 541 595 q 451 749 491 722 q 363 777 410 777 l 363 777 q 244 728 283 777 q 205 607 205 680 l 205 607 q 242 493 205 535 q 345 452 279 452 l 345 452 q 444 470 402 452 q 517 517 485 488 q 576 580 549 546 l 576 580 l 583 475 q 522 408 557 441 q 438 353 486 374 q 324 331 389 331 l 324 331 q 185 363 246 331 q 89 456 124 395 q 54 605 54 517 l 54 605 q 91 757 54 690 q 196 861 127 823 q 362 899 265 899 l 362 899 q 530 854 455 899 q 647 710 604 808 q 690 450 690 611 l 690 450 q 647 187 690 290 q 525 36 603 85 q 345 -12 448 -12 z "},"\r":{"ha":0,"x_min":null,"x_max":null,"o":""}," ":{"ha":282,"x_min":null,"x_max":null,"o":""},"!":{"ha":407,"x_min":103,"x_max":304,"o":"m 244 295 l 163 295 q 139 469 151 369 q 128 674 128 568 l 128 674 l 128 913 l 280 913 l 280 674 q 269 469 280 568 q 244 295 258 370 l 244 295 z m 205 -8 l 205 -8 q 132 20 160 -8 q 103 90 103 49 l 103 90 q 132 160 103 133 q 205 187 160 187 l 205 187 q 276 160 248 187 q 304 90 304 133 l 304 90 q 276 20 304 49 q 205 -8 248 -8 z "},"\"":{"ha":549,"x_min":87,"x_max":462,"o":"m 440 578 l 350 578 q 334 703 340 643 q 328 835 328 762 l 328 835 l 328 913 l 462 913 l 462 835 q 456 703 462 762 q 440 578 450 645 l 440 578 z m 199 578 l 108 578 q 93 703 98 643 q 87 835 87 762 l 87 835 l 87 913 l 220 913 l 220 835 q 214 703 220 762 q 199 578 208 645 l 199 578 z "},"#":{"ha":746,"x_min":31,"x_max":714,"o":"m 231 0 l 127 0 l 165 264 l 31 264 l 31 359 l 178 359 l 201 530 l 68 530 l 68 624 l 215 624 l 252 887 l 355 887 l 319 624 l 481 624 l 517 887 l 621 887 l 585 624 l 714 624 l 714 530 l 572 530 l 548 359 l 677 359 l 677 264 l 535 264 l 498 0 l 395 0 l 431 264 l 269 264 l 231 0 z m 305 530 l 281 359 l 445 359 l 468 530 l 305 530 z "},"$":{"ha":742,"x_min":45,"x_max":693,"o":"m 374 -12 l 374 -12 q 208 16 283 -12 q 90 105 134 43 q 45 269 45 168 l 45 269 l 192 269 q 218 169 193 205 q 284 118 243 132 q 375 103 325 103 l 375 103 q 465 117 425 103 q 527 162 504 132 q 550 240 550 193 l 550 240 q 532 312 550 283 q 470 364 513 342 q 353 405 427 386 l 353 405 l 353 401 q 194 458 257 425 q 101 540 132 491 q 70 662 70 589 l 70 662 q 106 791 70 739 q 209 872 143 844 q 360 899 275 899 l 360 899 q 514 871 445 899 q 624 788 583 844 q 665 648 665 732 l 665 648 l 519 648 q 477 752 521 718 q 360 786 433 786 l 360 786 q 252 757 292 786 q 212 667 212 728 l 212 667 q 253 584 212 615 q 393 526 293 553 l 393 526 l 393 530 q 512 492 458 513 q 608 440 567 471 q 671 363 648 410 q 693 250 693 317 l 693 250 q 652 103 693 161 q 538 16 610 45 q 374 -12 466 -12 z m 408 -147 l 330 -147 l 330 1036 l 408 1036 l 408 -147 z "},"%":{"ha":1158,"x_min":60,"x_max":1098,"o":"m 363 0 l 254 0 l 793 887 l 903 887 l 363 0 z m 260 349 l 260 349 q 148 381 193 349 q 81 475 103 413 q 60 625 60 536 l 60 625 q 81 773 60 713 q 148 866 103 834 q 260 899 193 899 l 260 899 q 373 866 328 899 q 439 773 417 834 q 461 624 461 712 l 461 624 q 439 474 461 536 q 372 381 417 413 q 260 349 328 349 z m 260 438 l 260 438 q 318 464 297 438 q 347 531 338 489 q 356 624 356 573 l 356 624 q 347 717 356 675 q 318 784 338 759 q 260 810 297 810 l 260 810 q 202 784 223 810 q 173 717 182 759 q 165 624 165 675 l 165 624 q 173 531 165 573 q 202 464 182 489 q 260 438 223 438 z m 897 -10 l 897 -10 q 785 22 830 -10 q 719 115 741 54 q 697 264 697 176 l 697 264 q 719 414 697 353 q 785 507 741 475 q 897 538 830 538 l 897 538 q 1010 507 965 538 q 1076 414 1055 475 q 1098 264 1098 353 l 1098 264 q 1076 115 1098 176 q 1009 22 1054 54 q 897 -10 964 -10 z m 897 79 l 897 79 q 955 104 934 79 q 984 171 976 129 q 993 264 993 213 l 993 264 q 984 357 993 315 q 955 424 976 399 q 897 449 934 449 l 897 449 q 840 424 861 449 q 811 357 819 399 q 802 264 802 315 l 802 264 q 811 171 802 213 q 840 104 819 129 q 897 79 861 79 z "},"&":{"ha":917,"x_min":67,"x_max":905,"o":"m 387 -9 l 387 -9 q 224 22 296 -9 q 110 111 152 53 q 67 250 67 170 l 67 250 q 106 390 67 334 q 207 484 145 446 q 335 554 268 522 l 335 554 l 349 554 q 430 601 393 576 q 489 654 467 625 q 511 724 511 684 l 511 724 q 487 788 511 763 q 420 812 463 812 l 420 812 q 349 788 376 812 q 323 724 323 764 l 323 724 q 347 647 323 688 q 423 547 372 606 l 423 547 l 905 0 l 723 0 l 309 473 q 217 599 253 538 q 181 726 181 660 l 181 726 q 210 830 181 785 q 293 900 239 874 q 419 925 347 925 l 419 925 q 541 899 491 925 q 615 827 590 872 q 640 728 640 783 l 640 728 q 612 620 640 665 q 538 543 583 575 q 444 484 493 511 l 444 484 l 429 484 q 315 416 361 448 q 245 349 269 385 q 222 260 222 312 l 222 260 q 266 155 222 197 q 399 113 310 113 l 399 113 q 528 143 468 113 q 621 219 588 172 l 621 219 q 671 319 653 262 q 689 454 689 376 l 689 454 l 840 454 q 824 323 840 384 q 780 212 808 262 q 711 120 751 161 l 711 120 q 567 22 650 54 q 387 -9 485 -9 z "},"'":{"ha":307,"x_min":87,"x_max":220,"o":"m 199 578 l 108 578 q 93 702 98 642 q 87 835 87 762 l 87 835 l 87 913 l 220 913 l 220 835 q 214 703 220 761 q 199 578 208 644 l 199 578 z "},"(":{"ha":407,"x_min":74,"x_max":366,"o":"m 366 -239 l 243 -239 q 153 -55 191 -143 q 94 127 115 34 q 74 330 74 220 l 74 330 q 93 538 74 440 q 150 729 113 636 q 243 918 188 823 l 243 918 l 366 918 q 252 628 290 781 q 214 315 214 475 l 214 315 q 256 27 214 170 q 366 -239 298 -117 l 366 -239 z "},")":{"ha":407,"x_min":41,"x_max":333,"o":"m 162 -239 l 41 -239 q 155 52 117 -102 q 193 364 193 205 l 193 364 q 151 652 193 509 q 41 918 109 795 l 41 918 l 162 918 q 255 734 216 823 q 313 552 293 646 q 333 350 333 459 l 333 350 q 313 141 333 239 q 256 -51 294 43 q 162 -239 218 -144 l 162 -239 z "},"*":{"ha":635,"x_min":52,"x_max":583,"o":"m 315 587 l 195 421 l 119 477 l 242 639 l 52 690 l 83 781 l 269 723 l 269 913 l 365 913 l 365 723 l 551 781 l 583 690 l 391 639 l 515 477 l 438 421 l 315 587 z "},"+":{"ha":742,"x_min":64,"x_max":676,"o":"m 64 393 l 64 514 l 676 514 l 676 393 l 64 393 z m 431 148 l 310 148 l 310 760 l 431 760 l 431 148 z "},",":{"ha":407,"x_min":85,"x_max":304,"o":"m 112 -199 l 112 -199 l 85 -123 q 159 -76 130 -107 q 195 0 189 -45 l 195 0 l 204 -8 q 131 20 159 -8 q 102 90 102 49 l 102 90 q 131 161 102 134 q 204 188 159 188 l 204 188 q 277 157 249 188 q 304 63 304 125 l 304 63 q 277 -64 304 -12 q 207 -150 250 -117 q 112 -199 163 -182 z "},"-":{"ha":473,"x_min":58,"x_max":414,"o":"m 414 273 l 58 273 l 58 399 l 414 399 l 414 273 z "},".":{"ha":407,"x_min":102,"x_max":304,"o":"m 204 -8 l 204 -8 q 131 20 159 -8 q 102 90 102 49 l 102 90 q 131 161 102 134 q 204 188 159 188 l 204 188 q 277 161 249 188 q 304 90 304 134 l 304 90 q 277 20 304 49 q 204 -8 249 -8 z "},"/":{"ha":504,"x_min":19,"x_max":485,"o":"m 153 0 l 19 0 l 351 913 l 485 913 l 153 0 z "},":":{"ha":407,"x_min":102,"x_max":304,"o":"m 204 -8 l 204 -8 q 131 20 159 -8 q 102 90 102 49 l 102 90 q 131 161 102 134 q 204 188 159 188 l 204 188 q 277 161 249 188 q 304 90 304 134 l 304 90 q 277 20 304 49 q 204 -8 249 -8 z m 204 465 l 204 465 q 131 494 159 465 q 102 564 102 522 l 102 564 q 131 634 102 607 q 204 661 159 661 l 204 661 q 277 634 249 661 q 304 564 304 607 l 304 564 q 277 494 304 522 q 204 465 249 465 z "},";":{"ha":407,"x_min":85,"x_max":304,"o":"m 112 -199 l 112 -199 l 85 -123 q 159 -76 130 -107 q 195 0 189 -45 l 195 0 l 204 -8 q 131 20 159 -8 q 102 90 102 49 l 102 90 q 131 161 102 134 q 204 188 159 188 l 204 188 q 277 157 249 188 q 304 63 304 125 l 304 63 q 277 -64 304 -12 q 207 -150 250 -117 q 112 -199 163 -182 z m 204 465 l 204 465 q 131 494 159 465 q 102 564 102 522 l 102 564 q 131 634 102 607 q 204 661 159 661 l 204 661 q 277 634 249 661 q 304 564 304 607 l 304 564 q 277 494 304 522 q 204 465 249 465 z "},"<":{"ha":742,"x_min":66,"x_max":677,"o":"m 66 418 l 66 529 l 677 787 l 677 667 l 66 418 z m 677 114 l 66 378 l 66 490 l 677 235 l 677 114 z "},"=":{"ha":742,"x_min":64,"x_max":676,"o":"m 676 269 l 64 269 l 64 391 l 676 391 l 676 269 z m 676 518 l 64 518 l 64 639 l 676 639 l 676 518 z "},">":{"ha":742,"x_min":64,"x_max":676,"o":"m 64 787 l 676 529 l 676 418 l 64 667 l 64 787 z m 676 490 l 676 378 l 64 114 l 64 235 l 676 490 z "},"?":{"ha":707,"x_min":50,"x_max":657,"o":"m 414 296 l 279 296 q 279 309 279 302 q 279 323 279 316 l 279 323 q 307 440 279 394 q 391 528 334 486 l 391 528 q 474 603 447 570 q 501 684 501 636 l 501 684 q 466 770 501 736 q 358 803 431 803 l 358 803 q 241 765 283 803 q 199 656 200 726 l 199 656 l 50 656 q 89 801 50 741 q 197 891 127 860 q 358 922 266 922 l 358 922 q 515 894 448 922 q 620 813 583 866 q 657 684 657 760 l 657 684 q 639 588 657 629 q 588 516 621 548 q 509 452 555 484 l 509 452 q 453 402 473 425 q 425 354 433 380 q 414 296 417 329 l 414 296 z m 349 -8 l 349 -8 q 277 20 305 -8 q 249 90 249 49 l 249 90 q 277 160 249 133 q 349 187 305 187 l 349 187 q 422 160 393 187 q 450 90 450 133 l 450 90 q 422 20 450 49 q 349 -8 393 -8 z "},"@":{"ha":1246,"x_min":71,"x_max":1176,"o":"m 634 -146 l 634 -146 q 340 -82 467 -146 q 142 102 213 -18 q 71 390 71 222 l 71 390 q 111 611 71 512 q 227 780 152 709 q 402 887 301 850 q 625 925 504 925 l 625 925 q 859 885 757 925 q 1032 775 962 846 q 1139 613 1103 705 q 1176 414 1176 520 l 1176 414 q 1145 240 1176 307 q 1060 143 1114 174 q 942 112 1007 112 l 942 112 q 830 138 876 112 q 767 218 784 165 l 767 218 q 700 142 747 172 q 583 112 652 112 l 583 112 q 457 146 511 112 q 374 241 404 180 q 345 387 345 302 l 345 387 q 375 529 345 469 q 460 623 406 589 q 588 656 515 656 l 588 656 q 689 634 646 656 q 751 579 731 612 l 751 579 l 757 647 l 885 647 l 885 295 q 903 235 885 253 q 956 218 922 218 l 956 218 q 1017 242 994 218 q 1053 310 1041 266 q 1064 411 1064 354 l 1064 411 q 1010 628 1064 536 q 859 771 957 720 q 625 822 760 822 l 625 822 q 394 770 494 822 q 238 621 294 718 q 182 390 182 524 l 182 390 q 239 152 182 248 q 397 6 296 56 q 629 -43 498 -43 l 629 -43 q 765 -30 699 -43 q 886 5 832 -17 l 886 5 l 886 -104 q 767 -135 831 -125 q 634 -146 702 -146 z m 614 220 l 614 220 q 695 243 665 220 q 739 304 726 266 q 751 388 751 343 l 751 388 q 739 467 751 431 q 696 527 726 504 q 618 549 667 549 l 618 549 q 538 527 567 549 q 496 467 509 504 q 484 388 484 431 l 484 388 q 496 306 484 344 q 536 243 508 267 q 614 220 565 220 z "},"A":{"ha":840,"x_min":3,"x_max":836,"o":"m 165 0 l 3 0 l 339 913 l 503 913 l 836 0 l 674 0 l 598 228 l 244 228 l 165 0 z m 420 758 l 283 359 l 557 359 l 420 758 z "},"B":{"ha":849,"x_min":115,"x_max":789,"o":"m 449 0 l 115 0 l 115 913 l 417 913 q 644 857 559 913 q 728 686 728 802 l 728 686 q 689 561 728 614 q 588 488 651 507 l 588 488 q 736 411 683 471 q 789 265 789 352 l 789 265 q 750 119 789 178 q 635 30 711 60 q 449 0 559 0 l 449 0 z m 271 412 l 271 130 l 444 130 q 538 143 496 130 q 606 188 581 156 q 631 277 631 220 l 631 277 q 580 379 631 347 q 444 412 529 412 l 444 412 l 271 412 z m 271 785 l 271 534 l 415 534 q 529 568 487 534 q 570 665 570 603 l 570 665 q 551 734 570 707 q 497 773 532 760 q 415 785 463 785 l 415 785 l 271 785 z "},"C":{"ha":971,"x_min":71,"x_max":905,"o":"m 511 -12 l 511 -12 q 272 46 370 -12 q 122 210 174 105 q 71 456 71 315 l 71 456 q 122 702 71 596 q 272 866 174 807 q 511 925 370 925 l 511 925 q 697 890 610 925 q 840 786 784 856 q 903 612 895 717 l 903 612 l 744 612 q 703 715 736 675 q 620 775 670 755 q 511 795 570 795 l 511 795 q 349 749 411 795 q 260 626 288 703 q 232 456 232 549 l 232 456 q 260 287 232 363 q 349 163 288 210 q 511 117 411 117 l 511 117 q 675 169 613 117 q 746 320 737 221 l 746 320 l 905 320 q 844 137 896 211 q 707 25 793 62 q 511 -12 622 -12 z "},"D":{"ha":967,"x_min":115,"x_max":896,"o":"m 438 0 l 115 0 l 115 913 l 438 913 q 685 859 583 913 q 842 703 787 805 q 896 458 896 601 l 896 458 q 841 209 896 311 q 684 54 787 107 q 438 0 582 0 l 438 0 z m 271 782 l 271 131 l 414 131 q 594 166 523 131 q 700 275 665 202 q 735 458 735 347 l 735 458 q 699 639 735 567 q 590 746 662 711 q 414 782 519 782 l 414 782 l 271 782 z "},"E":{"ha":785,"x_min":115,"x_max":711,"o":"m 711 0 l 115 0 l 115 913 l 711 913 l 711 783 l 271 783 l 271 531 l 673 531 l 673 405 l 271 405 l 271 130 l 711 130 l 711 0 z "},"F":{"ha":736,"x_min":115,"x_max":697,"o":"m 271 0 l 115 0 l 115 913 l 697 913 l 697 783 l 271 783 l 271 530 l 654 530 l 654 405 l 271 405 l 271 0 z "},"G":{"ha":991,"x_min":71,"x_max":919,"o":"m 513 -12 l 513 -12 q 273 46 372 -12 q 122 210 174 105 q 71 456 71 315 l 71 456 q 122 702 71 597 q 273 866 174 808 q 513 925 372 925 l 513 925 q 649 907 583 925 q 770 852 715 889 q 860 757 825 814 q 902 623 895 700 l 902 623 l 743 623 q 708 710 737 671 q 630 772 680 749 q 511 795 580 795 l 511 795 q 349 749 411 795 q 258 626 287 703 q 230 456 230 549 l 230 456 q 258 286 230 363 q 349 163 287 209 q 513 118 412 118 l 513 118 q 649 146 595 118 q 732 227 704 175 q 764 345 761 278 l 764 345 l 522 345 l 522 471 l 919 471 l 919 390 q 873 180 919 271 q 736 39 827 90 q 513 -12 646 -12 z "},"H":{"ha":998,"x_min":115,"x_max":883,"o":"m 271 0 l 115 0 l 115 913 l 271 913 l 271 543 l 727 543 l 727 913 l 883 913 l 883 0 l 727 0 l 727 406 l 271 406 l 271 0 z "},"I":{"ha":385,"x_min":115,"x_max":271,"o":"m 271 0 l 115 0 l 115 913 l 271 913 l 271 0 z "},"J":{"ha":485,"x_min":25,"x_max":382,"o":"m 95 -7 l 25 -7 l 25 127 l 83 127 q 196 165 163 127 q 229 292 229 203 l 229 292 l 229 913 l 382 913 l 382 290 q 352 122 382 187 q 259 25 322 56 q 95 -7 195 -7 l 95 -7 z "},"K":{"ha":827,"x_min":115,"x_max":824,"o":"m 271 0 l 115 0 l 115 913 l 271 913 l 271 475 l 622 913 l 798 913 l 439 484 l 824 0 l 640 0 l 271 468 l 271 0 z "},"L":{"ha":702,"x_min":115,"x_max":676,"o":"m 676 0 l 115 0 l 115 913 l 271 913 l 271 136 l 676 136 l 676 0 z "},"M":{"ha":1118,"x_min":115,"x_max":1004,"o":"m 264 0 l 115 0 l 115 913 l 290 913 l 596 401 l 534 401 l 834 913 l 1004 913 l 1004 0 l 850 0 l 850 811 l 913 811 l 609 290 l 511 290 l 200 811 l 264 811 l 264 0 z "},"N":{"ha":992,"x_min":115,"x_max":878,"o":"m 261 0 l 115 0 l 115 913 l 270 913 l 730 242 l 730 913 l 878 913 l 878 0 l 722 0 l 261 673 l 261 0 z "},"O":{"ha":1021,"x_min":71,"x_max":949,"o":"m 511 -12 l 511 -12 q 269 46 367 -12 q 121 210 171 105 q 71 456 71 315 l 71 456 q 121 702 71 596 q 269 866 171 807 q 511 925 367 925 l 511 925 q 751 866 654 925 q 899 702 848 807 q 949 456 949 596 l 949 456 q 899 210 949 315 q 751 46 848 105 q 511 -12 654 -12 z m 511 117 l 511 117 q 671 163 610 117 q 760 286 732 209 q 789 456 789 363 l 789 456 q 760 627 789 550 q 671 750 732 704 q 511 795 610 795 l 511 795 q 349 750 411 795 q 260 627 288 704 q 232 456 232 550 l 232 456 q 260 286 232 363 q 349 163 288 209 q 511 117 411 117 z "},"P":{"ha":821,"x_min":115,"x_max":771,"o":"m 271 0 l 115 0 l 115 913 l 458 913 q 617 881 546 913 q 729 785 688 848 q 771 625 771 721 l 771 625 q 729 468 771 531 q 617 374 688 406 q 458 342 546 342 l 458 342 l 271 342 l 271 0 z m 271 785 l 271 469 l 445 469 q 565 508 519 469 q 612 625 612 547 l 612 625 q 565 746 612 707 q 445 785 518 785 l 445 785 l 271 785 z "},"Q":{"ha":1021,"x_min":71,"x_max":949,"o":"m 912 -212 l 866 -212 q 714 -195 775 -212 q 615 -146 654 -178 q 551 -73 576 -115 q 503 20 525 -31 l 503 20 l 607 71 q 648 4 629 32 q 694 -41 667 -24 q 764 -68 722 -59 q 876 -77 807 -77 l 876 -77 l 912 -77 l 912 -212 z m 511 -12 l 511 -12 q 269 46 367 -12 q 121 210 171 105 q 71 456 71 315 l 71 456 q 121 702 71 596 q 269 866 171 807 q 511 925 367 925 l 511 925 q 751 866 654 925 q 899 702 848 807 q 949 456 949 596 l 949 456 q 899 210 949 315 q 751 46 848 105 q 511 -12 654 -12 z m 511 117 l 511 117 q 671 163 610 117 q 760 286 732 209 q 789 456 789 363 l 789 456 q 760 627 789 550 q 671 750 732 704 q 511 795 610 795 l 511 795 q 349 750 411 795 q 260 627 288 704 q 232 456 232 550 l 232 456 q 260 286 232 363 q 349 163 288 209 q 511 117 411 117 z "},"R":{"ha":861,"x_min":115,"x_max":825,"o":"m 271 0 l 115 0 l 115 913 l 475 913 q 625 888 558 913 q 732 808 692 863 q 772 666 772 754 l 772 666 q 724 518 772 579 q 583 434 677 457 l 583 434 q 671 399 637 425 q 727 330 705 374 q 765 221 748 286 l 765 221 l 825 0 l 663 0 l 616 193 q 584 290 602 251 q 535 349 566 329 q 452 368 505 368 l 452 368 l 271 368 l 271 0 z m 271 783 l 271 497 l 451 497 q 535 514 498 497 q 592 563 571 531 q 613 641 613 595 l 613 641 q 572 746 613 709 q 458 783 531 783 l 458 783 l 271 783 z "},"S":{"ha":808,"x_min":52,"x_max":758,"o":"m 410 -12 l 410 -12 q 228 18 309 -12 q 99 111 146 47 q 52 278 52 175 l 52 278 l 210 278 q 239 180 212 216 q 312 129 266 144 q 413 114 357 114 l 413 114 q 508 128 466 114 q 575 172 551 142 q 600 248 600 202 l 600 248 q 580 317 600 290 q 511 365 559 344 q 379 408 463 385 l 379 408 q 213 467 281 435 q 110 550 145 500 q 75 677 75 600 l 75 677 q 115 815 75 761 q 227 897 155 870 q 395 924 299 924 l 395 924 q 563 896 487 924 q 684 810 638 868 q 729 665 729 753 l 729 665 l 570 665 q 520 767 571 733 q 395 802 469 802 l 395 802 q 277 773 321 802 q 233 686 233 744 l 233 686 q 252 629 233 653 q 319 585 271 605 q 457 539 368 564 l 457 539 q 628 477 562 510 q 726 392 694 444 q 758 255 758 340 l 758 255 q 712 104 758 163 q 587 16 666 45 q 410 -12 509 -12 z "},"T":{"ha":683,"x_min":12,"x_max":671,"o":"m 420 0 l 264 0 l 264 782 l 12 782 l 12 913 l 671 913 l 671 782 l 420 782 l 420 0 z "},"U":{"ha":956,"x_min":103,"x_max":854,"o":"m 478 -12 l 478 -12 q 263 32 347 -12 q 142 158 180 76 q 103 351 103 239 l 103 351 l 103 913 l 262 913 l 262 361 q 316 176 262 233 q 479 118 370 118 l 479 118 q 641 176 587 118 q 694 361 694 233 l 694 361 l 694 913 l 854 913 l 854 351 q 815 158 854 239 q 693 32 776 76 q 478 -12 610 -12 z "},"V":{"ha":835,"x_min":3,"x_max":831,"o":"m 507 0 l 323 0 l 3 913 l 171 913 l 416 161 l 665 913 l 831 913 l 507 0 z "},"W":{"ha":1273,"x_min":3,"x_max":1270,"o":"m 436 0 l 272 0 l 3 913 l 165 913 l 355 189 l 556 913 l 720 913 l 920 189 l 1111 913 l 1270 913 l 1000 0 l 837 0 l 635 727 l 436 0 z "},"X":{"ha":800,"x_min":6,"x_max":793,"o":"m 180 0 l 6 0 l 312 475 l 29 913 l 208 913 l 399 585 l 599 913 l 770 913 l 488 473 l 793 0 l 609 0 l 399 350 l 180 0 z "},"Y":{"ha":781,"x_min":0,"x_max":781,"o":"m 470 0 l 311 0 l 311 352 l 0 913 l 173 913 l 391 494 l 608 913 l 781 913 l 470 352 l 470 0 z "},"Z":{"ha":739,"x_min":30,"x_max":709,"o":"m 709 0 l 30 0 l 30 123 l 490 782 l 62 782 l 62 913 l 680 913 l 680 795 l 215 131 l 709 131 l 709 0 z "},"[":{"ha":438,"x_min":87,"x_max":388,"o":"m 388 -244 l 87 -244 l 87 918 l 388 918 l 388 795 l 227 795 l 227 -120 l 388 -120 l 388 -244 z "},"\\":{"ha":504,"x_min":19,"x_max":485,"o":"m 485 0 l 351 0 l 19 913 l 153 913 l 485 0 z "},"]":{"ha":438,"x_min":51,"x_max":351,"o":"m 351 -244 l 51 -244 l 51 -120 l 211 -120 l 211 795 l 51 795 l 51 918 l 351 918 l 351 -244 z "},"^":{"ha":742,"x_min":88,"x_max":654,"o":"m 225 529 l 88 529 l 313 913 l 429 913 l 654 529 l 517 529 l 371 786 l 225 529 z "},"_":{"ha":639,"x_min":0,"x_max":639,"o":"m 639 -160 l 0 -160 l 0 -96 l 639 -96 l 639 -160 z "},"`":{"ha":766,"x_min":163,"x_max":460,"o":"m 460 751 l 351 751 l 163 937 l 325 937 l 460 751 z "},"a":{"ha":752,"x_min":67,"x_max":656,"o":"m 278 -12 l 278 -12 q 173 10 221 -12 q 96 74 125 31 q 67 182 67 117 l 67 182 q 122 318 67 272 q 278 381 178 364 q 512 400 378 398 l 512 400 l 512 441 q 475 543 512 515 q 382 570 439 570 l 382 570 q 281 541 321 570 q 240 445 240 511 l 240 445 l 101 445 q 137 577 101 528 q 236 650 172 627 q 382 672 299 672 l 382 672 q 488 662 439 672 q 575 626 538 652 q 634 556 613 601 q 656 443 656 512 l 656 443 l 656 0 l 519 0 l 513 93 q 412 16 470 44 q 278 -12 354 -12 z m 322 93 l 322 93 q 431 122 382 93 q 511 193 479 151 l 511 193 l 511 313 q 281 283 349 313 q 214 189 214 254 l 214 189 q 242 118 214 143 q 322 93 271 93 z "},"b":{"ha":797,"x_min":102,"x_max":730,"o":"m 452 -12 l 452 -12 q 329 16 378 -12 q 248 93 280 44 l 248 93 l 241 0 l 102 0 l 102 913 l 250 913 l 250 561 q 337 642 284 611 q 466 673 391 673 l 466 673 q 604 635 545 673 q 696 521 663 597 q 730 330 730 446 l 730 330 q 694 139 730 216 q 596 25 659 63 q 452 -12 533 -12 z m 418 103 l 418 103 q 538 161 496 103 q 579 328 579 220 l 579 328 q 540 500 579 442 q 429 559 501 559 l 429 559 q 319 524 365 559 q 250 439 274 488 l 250 439 l 250 214 q 315 136 273 168 q 418 103 357 103 z "},"c":{"ha":746,"x_min":67,"x_max":679,"o":"m 386 -10 l 386 -10 q 222 26 294 -10 q 109 138 151 62 q 67 328 67 213 l 67 328 q 107 520 67 444 q 219 634 148 597 q 386 672 291 672 l 386 672 q 530 646 466 672 q 633 566 595 619 q 673 433 671 513 l 673 433 l 530 433 q 490 524 527 490 q 387 557 452 557 l 387 557 q 258 497 300 557 q 217 328 217 437 l 217 328 q 235 208 217 258 q 291 131 254 157 q 387 104 329 104 l 387 104 q 494 140 454 104 q 536 241 534 175 l 536 241 l 679 241 q 638 102 677 159 q 534 18 600 46 q 386 -10 469 -10 z "},"d":{"ha":796,"x_min":67,"x_max":694,"o":"m 330 -12 l 330 -12 q 193 26 252 -12 q 100 141 134 64 q 67 334 67 218 l 67 334 q 103 523 67 448 q 201 635 138 597 q 346 673 264 673 l 346 673 q 466 643 415 673 q 547 564 517 613 l 547 564 l 547 913 l 694 913 l 694 0 l 555 0 l 547 95 q 458 18 512 47 q 330 -12 405 -12 z m 368 103 l 368 103 q 477 136 433 103 q 547 214 522 169 l 547 214 l 547 439 q 482 523 524 488 q 378 558 440 558 l 378 558 q 258 500 300 558 q 217 334 217 442 l 217 334 q 256 161 217 219 q 368 103 295 103 z "},"e":{"ha":752,"x_min":67,"x_max":684,"o":"m 392 -12 l 392 -12 q 211 31 283 -12 q 103 152 139 74 q 67 332 67 229 l 67 332 q 102 511 67 435 q 207 630 137 587 q 380 672 276 672 l 380 672 q 603 588 522 672 q 684 348 684 504 l 684 348 q 683 325 684 338 q 681 304 682 311 l 681 304 l 214 304 q 232 201 214 248 q 290 125 250 154 q 392 97 329 97 l 392 97 q 498 127 460 97 q 539 216 537 157 l 539 216 l 684 216 q 644 92 680 143 q 544 14 608 41 q 392 -12 479 -12 z m 215 403 l 215 403 l 538 403 q 494 525 536 483 q 380 566 452 566 l 380 566 q 264 524 307 566 q 215 403 221 482 z "},"f":{"ha":442,"x_min":18,"x_max":422,"o":"m 275 0 l 129 0 l 129 546 l 18 546 l 18 661 l 129 661 l 129 690 q 139 788 129 746 q 173 857 149 829 q 242 899 198 885 q 354 913 286 913 l 354 913 l 422 913 l 422 803 l 361 803 q 290 775 305 803 q 275 690 275 747 l 275 690 l 275 661 l 422 661 l 422 546 l 275 546 l 275 0 z "},"g":{"ha":692,"x_min":42,"x_max":675,"o":"m 348 -256 l 348 -256 q 168 -231 235 -256 q 72 -166 101 -207 q 42 -80 42 -126 l 42 -80 q 94 21 42 -23 q 254 82 145 64 l 254 82 l 279 133 l 366 133 q 603 89 530 133 q 675 -48 675 44 l 675 -48 q 592 -198 675 -140 q 348 -256 509 -256 z m 345 -158 l 345 -158 q 491 -130 448 -158 q 533 -61 533 -102 l 533 -61 q 518 -18 533 -36 q 468 10 504 0 q 366 20 431 20 l 366 20 l 256 20 q 199 -15 220 9 q 178 -68 178 -38 l 178 -68 q 217 -131 178 -103 q 345 -158 256 -158 z m 336 133 l 254 26 q 146 54 186 34 q 88 101 106 75 q 70 151 70 127 l 70 151 q 99 218 70 189 q 191 267 128 247 l 191 267 l 265 233 q 207 210 229 224 q 184 176 184 195 l 184 176 q 197 153 184 163 q 244 138 211 144 q 336 133 277 133 l 336 133 z m 338 212 l 338 212 q 192 244 252 212 q 101 327 132 275 q 71 439 71 379 l 71 439 q 102 554 71 503 q 194 637 133 606 q 342 668 254 668 l 342 668 q 490 637 431 668 q 579 554 549 606 q 608 439 608 503 l 608 439 q 578 326 608 378 q 488 243 548 274 q 338 212 429 212 z m 337 304 l 337 304 q 433 339 395 304 q 471 439 471 373 l 471 439 q 435 543 471 509 q 342 576 399 576 l 342 576 q 247 542 284 576 q 209 439 209 507 l 209 439 q 248 338 209 372 q 337 304 287 304 z m 518 581 l 518 581 l 469 637 q 548 728 496 704 q 675 753 600 753 l 675 753 l 675 640 q 584 630 625 640 q 518 581 542 621 z "},"h":{"ha":785,"x_min":102,"x_max":688,"o":"m 250 0 l 102 0 l 102 913 l 247 913 l 247 561 q 335 636 279 602 q 477 671 391 671 l 477 671 q 636 609 584 671 q 688 429 688 547 l 688 429 l 688 0 l 541 0 l 541 409 q 531 483 541 451 q 498 533 522 515 q 431 551 474 551 l 431 551 q 323 522 368 551 q 250 455 279 492 l 250 455 l 250 0 z "},"i":{"ha":352,"x_min":90,"x_max":262,"o":"m 250 0 l 102 0 l 102 661 l 250 661 l 250 0 z m 176 767 l 176 767 q 113 789 135 767 q 90 843 90 810 l 90 843 q 113 899 90 877 q 176 920 135 920 l 176 920 q 240 899 217 920 q 262 844 262 877 l 262 844 q 240 789 262 810 q 176 767 217 767 z "},"j":{"ha":352,"x_min":-24,"x_max":262,"o":"m 30 -243 l -24 -243 l -24 -125 l 9 -125 q 79 -103 56 -125 q 102 -31 102 -81 l 102 -31 l 102 661 l 250 661 l 250 -19 q 197 -185 250 -127 q 30 -243 144 -243 l 30 -243 z m 176 767 l 176 767 q 113 789 135 767 q 90 843 90 810 l 90 843 q 113 899 90 877 q 176 920 135 920 l 176 920 q 240 899 217 920 q 262 843 262 877 l 262 843 q 240 789 262 810 q 176 767 217 767 z "},"k":{"ha":709,"x_min":102,"x_max":715,"o":"m 250 0 l 102 0 l 102 913 l 250 913 l 250 353 l 528 661 l 692 661 l 412 355 l 715 0 l 543 0 l 250 347 l 250 0 z "},"l":{"ha":386,"x_min":96,"x_max":364,"o":"m 364 0 l 322 0 q 182 25 231 0 q 114 99 133 50 q 96 222 96 148 l 96 222 l 96 913 l 242 913 l 242 231 q 257 145 242 174 q 328 116 272 116 l 328 116 l 364 116 l 364 0 z "},"m":{"ha":1210,"x_min":102,"x_max":1114,"o":"m 250 0 l 102 0 l 102 661 l 243 661 l 247 561 q 335 636 278 602 q 475 671 391 671 l 475 671 q 631 607 581 671 q 682 429 682 543 l 682 429 l 682 0 l 535 0 l 535 409 q 525 483 535 451 q 491 533 515 515 q 425 551 467 551 l 425 551 q 321 522 363 551 q 250 455 278 492 l 250 455 l 250 0 z m 1114 0 l 967 0 l 967 409 q 957 483 967 451 q 923 533 947 515 q 857 551 899 551 l 857 551 q 753 523 795 551 q 680 458 710 495 l 680 458 l 660 555 q 762 635 701 600 q 907 671 823 671 l 907 671 q 1063 607 1012 671 q 1114 429 1114 543 l 1114 429 l 1114 0 z "},"n":{"ha":785,"x_min":102,"x_max":688,"o":"m 250 0 l 102 0 l 102 661 l 243 661 l 247 561 q 335 636 279 602 q 478 671 391 671 l 478 671 q 636 608 583 671 q 688 429 688 545 l 688 429 l 688 0 l 542 0 l 542 409 q 532 483 542 451 q 497 533 522 515 q 431 551 473 551 l 431 551 q 323 522 368 551 q 250 455 279 492 l 250 455 l 250 0 z "},"o":{"ha":781,"x_min":67,"x_max":714,"o":"m 388 -11 l 388 -11 q 217 30 290 -11 q 106 146 145 70 q 67 329 67 222 l 67 329 q 106 515 67 437 q 217 633 145 592 q 388 673 290 673 l 388 673 q 562 633 489 673 q 674 515 635 592 q 714 329 714 437 l 714 329 q 674 146 714 222 q 562 30 635 70 q 388 -11 489 -11 z m 388 103 l 388 103 q 493 133 454 103 q 548 214 532 163 q 564 329 564 265 l 564 329 q 548 446 564 394 q 493 529 532 498 q 388 559 454 559 l 388 559 q 287 529 324 559 q 233 446 250 498 q 217 329 217 394 l 217 329 q 233 214 217 265 q 287 133 250 163 q 388 103 324 103 z "},"p":{"ha":797,"x_min":102,"x_max":730,"o":"m 249 -243 l 102 -243 l 102 661 l 243 661 l 250 557 q 339 641 286 610 q 465 672 393 672 l 465 672 q 604 634 545 672 q 696 520 663 596 q 730 328 730 444 l 730 328 q 694 140 730 215 q 596 26 659 64 q 452 -12 533 -12 l 452 -12 q 332 15 384 -12 q 249 92 281 43 l 249 92 l 249 -243 z m 418 103 l 418 103 q 538 161 498 103 q 579 330 579 220 l 579 330 q 541 500 579 443 q 433 558 503 558 l 433 558 q 319 522 366 558 q 250 439 273 486 l 250 439 l 250 214 q 316 135 273 167 q 418 103 359 103 z "},"q":{"ha":796,"x_min":67,"x_max":694,"o":"m 694 -243 l 547 -243 l 547 98 q 458 18 512 48 q 331 -12 404 -12 l 331 -12 q 191 26 250 -12 q 99 141 132 64 q 67 334 67 218 l 67 334 q 102 523 67 448 q 200 635 138 597 q 343 673 262 673 l 343 673 q 467 643 416 673 q 547 564 517 612 l 547 564 l 552 661 l 694 661 l 694 -243 z m 363 103 l 363 103 q 477 136 431 102 q 547 217 522 170 l 547 217 l 547 440 q 482 524 524 488 q 378 559 441 559 l 378 559 q 257 501 299 559 q 216 334 216 442 l 216 334 q 255 161 216 219 q 363 103 294 104 z "},"r":{"ha":488,"x_min":102,"x_max":463,"o":"m 250 0 l 102 0 l 102 661 l 242 661 l 245 548 q 323 636 273 603 q 450 670 374 670 l 450 670 l 463 670 l 463 542 l 448 542 q 365 532 402 542 q 300 502 328 522 q 250 452 271 482 l 250 452 l 250 0 z "},"s":{"ha":696,"x_min":67,"x_max":628,"o":"m 353 -12 l 353 -12 q 246 -1 297 -12 q 154 36 195 10 q 91 104 114 62 q 67 210 67 147 l 67 210 l 205 210 q 249 117 205 143 q 354 90 292 90 l 354 90 q 448 111 412 90 q 483 180 483 132 l 483 180 q 447 243 483 222 q 321 285 411 264 l 321 285 q 194 327 248 303 q 111 390 140 351 q 82 490 82 429 l 82 490 q 103 572 82 537 q 161 629 125 606 q 245 662 198 651 q 346 673 293 673 l 346 673 q 444 662 397 673 q 529 625 492 650 q 588 559 566 600 q 610 460 610 519 l 610 460 l 472 460 q 435 545 472 520 q 346 570 397 570 l 346 570 q 259 552 292 570 q 227 495 227 534 l 227 495 q 244 457 227 473 q 299 428 261 441 q 402 399 338 414 l 402 399 q 522 359 471 383 q 601 296 573 335 q 628 195 628 257 l 628 195 q 606 100 628 139 q 546 36 584 60 q 458 -1 508 11 q 353 -12 408 -12 z "},"t":{"ha":471,"x_min":18,"x_max":429,"o":"m 429 0 l 354 0 q 215 25 264 0 q 148 99 166 50 q 129 222 129 148 l 129 222 l 129 546 l 18 546 l 18 661 l 129 661 l 129 815 l 275 815 l 275 661 l 429 661 l 429 546 l 275 546 l 275 231 q 290 144 275 174 q 361 115 305 115 l 361 115 l 429 115 l 429 0 z "},"u":{"ha":791,"x_min":96,"x_max":689,"o":"m 310 -9 l 310 -9 q 149 54 202 -9 q 96 230 96 117 l 96 230 l 96 661 l 243 661 l 243 248 q 253 178 243 209 q 289 131 263 148 q 360 113 315 113 l 360 113 q 468 141 424 113 q 543 206 513 168 l 543 206 l 543 661 l 689 661 l 689 0 l 547 0 l 545 101 q 454 25 512 60 q 310 -9 397 -9 z "},"v":{"ha":656,"x_min":0,"x_max":656,"o":"m 412 0 l 247 0 l 0 661 l 153 661 l 329 140 l 508 661 l 656 661 l 412 0 z "},"w":{"ha":1029,"x_min":5,"x_max":1024,"o":"m 367 0 l 215 0 l 5 661 l 155 661 l 297 161 l 440 661 l 597 661 l 743 161 l 883 661 l 1024 661 l 814 0 l 663 0 l 515 507 l 367 0 z "},"x":{"ha":651,"x_min":4,"x_max":647,"o":"m 159 0 l 4 0 l 254 370 l 315 411 l 469 661 l 626 661 l 394 317 l 338 277 l 159 0 z m 647 0 l 491 0 l 312 277 l 258 315 l 26 661 l 182 661 l 338 412 l 395 373 l 647 0 z "},"y":{"ha":656,"x_min":0,"x_max":656,"o":"m 149 -243 l 74 -243 l 74 -123 l 132 -123 q 198 -105 172 -123 q 241 -48 224 -88 l 241 -48 l 260 0 l 0 661 l 153 661 l 339 146 l 508 661 l 656 661 l 414 0 l 386 -73 q 332 -175 361 -138 q 258 -227 302 -212 q 149 -243 214 -243 l 149 -243 z "},"z":{"ha":627,"x_min":48,"x_max":580,"o":"m 580 0 l 48 0 l 48 109 l 385 546 l 76 546 l 76 661 l 559 661 l 559 558 l 220 115 l 580 115 l 580 0 z "},"{":{"ha":438,"x_min":4,"x_max":388,"o":"m 388 -245 l 306 -245 q 216 -224 255 -245 q 155 -162 176 -203 q 133 -59 133 -121 l 133 -59 l 133 121 q 120 217 133 182 q 78 265 106 251 q 4 279 50 279 l 4 279 l 4 394 q 78 409 50 394 q 120 457 106 423 q 133 547 133 490 l 133 547 l 133 736 q 155 839 133 799 q 216 899 176 880 q 306 918 255 918 l 306 918 l 388 918 l 388 810 l 347 810 q 289 784 307 810 q 271 715 271 758 l 271 715 l 271 526 q 258 429 271 467 q 220 372 244 392 q 161 342 195 351 l 161 342 q 220 307 195 330 q 258 244 245 283 q 271 148 271 205 l 271 148 l 271 -41 q 289 -110 271 -84 q 347 -136 307 -136 l 347 -136 l 388 -136 l 388 -245 z "},"|":{"ha":375,"x_min":127,"x_max":248,"o":"m 248 -243 l 127 -243 l 127 913 l 248 913 l 248 -243 z "},"}":{"ha":438,"x_min":51,"x_max":435,"o":"m 132 -245 l 51 -245 l 51 -136 l 91 -136 q 149 -110 132 -136 q 166 -41 166 -84 l 166 -41 l 166 148 q 179 244 166 205 q 218 307 193 283 q 277 342 243 330 l 277 342 q 218 372 243 351 q 179 429 193 392 q 166 526 166 467 l 166 526 l 166 715 q 149 784 166 758 q 91 810 132 810 l 91 810 l 51 810 l 51 918 l 132 918 q 222 899 183 918 q 284 839 262 880 q 306 736 306 799 l 306 736 l 306 547 q 319 457 306 490 q 360 409 332 423 q 435 394 389 394 l 435 394 l 435 279 q 360 265 389 279 q 319 217 332 251 q 306 121 306 182 l 306 121 l 306 -59 q 284 -162 306 -121 q 222 -224 262 -203 q 132 -245 183 -245 l 132 -245 z "},"~":{"ha":742,"x_min":25,"x_max":715,"o":"m 519 338 l 519 338 q 418 359 460 338 q 338 410 377 381 l 338 410 q 281 447 305 434 q 228 460 257 460 l 228 460 q 175 433 194 460 q 154 342 156 406 l 154 342 l 25 342 q 81 516 31 452 q 222 581 132 581 l 222 581 q 321 561 279 581 q 404 511 363 541 l 404 511 q 460 473 437 486 q 513 460 484 460 l 513 460 q 566 487 547 460 q 587 578 585 515 l 587 578 l 715 578 q 661 403 711 468 q 519 338 610 338 z "}," ":{"ha":282,"x_min":null,"x_max":null,"o":""},"¡":{"ha":408,"x_min":103,"x_max":304,"o":"m 280 -246 l 128 -246 l 128 -8 q 139 197 128 98 q 163 371 151 297 l 163 371 l 244 371 q 269 198 258 297 q 280 -8 280 98 l 280 -8 l 280 -246 z m 204 479 l 204 479 q 132 506 160 479 q 103 576 103 533 l 103 576 q 132 646 103 617 q 204 674 160 674 l 204 674 q 276 646 248 674 q 304 576 304 617 l 304 576 q 276 506 304 533 q 204 479 248 479 z "},"¢":{"ha":742,"x_min":65,"x_max":677,"o":"m 420 -147 l 342 -147 l 342 798 l 420 798 l 420 -147 z m 384 -10 l 384 -10 q 220 26 292 -10 q 107 138 149 62 q 65 328 65 213 l 65 328 q 105 520 65 444 q 217 634 146 597 q 384 672 289 672 l 384 672 q 528 646 464 672 q 631 566 593 619 q 671 433 669 513 l 671 433 l 528 433 q 488 524 525 490 q 385 557 450 557 l 385 557 q 255 497 297 557 q 212 328 212 437 l 212 328 q 255 163 212 222 q 385 104 297 104 l 385 104 q 492 140 452 104 q 534 241 533 175 l 534 241 l 677 241 q 636 102 675 159 q 532 18 597 46 q 384 -10 467 -10 z "},"£":{"ha":742,"x_min":45,"x_max":684,"o":"m 684 0 l 70 0 l 70 118 q 191 200 159 153 q 223 295 223 247 l 223 295 q 207 374 223 334 q 161 465 190 414 l 161 465 q 112 566 129 522 q 95 661 95 610 l 95 661 q 172 833 95 768 q 391 899 250 899 l 391 899 q 546 870 480 899 q 648 782 612 841 q 684 630 684 723 l 684 630 l 545 630 q 526 718 546 686 q 471 764 505 750 q 393 779 436 779 l 393 779 q 280 744 321 779 q 239 652 239 710 l 239 652 q 254 582 239 617 q 295 501 269 547 l 295 501 q 347 398 327 446 q 366 299 366 351 l 366 299 q 351 219 366 260 q 296 145 336 178 q 184 100 257 113 l 184 100 l 184 133 l 684 133 l 684 0 z m 586 359 l 45 359 l 45 445 l 586 445 l 586 359 z "},"¤":{"ha":742,"x_min":59,"x_max":683,"o":"m 231 223 l 138 131 l 59 211 l 151 302 q 120 369 131 333 q 109 443 109 404 l 109 443 q 120 518 109 482 q 151 584 131 554 l 151 584 l 59 676 l 138 755 l 231 663 q 297 694 261 684 q 371 705 332 705 l 371 705 q 446 694 410 705 q 511 663 481 684 l 511 663 l 604 755 l 683 676 l 591 583 q 622 518 611 553 q 632 443 632 482 l 632 443 q 622 369 632 404 q 591 303 611 334 l 591 303 l 683 211 l 604 131 l 511 223 q 446 193 481 203 q 371 182 410 182 l 371 182 q 297 193 333 182 q 231 223 261 203 l 231 223 z m 371 293 l 371 293 q 447 313 413 293 q 502 367 481 333 q 522 443 522 401 l 522 443 q 502 519 522 485 q 447 573 481 553 q 371 593 413 593 l 371 593 q 295 573 330 593 q 241 519 261 553 q 221 443 221 485 l 221 443 q 241 367 221 401 q 295 313 261 333 q 371 293 330 293 z "},"¥":{"ha":742,"x_min":18,"x_max":724,"o":"m 657 330 l 85 330 l 85 414 l 657 414 l 657 330 z m 657 163 l 85 163 l 85 248 l 657 248 l 657 163 z m 447 0 l 294 0 l 294 344 l 18 887 l 184 887 l 372 481 l 560 887 l 724 887 l 447 344 l 447 0 z "},"¦":{"ha":375,"x_min":127,"x_max":248,"o":"m 127 -243 l 127 204 l 248 204 l 248 -243 l 127 -243 z m 127 465 l 127 913 l 248 913 l 248 465 l 127 465 z "},"§":{"ha":673,"x_min":67,"x_max":605,"o":"m 335 -12 l 335 -12 q 234 -1 282 -12 q 149 35 186 10 q 89 100 111 59 q 67 199 67 140 l 67 199 l 200 199 q 239 112 200 136 q 338 87 277 87 l 338 87 q 430 106 393 87 q 466 171 466 126 l 466 171 q 432 233 466 213 q 311 274 397 253 l 311 274 q 220 300 262 286 q 147 335 178 315 q 99 386 116 356 q 81 459 81 416 l 81 459 q 131 572 81 528 q 271 616 181 616 l 271 616 l 334 561 q 248 540 279 559 q 216 484 216 520 l 216 484 q 261 420 216 440 q 389 380 306 399 l 389 380 q 504 343 455 364 q 578 285 552 321 q 605 184 605 248 l 605 184 q 584 93 605 131 q 525 33 562 56 q 438 -1 488 9 q 335 -12 389 -12 z m 420 313 l 420 313 l 357 365 q 439 388 407 368 q 471 452 471 409 l 471 452 q 436 514 471 494 q 311 554 400 535 l 311 554 q 219 580 261 566 q 146 616 177 595 q 98 668 115 637 q 81 745 81 700 l 81 745 q 102 827 81 793 q 157 882 122 861 q 238 914 193 904 q 334 924 284 924 l 334 924 q 429 913 384 924 q 511 879 475 903 q 568 816 547 855 q 589 720 589 777 l 589 720 l 456 720 q 420 802 456 779 q 334 826 385 826 l 334 826 q 253 809 285 826 q 222 754 222 791 l 222 754 q 238 716 222 732 q 291 689 254 701 q 389 661 328 676 l 389 661 q 504 624 455 645 q 578 567 552 603 q 605 470 605 532 l 605 470 q 578 380 605 415 q 509 330 551 346 q 420 313 467 313 z "},"¨":{"ha":766,"x_min":186,"x_max":581,"o":"m 508 773 l 508 773 q 456 793 477 773 q 435 843 435 812 l 435 843 q 456 894 435 874 q 508 913 477 913 l 508 913 q 560 894 539 913 q 581 843 581 874 l 581 843 q 560 793 581 812 q 508 773 539 773 z m 259 773 l 259 773 q 207 793 228 773 q 186 843 186 812 l 186 843 q 207 894 186 874 q 259 913 228 913 l 259 913 q 310 894 289 913 q 331 843 331 874 l 331 843 q 310 793 331 812 q 259 773 289 773 z "},"©":{"ha":1040,"x_min":52,"x_max":989,"o":"m 519 -12 l 519 -12 q 338 24 422 -12 q 189 125 253 60 q 88 274 124 189 q 52 456 52 359 l 52 456 q 88 638 52 553 q 189 788 124 724 q 338 889 253 852 q 519 925 422 925 l 519 925 q 702 889 617 925 q 852 788 787 852 q 952 638 916 724 q 989 456 989 553 l 989 456 q 952 274 989 359 q 852 125 916 189 q 702 24 787 60 q 519 -12 617 -12 z m 519 92 l 519 92 q 661 121 595 92 q 776 199 726 149 q 854 315 826 249 q 882 456 882 380 l 882 456 q 854 597 882 532 q 775 713 825 663 q 660 792 726 764 q 519 820 594 820 l 519 820 q 379 792 445 820 q 264 713 313 764 q 186 597 214 663 q 158 456 158 531 l 158 456 q 186 315 158 380 q 264 199 215 249 q 379 120 314 149 q 519 92 445 92 z m 530 195 l 530 195 q 351 266 417 195 q 286 456 286 336 l 286 456 q 351 647 286 576 q 530 717 417 717 l 530 717 q 688 663 627 717 q 750 522 748 610 l 750 522 l 639 522 q 609 593 638 566 q 530 619 579 619 l 530 619 q 432 577 467 619 q 397 456 397 534 l 397 456 q 432 336 397 378 q 530 294 467 294 l 530 294 q 611 322 584 294 q 640 401 638 351 l 640 401 l 752 401 q 690 250 749 304 q 530 195 631 195 z "},"ª":{"ha":608,"x_min":52,"x_max":534,"o":"m 222 378 l 222 378 q 139 396 178 378 q 76 448 100 413 q 52 536 52 484 l 52 536 q 97 647 52 610 q 221 697 141 684 q 408 713 301 710 l 408 713 l 408 744 q 381 815 408 795 q 311 836 354 836 l 311 836 q 235 815 264 836 q 205 747 205 794 l 205 747 l 81 747 q 145 883 81 842 q 311 925 208 925 l 311 925 q 429 908 378 925 q 506 852 479 891 q 534 745 534 812 l 534 745 l 534 391 l 414 391 l 409 460 q 328 398 374 418 q 222 378 282 378 z m 266 469 l 266 469 q 355 496 317 469 q 408 562 393 522 l 408 562 l 408 639 q 234 615 285 637 q 183 543 183 592 l 183 543 q 205 488 183 507 q 266 469 228 469 z "},"«":{"ha":597,"x_min":59,"x_max":539,"o":"m 539 237 l 539 109 l 315 302 l 315 395 l 539 588 l 539 460 l 417 348 l 539 237 z m 285 237 l 285 109 l 59 302 l 59 395 l 285 588 l 285 460 l 163 348 l 285 237 z "},"¬":{"ha":742,"x_min":64,"x_max":676,"o":"m 64 547 l 64 668 l 676 668 l 676 547 l 64 547 z m 676 240 l 555 240 l 555 668 l 676 668 l 676 240 z "},"­":{"ha":473,"x_min":58,"x_max":414,"o":"m 414 273 l 58 273 l 58 399 l 414 399 l 414 273 z "},"®":{"ha":641,"x_min":67,"x_max":574,"o":"m 320 408 l 320 408 q 193 443 251 408 q 101 535 136 477 q 67 663 67 593 l 67 663 q 101 791 67 733 q 193 883 136 848 q 320 917 251 917 l 320 917 q 448 883 391 917 q 539 791 505 848 q 574 663 574 733 l 574 663 q 539 535 574 593 q 448 443 505 477 q 320 408 391 408 z m 320 467 l 320 467 q 417 494 374 467 q 487 565 461 520 q 513 663 513 609 l 513 663 q 487 761 513 717 q 417 831 461 805 q 320 858 374 858 l 320 858 q 224 831 268 858 q 154 761 180 805 q 127 663 127 717 l 127 663 q 154 565 127 609 q 224 494 180 520 q 320 467 268 467 z m 286 545 l 224 545 l 224 788 l 332 788 q 399 770 375 788 q 423 720 423 753 l 423 720 q 408 677 423 693 q 367 654 393 661 l 367 654 l 368 664 q 401 646 389 659 q 420 610 413 633 l 420 610 l 440 545 l 377 545 l 361 599 q 347 628 355 621 q 323 635 339 635 l 323 635 l 286 635 l 286 545 z m 286 737 l 286 684 l 325 684 q 351 692 342 684 q 360 712 360 699 l 360 712 q 328 737 360 737 l 328 737 l 286 737 z "},"¯":{"ha":766,"x_min":195,"x_max":572,"o":"m 572 789 l 195 789 l 195 886 l 572 886 l 572 789 z "},"°":{"ha":517,"x_min":39,"x_max":478,"o":"m 258 458 l 258 458 q 148 488 198 458 q 68 568 98 518 q 39 679 39 618 l 39 679 q 68 790 39 740 q 148 869 98 840 q 258 899 198 899 l 258 899 q 369 869 319 899 q 449 790 419 840 q 478 679 478 740 l 478 679 q 449 568 478 618 q 369 488 419 518 q 258 458 319 458 z m 258 568 l 258 568 q 337 600 304 568 q 370 679 370 633 l 370 679 q 337 757 370 724 q 258 790 304 790 l 258 790 q 180 757 212 790 q 147 679 147 724 l 147 679 q 180 600 147 633 q 258 568 212 568 z "},"±":{"ha":742,"x_min":64,"x_max":676,"o":"m 64 472 l 64 582 l 676 582 l 676 472 l 64 472 z m 431 298 l 310 298 l 310 757 l 431 757 l 431 298 z m 64 151 l 64 260 l 676 260 l 676 151 l 64 151 z "},"²":{"ha":484,"x_min":37,"x_max":450,"o":"m 450 664 l 37 664 l 37 739 l 255 919 q 313 977 294 952 q 332 1035 332 1002 l 332 1035 q 312 1089 332 1067 q 243 1111 292 1111 l 243 1111 q 165 1084 188 1111 q 143 1018 143 1058 l 143 1018 l 41 1018 q 93 1156 41 1106 q 243 1205 145 1205 l 243 1205 q 387 1163 333 1205 q 440 1044 440 1120 l 440 1044 q 420 962 440 998 q 371 899 401 927 q 309 847 341 871 l 309 847 l 194 756 l 450 756 l 450 664 z "},"³":{"ha":484,"x_min":35,"x_max":452,"o":"m 247 656 l 247 656 q 91 700 146 656 q 35 831 35 744 l 35 831 l 137 831 q 165 769 137 792 q 246 745 194 745 l 246 745 q 318 765 294 745 q 343 824 343 784 l 343 824 q 313 883 343 865 q 235 901 283 901 l 235 901 l 199 901 l 199 986 l 238 986 q 309 1004 284 986 q 334 1053 334 1021 l 334 1053 q 310 1100 334 1084 q 245 1116 286 1116 l 245 1116 q 177 1097 202 1116 q 153 1043 153 1077 l 153 1043 l 51 1043 q 76 1135 51 1099 q 145 1188 102 1171 q 245 1205 189 1205 l 245 1205 q 339 1190 296 1205 q 409 1144 382 1175 q 435 1065 435 1114 l 435 1065 q 409 988 435 1019 q 335 945 382 958 l 335 945 q 419 903 386 936 q 452 817 452 870 l 452 817 q 396 698 452 739 q 247 656 340 656 z "},"´":{"ha":766,"x_min":303,"x_max":602,"o":"m 414 751 l 303 751 l 439 937 l 602 937 l 414 751 z "},"µ":{"ha":798,"x_min":102,"x_max":694,"o":"m 243 -244 l 102 -244 l 102 661 l 250 661 l 250 252 q 259 181 250 212 q 295 133 269 150 q 366 115 321 115 l 366 115 q 475 142 431 115 q 549 206 519 170 l 549 206 l 549 661 l 694 661 l 694 0 l 553 0 l 551 101 q 464 19 517 46 q 357 -7 412 -7 l 357 -7 q 255 18 302 -7 q 178 90 208 43 q 149 206 149 138 l 149 206 l 243 206 l 243 -244 z "},"¶":{"ha":819,"x_min":52,"x_max":716,"o":"m 471 -132 l 345 -132 l 345 427 l 294 427 q 118 493 184 427 q 52 669 52 559 l 52 669 q 118 846 52 780 q 294 913 184 913 l 294 913 l 716 913 l 716 -132 l 591 -132 l 591 791 l 471 791 l 471 -132 z "},"·":{"ha":407,"x_min":102,"x_max":304,"o":"m 204 255 l 204 255 q 131 283 159 255 q 102 353 102 312 l 102 353 q 131 424 102 397 q 204 451 159 451 l 204 451 q 277 424 249 451 q 304 353 304 397 l 304 353 q 277 283 304 312 q 204 255 249 255 z "},"¸":{"ha":766,"x_min":258,"x_max":537,"o":"m 391 -258 l 391 -258 q 316 -251 347 -258 q 258 -233 286 -244 l 258 -233 l 279 -163 q 328 -178 300 -172 q 385 -184 356 -184 l 385 -184 q 426 -173 410 -184 q 441 -141 441 -161 l 441 -141 q 421 -109 441 -120 q 345 -91 400 -98 l 345 -91 l 315 -87 l 407 32 l 469 7 l 425 -50 l 397 -37 q 499 -66 461 -39 q 537 -143 537 -92 l 537 -143 q 517 -208 537 -182 q 465 -245 498 -233 q 391 -258 431 -258 z "},"¹":{"ha":484,"x_min":80,"x_max":345,"o":"m 345 664 l 233 664 l 233 1071 q 176 1030 212 1050 q 80 1003 140 1011 l 80 1003 l 80 1103 q 149 1127 119 1113 q 203 1159 180 1141 q 243 1200 226 1178 l 243 1200 l 345 1200 l 345 664 z "},"º":{"ha":633,"x_min":52,"x_max":581,"o":"m 314 378 l 314 378 q 176 411 235 378 q 84 504 117 443 q 52 651 52 566 l 52 651 q 84 799 52 738 q 176 893 117 861 q 314 925 235 925 l 314 925 q 454 892 395 925 q 547 799 514 860 q 581 651 581 738 l 581 651 q 547 504 581 566 q 454 411 514 443 q 314 378 395 378 z m 314 479 l 314 479 q 420 529 390 479 q 450 651 450 579 l 450 651 q 437 739 450 700 q 394 801 424 778 q 314 824 365 824 l 314 824 q 212 774 241 824 q 182 651 182 724 l 182 651 q 212 529 182 578 q 314 479 241 479 z "},"»":{"ha":597,"x_min":59,"x_max":539,"o":"m 539 302 l 315 109 l 315 237 l 435 348 l 315 460 l 315 588 l 539 395 l 539 302 z m 285 302 l 59 109 l 59 237 l 181 348 l 59 460 l 59 588 l 285 395 l 285 302 z "},"¼":{"ha":1021,"x_min":24,"x_max":986,"o":"m 289 358 l 176 358 l 176 765 q 120 725 156 744 q 24 697 83 705 l 24 697 l 24 798 q 93 821 62 807 q 146 853 123 835 q 186 894 170 872 l 186 894 l 289 894 l 289 358 z m 276 0 l 165 0 l 705 887 l 816 887 l 276 0 z m 911 0 l 804 0 l 804 98 l 543 98 l 543 189 l 804 534 l 911 534 l 911 187 l 987 187 l 987 98 l 911 98 l 911 0 z m 806 397 l 644 187 l 806 187 l 806 397 z "},"½":{"ha":1078,"x_min":24,"x_max":1044,"o":"m 289 358 l 176 358 l 176 765 q 120 725 156 744 q 24 697 83 705 l 24 697 l 24 798 q 93 821 62 807 q 146 853 123 835 q 186 894 170 872 l 186 894 l 289 894 l 289 358 z m 283 0 l 173 0 l 712 887 l 823 887 l 283 0 z m 1044 0 l 631 0 l 631 75 l 849 255 q 907 313 888 288 q 926 371 926 338 l 926 371 q 906 425 926 404 q 837 447 886 447 l 837 447 q 760 420 782 447 q 737 354 737 394 l 737 354 l 635 354 q 687 492 635 442 q 837 541 739 541 l 837 541 q 981 499 927 541 q 1034 380 1034 456 l 1034 380 q 1015 298 1034 334 q 965 235 995 263 q 903 183 935 208 l 903 183 l 788 92 l 1044 92 l 1044 0 z "},"¾":{"ha":1104,"x_min":35,"x_max":1069,"o":"m 247 351 l 247 351 q 91 394 146 351 q 35 526 35 438 l 35 526 l 137 526 q 165 463 137 486 q 246 439 194 439 l 246 439 q 318 459 294 439 q 343 518 343 478 l 343 518 q 313 577 343 559 q 235 595 283 595 l 235 595 l 199 595 l 199 680 l 238 680 q 309 698 284 680 q 334 747 334 715 l 334 747 q 310 794 334 779 q 245 810 286 810 l 245 810 q 177 791 202 810 q 153 737 153 771 l 153 737 l 51 737 q 76 829 51 793 q 145 882 102 865 q 245 899 189 899 l 245 899 q 339 884 296 899 q 409 839 382 869 q 435 759 435 808 l 435 759 q 409 682 435 713 q 335 640 382 652 l 335 640 q 419 597 386 630 q 452 511 452 564 l 452 511 q 396 392 452 433 q 247 351 340 351 z m 366 0 l 256 0 l 795 887 l 906 887 l 366 0 z m 994 0 l 886 0 l 886 98 l 625 98 l 625 189 l 886 534 l 994 534 l 994 187 l 1069 187 l 1069 98 l 994 98 l 994 0 z m 888 397 l 727 187 l 888 187 l 888 397 z "},"¿":{"ha":707,"x_min":50,"x_max":657,"o":"m 293 368 l 428 368 q 429 355 429 361 q 429 341 429 349 l 429 341 q 401 224 429 270 q 316 136 374 178 l 316 136 q 233 61 260 94 q 206 -20 206 28 l 206 -20 q 241 -106 206 -73 q 349 -139 277 -139 l 349 -139 q 466 -100 425 -139 q 508 7 507 -62 l 508 7 l 657 7 q 618 -137 657 -77 q 511 -227 580 -196 q 349 -258 442 -258 l 349 -258 q 192 -230 259 -258 q 87 -148 125 -201 q 50 -20 50 -95 l 50 -20 q 68 76 50 35 q 120 148 87 116 q 199 212 154 180 l 199 212 q 255 261 235 239 q 282 310 274 284 q 293 368 290 336 l 293 368 z m 358 672 l 358 672 q 430 644 402 672 q 458 574 458 615 l 458 574 q 430 504 458 531 q 358 477 402 477 l 358 477 q 286 504 314 477 q 258 574 258 531 l 258 574 q 286 644 258 615 q 358 672 314 672 z "},"À":{"ha":840,"x_min":3,"x_max":836,"o":"m 165 0 l 3 0 l 339 913 l 503 913 l 836 0 l 674 0 l 598 228 l 244 228 l 165 0 z m 420 758 l 283 359 l 557 359 l 420 758 z m 491 989 l 380 989 l 200 1174 l 361 1174 l 491 989 z "},"Á":{"ha":840,"x_min":3,"x_max":836,"o":"m 165 0 l 3 0 l 339 913 l 503 913 l 836 0 l 674 0 l 598 228 l 244 228 l 165 0 z m 420 758 l 283 359 l 557 359 l 420 758 z m 458 989 l 347 989 l 476 1174 l 638 1174 l 458 989 z "},"Â":{"ha":840,"x_min":3,"x_max":836,"o":"m 165 0 l 3 0 l 339 913 l 503 913 l 836 0 l 674 0 l 598 228 l 244 228 l 165 0 z m 420 758 l 283 359 l 557 359 l 420 758 z m 319 989 l 205 989 l 350 1175 l 488 1175 l 633 989 l 518 989 l 419 1097 l 319 989 z "},"Ã":{"ha":840,"x_min":3,"x_max":836,"o":"m 165 0 l 3 0 l 339 913 l 503 913 l 836 0 l 674 0 l 598 228 l 244 228 l 165 0 z m 420 758 l 283 359 l 557 359 l 420 758 z m 291 999 l 210 999 q 247 1108 217 1069 q 330 1147 276 1147 l 330 1147 q 388 1137 360 1147 q 440 1117 415 1128 l 440 1117 q 480 1101 462 1107 q 513 1095 498 1095 l 513 1095 q 536 1108 528 1095 q 548 1149 545 1120 l 548 1149 l 628 1149 q 595 1044 621 1081 q 516 1006 570 1006 l 516 1006 q 457 1016 485 1006 q 406 1034 430 1025 l 406 1034 q 365 1051 382 1044 q 332 1057 347 1057 l 332 1057 q 304 1043 315 1057 q 291 999 294 1029 l 291 999 z "},"Ä":{"ha":840,"x_min":3,"x_max":836,"o":"m 165 0 l 3 0 l 339 913 l 503 913 l 836 0 l 674 0 l 598 228 l 244 228 l 165 0 z m 420 758 l 283 359 l 557 359 l 420 758 z m 544 1008 l 544 1008 q 492 1027 513 1008 q 471 1078 471 1047 l 471 1078 q 492 1129 471 1109 q 544 1149 513 1149 l 544 1149 q 596 1129 575 1149 q 616 1078 616 1109 l 616 1078 q 596 1027 616 1047 q 544 1008 575 1008 z m 295 1008 l 295 1008 q 243 1027 264 1008 q 222 1078 222 1047 l 222 1078 q 243 1129 222 1109 q 295 1149 264 1149 l 295 1149 q 346 1129 325 1149 q 367 1078 367 1109 l 367 1078 q 346 1027 367 1047 q 295 1008 325 1008 z "},"Å":{"ha":840,"x_min":3,"x_max":836,"o":"m 165 0 l 3 0 l 339 913 l 503 913 l 836 0 l 674 0 l 598 228 l 244 228 l 165 0 z m 420 758 l 283 359 l 557 359 l 420 758 z m 419 935 l 419 935 q 316 972 357 935 q 276 1073 276 1010 l 276 1073 q 316 1172 276 1134 q 419 1209 357 1209 l 419 1209 q 522 1172 481 1209 q 562 1073 562 1134 l 562 1073 q 522 972 562 1010 q 419 935 481 935 z m 419 1006 l 419 1006 q 466 1025 448 1006 q 484 1073 484 1044 l 484 1073 q 466 1121 484 1102 q 419 1139 448 1139 l 419 1139 q 372 1121 391 1139 q 354 1073 354 1102 l 354 1073 q 372 1025 354 1044 q 419 1006 391 1006 z "},"Æ":{"ha":1315,"x_min":-24,"x_max":1242,"o":"m 154 0 l -24 0 l 552 913 l 684 913 l 688 762 l 614 762 l 334 305 l 334 296 l 154 0 z m 729 228 l 260 228 l 260 359 l 729 359 l 729 228 z m 1242 0 l 645 0 l 645 913 l 1242 913 l 1242 783 l 801 783 l 801 531 l 1204 531 l 1204 405 l 801 405 l 801 130 l 1242 130 l 1242 0 z "},"Ç":{"ha":971,"x_min":71,"x_max":905,"o":"m 511 -12 l 511 -12 q 272 46 370 -12 q 122 210 174 105 q 71 456 71 315 l 71 456 q 122 702 71 596 q 272 866 174 807 q 511 925 370 925 l 511 925 q 697 890 610 925 q 840 786 784 856 q 903 612 895 717 l 903 612 l 744 612 q 703 715 736 675 q 620 775 670 755 q 511 795 570 795 l 511 795 q 349 749 411 795 q 260 626 288 703 q 232 456 232 549 l 232 456 q 260 287 232 363 q 349 163 288 210 q 511 117 411 117 l 511 117 q 675 169 613 117 q 746 320 737 221 l 746 320 l 905 320 q 844 137 896 211 q 707 25 793 62 q 511 -12 622 -12 z m 496 -258 l 496 -258 q 421 -251 452 -258 q 363 -233 391 -244 l 363 -233 l 384 -163 q 433 -178 405 -172 q 490 -184 461 -184 l 490 -184 q 531 -173 515 -184 q 547 -141 547 -161 l 547 -141 q 526 -109 547 -120 q 450 -91 505 -98 l 450 -91 l 420 -87 l 512 32 l 574 7 l 530 -50 l 503 -37 q 604 -66 566 -39 q 642 -143 642 -92 l 642 -143 q 623 -208 642 -182 q 570 -245 603 -233 q 496 -258 536 -258 z "},"È":{"ha":785,"x_min":115,"x_max":711,"o":"m 711 0 l 115 0 l 115 913 l 711 913 l 711 783 l 271 783 l 271 531 l 673 531 l 673 405 l 271 405 l 271 130 l 711 130 l 711 0 z m 485 989 l 374 989 l 194 1174 l 355 1174 l 485 989 z "},"É":{"ha":785,"x_min":115,"x_max":711,"o":"m 711 0 l 115 0 l 115 913 l 711 913 l 711 783 l 271 783 l 271 531 l 673 531 l 673 405 l 271 405 l 271 130 l 711 130 l 711 0 z m 452 989 l 341 989 l 470 1174 l 632 1174 l 452 989 z "},"Ê":{"ha":785,"x_min":115,"x_max":711,"o":"m 711 0 l 115 0 l 115 913 l 711 913 l 711 783 l 271 783 l 271 531 l 673 531 l 673 405 l 271 405 l 271 130 l 711 130 l 711 0 z m 313 989 l 199 989 l 344 1175 l 482 1175 l 627 989 l 512 989 l 413 1097 l 313 989 z "},"Ë":{"ha":785,"x_min":115,"x_max":711,"o":"m 711 0 l 115 0 l 115 913 l 711 913 l 711 783 l 271 783 l 271 531 l 673 531 l 673 405 l 271 405 l 271 130 l 711 130 l 711 0 z m 538 1008 l 538 1008 q 486 1027 507 1008 q 465 1078 465 1047 l 465 1078 q 486 1129 465 1109 q 538 1149 507 1149 l 538 1149 q 590 1129 569 1149 q 610 1078 610 1109 l 610 1078 q 590 1027 610 1047 q 538 1008 569 1008 z m 289 1008 l 289 1008 q 237 1027 258 1008 q 216 1078 216 1047 l 216 1078 q 237 1129 216 1109 q 289 1149 258 1149 l 289 1149 q 340 1129 319 1149 q 361 1078 361 1109 l 361 1078 q 340 1027 361 1047 q 289 1008 319 1008 z "},"Ì":{"ha":385,"x_min":-27,"x_max":271,"o":"m 271 0 l 115 0 l 115 913 l 271 913 l 271 0 z m 264 989 l 154 989 l -26 1174 l 135 1174 l 264 989 z "},"Í":{"ha":385,"x_min":115,"x_max":412,"o":"m 271 0 l 115 0 l 115 913 l 271 913 l 271 0 z m 231 989 l 121 989 l 250 1174 l 412 1174 l 231 989 z "},"Î":{"ha":385,"x_min":-22,"x_max":406,"o":"m 271 0 l 115 0 l 115 913 l 271 913 l 271 0 z m 92 989 l -22 989 l 123 1175 l 262 1175 l 406 989 l 292 989 l 193 1097 l 92 989 z "},"Ï":{"ha":385,"x_min":-5,"x_max":390,"o":"m 271 0 l 115 0 l 115 913 l 271 913 l 271 0 z m 317 1008 l 317 1008 q 266 1027 287 1008 q 245 1078 245 1047 l 245 1078 q 266 1129 245 1109 q 317 1149 287 1149 l 317 1149 q 369 1129 349 1149 q 390 1078 390 1109 l 390 1078 q 369 1027 390 1047 q 317 1008 349 1008 z m 68 1008 l 68 1008 q 16 1027 37 1008 q -5 1078 -5 1047 l -5 1078 q 16 1129 -5 1109 q 68 1149 37 1149 l 68 1149 q 119 1129 98 1149 q 140 1078 140 1109 l 140 1078 q 119 1027 140 1047 q 68 1008 98 1008 z "},"Ð":{"ha":967,"x_min":0,"x_max":896,"o":"m 496 399 l 0 399 l 0 525 l 496 525 l 496 399 z m 438 0 l 115 0 l 115 913 l 438 913 q 685 859 583 913 q 842 703 787 805 q 896 458 896 601 l 896 458 q 841 209 896 311 q 684 54 787 107 q 438 0 582 0 l 438 0 z m 271 782 l 271 131 l 414 131 q 594 166 523 131 q 700 275 665 202 q 735 458 735 347 l 735 458 q 699 639 735 567 q 590 746 662 711 q 414 782 519 782 l 414 782 l 271 782 z "},"Ñ":{"ha":992,"x_min":115,"x_max":878,"o":"m 261 0 l 115 0 l 115 913 l 270 913 l 730 242 l 730 913 l 878 913 l 878 0 l 722 0 l 261 673 l 261 0 z m 377 999 l 296 999 q 333 1108 303 1069 q 416 1147 362 1147 l 416 1147 q 474 1137 446 1147 q 526 1117 501 1128 l 526 1117 q 566 1101 548 1107 q 599 1095 584 1095 l 599 1095 q 623 1108 614 1095 q 634 1149 631 1120 l 634 1149 l 714 1149 q 682 1044 707 1081 q 602 1006 656 1006 l 602 1006 q 544 1016 571 1006 q 492 1034 516 1025 l 492 1034 q 451 1051 469 1044 q 418 1057 433 1057 l 418 1057 q 391 1043 401 1057 q 377 999 380 1029 l 377 999 z "},"Ò":{"ha":1021,"x_min":71,"x_max":949,"o":"m 511 -12 l 511 -12 q 269 46 367 -12 q 121 210 171 105 q 71 456 71 315 l 71 456 q 121 702 71 596 q 269 866 171 807 q 511 925 367 925 l 511 925 q 751 866 654 925 q 899 702 848 807 q 949 456 949 596 l 949 456 q 899 210 949 315 q 751 46 848 105 q 511 -12 654 -12 z m 511 117 l 511 117 q 671 163 610 117 q 760 286 732 209 q 789 456 789 363 l 789 456 q 760 627 789 550 q 671 750 732 704 q 511 795 610 795 l 511 795 q 349 750 411 795 q 260 627 288 704 q 232 456 232 550 l 232 456 q 260 286 232 363 q 349 163 288 209 q 511 117 411 117 z m 583 989 l 472 989 l 292 1174 l 453 1174 l 583 989 z "},"Ó":{"ha":1021,"x_min":71,"x_max":949,"o":"m 511 -12 l 511 -12 q 269 46 367 -12 q 121 210 171 105 q 71 456 71 315 l 71 456 q 121 702 71 596 q 269 866 171 807 q 511 925 367 925 l 511 925 q 751 866 654 925 q 899 702 848 807 q 949 456 949 596 l 949 456 q 899 210 949 315 q 751 46 848 105 q 511 -12 654 -12 z m 511 117 l 511 117 q 671 163 610 117 q 760 286 732 209 q 789 456 789 363 l 789 456 q 760 627 789 550 q 671 750 732 704 q 511 795 610 795 l 511 795 q 349 750 411 795 q 260 627 288 704 q 232 456 232 550 l 232 456 q 260 286 232 363 q 349 163 288 209 q 511 117 411 117 z m 549 989 l 439 989 l 568 1174 l 730 1174 l 549 989 z "},"Ô":{"ha":1021,"x_min":71,"x_max":949,"o":"m 511 -12 l 511 -12 q 269 46 367 -12 q 121 210 171 105 q 71 456 71 315 l 71 456 q 121 702 71 596 q 269 866 171 807 q 511 925 367 925 l 511 925 q 751 866 654 925 q 899 702 848 807 q 949 456 949 596 l 949 456 q 899 210 949 315 q 751 46 848 105 q 511 -12 654 -12 z m 511 117 l 511 117 q 671 163 610 117 q 760 286 732 209 q 789 456 789 363 l 789 456 q 760 627 789 550 q 671 750 732 704 q 511 795 610 795 l 511 795 q 349 750 411 795 q 260 627 288 704 q 232 456 232 550 l 232 456 q 260 286 232 363 q 349 163 288 209 q 511 117 411 117 z m 410 989 l 296 989 l 441 1175 l 580 1175 l 724 989 l 610 989 l 511 1097 l 410 989 z "},"Õ":{"ha":1021,"x_min":71,"x_max":949,"o":"m 511 -12 l 511 -12 q 269 46 367 -12 q 121 210 171 105 q 71 456 71 315 l 71 456 q 121 702 71 596 q 269 866 171 807 q 511 925 367 925 l 511 925 q 751 866 654 925 q 899 702 848 807 q 949 456 949 596 l 949 456 q 899 210 949 315 q 751 46 848 105 q 511 -12 654 -12 z m 511 117 l 511 117 q 671 163 610 117 q 760 286 732 209 q 789 456 789 363 l 789 456 q 760 627 789 550 q 671 750 732 704 q 511 795 610 795 l 511 795 q 349 750 411 795 q 260 627 288 704 q 232 456 232 550 l 232 456 q 260 286 232 363 q 349 163 288 209 q 511 117 411 117 z m 382 999 l 302 999 q 338 1108 309 1069 q 422 1147 368 1147 l 422 1147 q 479 1137 452 1147 q 532 1117 507 1128 l 532 1117 q 571 1101 553 1107 q 604 1095 589 1095 l 604 1095 q 628 1108 619 1095 q 640 1149 637 1120 l 640 1149 l 720 1149 q 687 1044 713 1081 q 608 1006 661 1006 l 608 1006 q 549 1016 576 1006 q 498 1034 522 1025 l 498 1034 q 456 1051 474 1044 q 423 1057 439 1057 l 423 1057 q 396 1043 406 1057 q 382 999 386 1029 l 382 999 z "},"Ö":{"ha":1021,"x_min":71,"x_max":949,"o":"m 511 -12 l 511 -12 q 269 46 367 -12 q 121 210 171 105 q 71 456 71 315 l 71 456 q 121 702 71 596 q 269 866 171 807 q 511 925 367 925 l 511 925 q 751 866 654 925 q 899 702 848 807 q 949 456 949 596 l 949 456 q 899 210 949 315 q 751 46 848 105 q 511 -12 654 -12 z m 511 117 l 511 117 q 671 163 610 117 q 760 286 732 209 q 789 456 789 363 l 789 456 q 760 627 789 550 q 671 750 732 704 q 511 795 610 795 l 511 795 q 349 750 411 795 q 260 627 288 704 q 232 456 232 550 l 232 456 q 260 286 232 363 q 349 163 288 209 q 511 117 411 117 z m 635 1008 l 635 1008 q 584 1027 605 1008 q 563 1078 563 1047 l 563 1078 q 584 1129 563 1109 q 635 1149 605 1149 l 635 1149 q 687 1129 667 1149 q 708 1078 708 1109 l 708 1078 q 687 1027 708 1047 q 635 1008 667 1008 z m 387 1008 l 387 1008 q 334 1027 355 1008 q 313 1078 313 1047 l 313 1078 q 334 1129 313 1109 q 387 1149 355 1149 l 387 1149 q 437 1129 416 1149 q 458 1078 458 1109 l 458 1078 q 437 1027 458 1047 q 387 1008 416 1008 z "},"×":{"ha":742,"x_min":112,"x_max":630,"o":"m 198 195 l 112 280 l 543 711 l 630 628 l 198 195 z m 112 627 l 197 713 l 629 281 l 544 195 l 112 627 z "},"Ø":{"ha":1021,"x_min":71,"x_max":949,"o":"m 949 896 l 147 -48 l 71 17 l 873 960 l 949 896 z m 511 -12 l 511 -12 q 269 46 367 -12 q 121 210 171 105 q 71 456 71 315 l 71 456 q 121 702 71 596 q 269 866 171 807 q 511 925 367 925 l 511 925 q 751 866 654 925 q 899 702 848 807 q 949 456 949 596 l 949 456 q 899 210 949 315 q 751 46 848 105 q 511 -12 654 -12 z m 511 115 l 511 115 q 672 161 611 115 q 762 284 734 207 q 790 456 790 362 l 790 456 q 762 628 790 551 q 672 752 734 705 q 511 798 611 798 l 511 798 q 348 752 410 798 q 257 628 286 705 q 229 456 229 551 l 229 456 q 257 284 229 362 q 348 161 286 207 q 511 115 410 115 z "},"Ù":{"ha":956,"x_min":103,"x_max":854,"o":"m 478 -12 l 478 -12 q 263 32 347 -12 q 142 158 180 76 q 103 351 103 239 l 103 351 l 103 913 l 262 913 l 262 361 q 316 176 262 233 q 479 118 370 118 l 479 118 q 641 176 587 118 q 694 361 694 233 l 694 361 l 694 913 l 854 913 l 854 351 q 815 158 854 239 q 693 32 776 76 q 478 -12 610 -12 z m 551 989 l 440 989 l 260 1174 l 421 1174 l 551 989 z "},"Ú":{"ha":956,"x_min":103,"x_max":854,"o":"m 478 -12 l 478 -12 q 263 32 347 -12 q 142 158 180 76 q 103 351 103 239 l 103 351 l 103 913 l 262 913 l 262 361 q 316 176 262 233 q 479 118 370 118 l 479 118 q 641 176 587 118 q 694 361 694 233 l 694 361 l 694 913 l 854 913 l 854 351 q 815 158 854 239 q 693 32 776 76 q 478 -12 610 -12 z m 517 989 l 407 989 l 536 1174 l 698 1174 l 517 989 z "},"Û":{"ha":956,"x_min":103,"x_max":854,"o":"m 478 -12 l 478 -12 q 263 32 347 -12 q 142 158 180 76 q 103 351 103 239 l 103 351 l 103 913 l 262 913 l 262 361 q 316 176 262 233 q 479 118 370 118 l 479 118 q 641 176 587 118 q 694 361 694 233 l 694 361 l 694 913 l 854 913 l 854 351 q 815 158 854 239 q 693 32 776 76 q 478 -12 610 -12 z m 378 989 l 264 989 l 410 1175 l 548 1175 l 692 989 l 578 989 l 479 1097 l 378 989 z "},"Ü":{"ha":956,"x_min":103,"x_max":854,"o":"m 478 -12 l 478 -12 q 263 32 347 -12 q 142 158 180 76 q 103 351 103 239 l 103 351 l 103 913 l 262 913 l 262 361 q 316 176 262 233 q 479 118 370 118 l 479 118 q 641 176 587 118 q 694 361 694 233 l 694 361 l 694 913 l 854 913 l 854 351 q 815 158 854 239 q 693 32 776 76 q 478 -12 610 -12 z m 604 1008 l 604 1008 q 552 1027 573 1008 q 531 1078 531 1047 l 531 1078 q 552 1129 531 1109 q 604 1149 573 1149 l 604 1149 q 655 1129 635 1149 q 676 1078 676 1109 l 676 1078 q 655 1027 676 1047 q 604 1008 635 1008 z m 355 1008 l 355 1008 q 302 1027 323 1008 q 281 1078 281 1047 l 281 1078 q 302 1129 281 1109 q 355 1149 323 1149 l 355 1149 q 406 1129 385 1149 q 427 1078 427 1109 l 427 1078 q 406 1027 427 1047 q 355 1008 385 1008 z "},"Ý":{"ha":781,"x_min":0,"x_max":781,"o":"m 470 0 l 311 0 l 311 352 l 0 913 l 173 913 l 391 494 l 608 913 l 781 913 l 470 352 l 470 0 z m 430 989 l 319 989 l 448 1174 l 610 1174 l 430 989 z "},"Þ":{"ha":821,"x_min":115,"x_max":771,"o":"m 458 171 l 115 171 l 115 298 l 445 298 q 565 337 519 298 q 612 454 612 376 l 612 454 q 565 574 612 535 q 445 614 518 614 l 445 614 l 115 614 l 115 741 l 458 741 q 617 709 546 741 q 729 613 688 677 q 771 454 771 550 l 771 454 q 729 297 771 359 q 617 202 688 234 q 458 171 546 171 l 458 171 z m 271 0 l 115 0 l 115 913 l 271 913 l 271 0 z "},"ß":{"ha":766,"x_min":96,"x_max":712,"o":"m 411 -8 l 411 -8 q 363 -6 385 -8 q 319 0 340 -4 l 319 0 l 319 115 q 356 108 338 110 q 391 106 374 106 l 391 106 q 521 147 477 106 q 565 261 565 189 l 565 261 q 508 386 565 349 q 362 423 452 423 l 362 423 l 319 423 l 319 529 l 363 529 q 477 566 432 529 q 523 677 523 604 l 523 677 q 489 775 523 741 q 391 810 454 810 l 391 810 q 283 766 324 810 q 241 623 241 722 l 241 623 l 241 0 l 96 0 l 96 620 q 133 791 96 724 q 237 892 170 859 q 391 925 303 925 l 391 925 q 534 897 473 925 q 628 818 595 869 q 662 692 662 766 l 662 692 q 635 579 662 629 q 554 500 608 530 q 418 458 500 469 l 418 458 l 363 529 q 556 496 478 529 q 673 402 633 463 q 712 259 712 342 l 712 259 q 673 110 712 169 q 565 21 633 50 q 411 -8 497 -8 z "},"à":{"ha":752,"x_min":67,"x_max":656,"o":"m 278 -12 l 278 -12 q 173 10 221 -12 q 96 74 125 31 q 67 182 67 117 l 67 182 q 122 318 67 272 q 278 381 178 364 q 512 400 378 398 l 512 400 l 512 441 q 475 543 512 515 q 382 570 439 570 l 382 570 q 281 541 321 570 q 240 445 240 511 l 240 445 l 101 445 q 137 577 101 528 q 236 650 172 627 q 382 672 299 672 l 382 672 q 488 662 439 672 q 575 626 538 652 q 634 556 613 601 q 656 443 656 512 l 656 443 l 656 0 l 519 0 l 513 93 q 412 16 470 44 q 278 -12 354 -12 z m 322 93 l 322 93 q 431 122 382 93 q 511 193 479 151 l 511 193 l 511 313 q 281 283 349 313 q 214 189 214 254 l 214 189 q 242 118 214 143 q 322 93 271 93 z m 465 751 l 355 751 l 168 937 l 330 937 l 465 751 z "},"á":{"ha":752,"x_min":67,"x_max":656,"o":"m 278 -12 l 278 -12 q 173 10 221 -12 q 96 74 125 31 q 67 182 67 117 l 67 182 q 122 318 67 272 q 278 381 178 364 q 512 400 378 398 l 512 400 l 512 441 q 475 543 512 515 q 382 570 439 570 l 382 570 q 281 541 321 570 q 240 445 240 511 l 240 445 l 101 445 q 137 577 101 528 q 236 650 172 627 q 382 672 299 672 l 382 672 q 488 662 439 672 q 575 626 538 652 q 634 556 613 601 q 656 443 656 512 l 656 443 l 656 0 l 519 0 l 513 93 q 412 16 470 44 q 278 -12 354 -12 z m 322 93 l 322 93 q 431 122 382 93 q 511 193 479 151 l 511 193 l 511 313 q 281 283 349 313 q 214 189 214 254 l 214 189 q 242 118 214 143 q 322 93 271 93 z m 418 751 l 308 751 l 444 937 l 606 937 l 418 751 z "},"â":{"ha":752,"x_min":67,"x_max":656,"o":"m 278 -12 l 278 -12 q 173 10 221 -12 q 96 74 125 31 q 67 182 67 117 l 67 182 q 122 318 67 272 q 278 381 178 364 q 512 400 378 398 l 512 400 l 512 441 q 475 543 512 515 q 382 570 439 570 l 382 570 q 281 541 321 570 q 240 445 240 511 l 240 445 l 101 445 q 137 577 101 528 q 236 650 172 627 q 382 672 299 672 l 382 672 q 488 662 439 672 q 575 626 538 652 q 634 556 613 601 q 656 443 656 512 l 656 443 l 656 0 l 519 0 l 513 93 q 412 16 470 44 q 278 -12 354 -12 z m 322 93 l 322 93 q 431 122 382 93 q 511 193 479 151 l 511 193 l 511 313 q 281 283 349 313 q 214 189 214 254 l 214 189 q 242 118 214 143 q 322 93 271 93 z m 289 751 l 175 751 l 319 937 l 458 937 l 603 751 l 488 751 l 389 860 l 289 751 z "},"ã":{"ha":752,"x_min":67,"x_max":656,"o":"m 278 -12 l 278 -12 q 173 10 221 -12 q 96 74 125 31 q 67 182 67 117 l 67 182 q 122 318 67 272 q 278 381 178 364 q 512 400 378 398 l 512 400 l 512 441 q 475 543 512 515 q 382 570 439 570 l 382 570 q 281 541 321 570 q 240 445 240 511 l 240 445 l 101 445 q 137 577 101 528 q 236 650 172 627 q 382 672 299 672 l 382 672 q 488 662 439 672 q 575 626 538 652 q 634 556 613 601 q 656 443 656 512 l 656 443 l 656 0 l 519 0 l 513 93 q 412 16 470 44 q 278 -12 354 -12 z m 322 93 l 322 93 q 431 122 382 93 q 511 193 479 151 l 511 193 l 511 313 q 281 283 349 313 q 214 189 214 254 l 214 189 q 242 118 214 143 q 322 93 271 93 z m 260 764 l 179 764 q 215 873 186 834 q 299 912 245 912 l 299 912 q 356 903 329 912 q 409 882 384 893 l 409 882 q 449 867 431 873 q 481 861 467 861 l 481 861 q 505 873 496 861 q 517 914 514 886 l 517 914 l 597 914 q 564 809 590 846 q 485 772 538 772 l 485 772 q 426 781 454 772 q 375 800 399 790 l 375 800 q 334 816 351 810 q 300 823 316 823 l 300 823 q 273 809 283 823 q 260 764 263 795 l 260 764 z "},"ä":{"ha":752,"x_min":67,"x_max":656,"o":"m 278 -12 l 278 -12 q 173 10 221 -12 q 96 74 125 31 q 67 182 67 117 l 67 182 q 122 318 67 272 q 278 381 178 364 q 512 400 378 398 l 512 400 l 512 441 q 475 543 512 515 q 382 570 439 570 l 382 570 q 281 541 321 570 q 240 445 240 511 l 240 445 l 101 445 q 137 577 101 528 q 236 650 172 627 q 382 672 299 672 l 382 672 q 488 662 439 672 q 575 626 538 652 q 634 556 613 601 q 656 443 656 512 l 656 443 l 656 0 l 519 0 l 513 93 q 412 16 470 44 q 278 -12 354 -12 z m 322 93 l 322 93 q 431 122 382 93 q 511 193 479 151 l 511 193 l 511 313 q 281 283 349 313 q 214 189 214 254 l 214 189 q 242 118 214 143 q 322 93 271 93 z m 513 773 l 513 773 q 461 793 482 773 q 440 843 440 812 l 440 843 q 461 894 440 874 q 513 913 482 913 l 513 913 q 565 894 544 913 q 585 843 585 874 l 585 843 q 565 793 585 812 q 513 773 544 773 z m 264 773 l 264 773 q 212 793 233 773 q 191 843 191 812 l 191 843 q 212 894 191 874 q 264 913 233 913 l 264 913 q 315 894 294 913 q 336 843 336 874 l 336 843 q 315 793 336 812 q 264 773 294 773 z "},"å":{"ha":752,"x_min":67,"x_max":656,"o":"m 278 -12 l 278 -12 q 173 10 221 -12 q 96 74 125 31 q 67 182 67 117 l 67 182 q 122 318 67 272 q 278 381 178 364 q 512 400 378 398 l 512 400 l 512 441 q 475 543 512 515 q 382 570 439 570 l 382 570 q 281 541 321 570 q 240 445 240 511 l 240 445 l 101 445 q 137 577 101 528 q 236 650 172 627 q 382 672 299 672 l 382 672 q 488 662 439 672 q 575 626 538 652 q 634 556 613 601 q 656 443 656 512 l 656 443 l 656 0 l 519 0 l 513 93 q 412 16 470 44 q 278 -12 354 -12 z m 322 93 l 322 93 q 431 122 382 93 q 511 193 479 151 l 511 193 l 511 313 q 281 283 349 313 q 214 189 214 254 l 214 189 q 242 118 214 143 q 322 93 271 93 z m 388 732 l 388 732 q 285 769 326 732 q 245 869 245 807 l 245 869 q 285 968 245 930 q 388 1006 326 1006 l 388 1006 q 491 968 450 1006 q 531 869 531 930 l 531 869 q 491 769 531 807 q 388 732 450 732 z m 388 802 l 388 802 q 435 821 417 802 q 453 869 453 840 l 453 869 q 435 917 453 899 q 388 936 417 936 l 388 936 q 341 917 359 936 q 323 869 323 899 l 323 869 q 341 821 323 840 q 388 802 359 802 z "},"æ":{"ha":1192,"x_min":67,"x_max":1124,"o":"m 832 -12 l 832 -12 q 651 31 723 -12 q 543 152 578 74 q 507 332 507 229 l 507 332 q 542 511 507 435 q 646 630 576 587 q 821 672 716 672 l 821 672 q 1043 588 962 672 q 1124 348 1124 504 l 1124 348 q 1123 325 1124 338 q 1121 304 1122 311 l 1121 304 l 654 304 q 672 201 654 248 q 729 125 690 154 q 832 97 768 97 l 832 97 q 938 127 899 97 q 979 216 977 157 l 979 216 l 1123 216 q 1084 92 1120 143 q 983 14 1047 41 q 832 -12 919 -12 z m 299 -12 l 299 -12 q 129 39 191 -12 q 67 180 67 90 l 67 180 q 121 316 67 270 q 274 379 175 362 q 507 398 373 397 l 507 398 l 507 444 q 490 519 507 492 q 445 557 473 546 q 383 569 417 569 l 383 569 q 281 540 322 569 q 240 446 240 511 l 240 446 l 101 446 q 176 617 101 563 q 382 672 251 672 l 382 672 q 491 657 442 672 q 572 610 539 643 q 614 522 604 577 l 614 522 l 545 313 q 349 302 422 314 q 245 263 277 290 q 214 193 214 236 l 214 193 q 242 120 214 146 q 323 93 270 93 l 323 93 q 405 109 366 93 q 478 157 444 125 q 537 237 513 189 l 537 237 l 596 184 q 533 83 576 127 q 431 13 491 39 q 299 -12 372 -12 z m 655 403 l 655 403 l 979 403 q 934 525 977 483 q 821 566 891 566 l 821 566 q 704 524 747 566 q 655 403 661 482 z "},"ç":{"ha":746,"x_min":67,"x_max":679,"o":"m 386 -10 l 386 -10 q 222 26 294 -10 q 109 138 151 62 q 67 328 67 213 l 67 328 q 107 520 67 444 q 219 634 148 597 q 386 672 291 672 l 386 672 q 530 646 466 672 q 633 566 595 619 q 673 433 671 513 l 673 433 l 530 433 q 490 524 527 490 q 387 557 452 557 l 387 557 q 258 497 300 557 q 217 328 217 437 l 217 328 q 235 208 217 258 q 291 131 254 157 q 387 104 329 104 l 387 104 q 494 140 454 104 q 536 241 534 175 l 536 241 l 679 241 q 638 102 677 159 q 534 18 600 46 q 386 -10 469 -10 z m 376 -258 l 376 -258 q 302 -251 333 -258 q 243 -233 271 -244 l 243 -233 l 264 -163 q 314 -178 286 -172 q 370 -184 342 -184 l 370 -184 q 411 -173 395 -184 q 427 -141 427 -161 l 427 -141 q 407 -109 427 -120 q 331 -91 386 -98 l 331 -91 l 301 -87 l 393 32 l 454 7 l 410 -50 l 383 -37 q 485 -66 447 -39 q 523 -143 523 -92 l 523 -143 q 503 -208 523 -182 q 450 -245 484 -233 q 376 -258 417 -258 z "},"è":{"ha":752,"x_min":67,"x_max":684,"o":"m 392 -12 l 392 -12 q 211 31 283 -12 q 103 152 139 74 q 67 332 67 229 l 67 332 q 102 511 67 435 q 207 630 137 587 q 380 672 276 672 l 380 672 q 603 588 522 672 q 684 348 684 504 l 684 348 q 683 325 684 338 q 681 304 682 311 l 681 304 l 214 304 q 232 201 214 248 q 290 125 250 154 q 392 97 329 97 l 392 97 q 498 127 460 97 q 539 216 537 157 l 539 216 l 684 216 q 644 92 680 143 q 544 14 608 41 q 392 -12 479 -12 z m 215 403 l 215 403 l 538 403 q 494 525 536 483 q 380 566 452 566 l 380 566 q 264 524 307 566 q 215 403 221 482 z m 458 751 l 349 751 l 161 937 l 323 937 l 458 751 z "},"é":{"ha":752,"x_min":67,"x_max":684,"o":"m 392 -12 l 392 -12 q 211 31 283 -12 q 103 152 139 74 q 67 332 67 229 l 67 332 q 102 511 67 435 q 207 630 137 587 q 380 672 276 672 l 380 672 q 603 588 522 672 q 684 348 684 504 l 684 348 q 683 325 684 338 q 681 304 682 311 l 681 304 l 214 304 q 232 201 214 248 q 290 125 250 154 q 392 97 329 97 l 392 97 q 498 127 460 97 q 539 216 537 157 l 539 216 l 684 216 q 644 92 680 143 q 544 14 608 41 q 392 -12 479 -12 z m 215 403 l 215 403 l 538 403 q 494 525 536 483 q 380 566 452 566 l 380 566 q 264 524 307 566 q 215 403 221 482 z m 412 751 l 301 751 l 437 937 l 600 937 l 412 751 z "},"ê":{"ha":752,"x_min":67,"x_max":684,"o":"m 392 -12 l 392 -12 q 211 31 283 -12 q 103 152 139 74 q 67 332 67 229 l 67 332 q 102 511 67 435 q 207 630 137 587 q 380 672 276 672 l 380 672 q 603 588 522 672 q 684 348 684 504 l 684 348 q 683 325 684 338 q 681 304 682 311 l 681 304 l 214 304 q 232 201 214 248 q 290 125 250 154 q 392 97 329 97 l 392 97 q 498 127 460 97 q 539 216 537 157 l 539 216 l 684 216 q 644 92 680 143 q 544 14 608 41 q 392 -12 479 -12 z m 215 403 l 215 403 l 538 403 q 494 525 536 483 q 380 566 452 566 l 380 566 q 264 524 307 566 q 215 403 221 482 z m 282 751 l 168 751 l 313 937 l 451 937 l 596 751 l 481 751 l 382 860 l 282 751 z "},"ë":{"ha":752,"x_min":67,"x_max":684,"o":"m 392 -12 l 392 -12 q 211 31 283 -12 q 103 152 139 74 q 67 332 67 229 l 67 332 q 102 511 67 435 q 207 630 137 587 q 380 672 276 672 l 380 672 q 603 588 522 672 q 684 348 684 504 l 684 348 q 683 325 684 338 q 681 304 682 311 l 681 304 l 214 304 q 232 201 214 248 q 290 125 250 154 q 392 97 329 97 l 392 97 q 498 127 460 97 q 539 216 537 157 l 539 216 l 684 216 q 644 92 680 143 q 544 14 608 41 q 392 -12 479 -12 z m 215 403 l 215 403 l 538 403 q 494 525 536 483 q 380 566 452 566 l 380 566 q 264 524 307 566 q 215 403 221 482 z m 506 773 l 506 773 q 454 793 475 773 q 433 843 433 812 l 433 843 q 454 894 433 874 q 506 913 475 913 l 506 913 q 558 894 537 913 q 578 843 578 874 l 578 843 q 558 793 578 812 q 506 773 537 773 z m 257 773 l 257 773 q 205 793 226 773 q 184 843 184 812 l 184 843 q 205 894 184 874 q 257 913 226 913 l 257 913 q 308 894 287 913 q 329 843 329 874 l 329 843 q 308 793 329 812 q 257 773 287 773 z "},"ì":{"ha":352,"x_min":-44,"x_max":254,"o":"m 250 0 l 102 0 l 102 661 l 250 661 l 250 0 z m 254 751 l 144 751 l -43 937 l 118 937 l 254 751 z "},"í":{"ha":352,"x_min":96,"x_max":395,"o":"m 250 0 l 102 0 l 102 661 l 250 661 l 250 0 z m 207 751 l 96 751 l 232 937 l 395 937 l 207 751 z "},"î":{"ha":352,"x_min":-37,"x_max":391,"o":"m 250 0 l 102 0 l 102 661 l 250 661 l 250 0 z m 77 751 l -37 751 l 108 937 l 246 937 l 391 751 l 277 751 l 177 860 l 77 751 z "},"ï":{"ha":352,"x_min":-5,"x_max":357,"o":"m 250 0 l 102 0 l 102 661 l 250 661 l 250 0 z m 286 773 l 286 773 q 234 793 255 773 q 214 843 214 812 l 214 843 q 234 894 214 874 q 286 913 255 913 l 286 913 q 337 894 317 913 q 358 843 358 874 l 358 843 q 337 793 358 812 q 286 773 317 773 z m 68 773 l 68 773 q 16 793 37 773 q -5 843 -5 812 l -5 843 q 16 894 -5 874 q 68 913 37 913 l 68 913 q 119 894 98 913 q 140 843 140 874 l 140 843 q 119 793 140 812 q 68 773 98 773 z "},"ð":{"ha":781,"x_min":67,"x_max":714,"o":"m 389 -12 l 389 -12 q 217 28 290 -12 q 106 142 145 68 q 67 319 67 216 l 67 319 q 105 498 67 424 q 213 612 144 572 q 376 652 283 652 l 376 652 q 510 614 465 652 q 574 508 555 576 l 574 508 l 557 509 q 526 575 545 544 q 481 638 507 607 q 417 704 454 669 q 330 780 380 739 l 330 780 l 172 913 l 353 913 l 452 830 q 603 673 545 753 q 687 512 661 594 q 714 343 714 430 l 714 343 q 675 150 714 229 q 563 30 635 71 q 389 -12 490 -12 z m 388 102 l 388 102 q 492 132 454 102 q 547 211 530 161 q 564 319 564 260 l 564 319 q 547 429 564 379 q 492 508 530 478 q 388 538 454 538 l 388 538 q 288 508 325 538 q 234 429 250 478 q 217 319 217 379 l 217 319 q 234 211 217 260 q 288 132 250 161 q 388 102 325 102 z m 382 751 l 165 679 l 165 777 l 382 849 l 382 846 l 600 918 l 600 821 l 382 749 l 382 751 z "},"ñ":{"ha":785,"x_min":102,"x_max":688,"o":"m 250 0 l 102 0 l 102 661 l 243 661 l 247 561 q 335 636 279 602 q 478 671 391 671 l 478 671 q 636 608 583 671 q 688 429 688 545 l 688 429 l 688 0 l 542 0 l 542 409 q 532 483 542 451 q 497 533 522 515 q 431 551 473 551 l 431 551 q 323 522 368 551 q 250 455 279 492 l 250 455 l 250 0 z m 273 764 l 192 764 q 228 873 199 834 q 312 912 258 912 l 312 912 q 369 903 342 912 q 422 882 397 893 l 422 882 q 461 867 444 873 q 494 861 479 861 l 494 861 q 518 873 509 861 q 530 914 527 886 l 530 914 l 610 914 q 577 809 603 846 q 498 772 551 772 l 498 772 q 439 781 467 772 q 388 800 412 790 l 388 800 q 347 816 364 810 q 313 823 329 823 l 313 823 q 286 809 296 823 q 273 764 276 795 l 273 764 z "},"ò":{"ha":781,"x_min":67,"x_max":714,"o":"m 388 -11 l 388 -11 q 217 30 290 -11 q 106 146 145 70 q 67 329 67 222 l 67 329 q 106 515 67 437 q 217 633 145 592 q 388 673 290 673 l 388 673 q 562 633 489 673 q 674 515 635 592 q 714 329 714 437 l 714 329 q 674 146 714 222 q 562 30 635 70 q 388 -11 489 -11 z m 388 103 l 388 103 q 493 133 454 103 q 548 214 532 163 q 564 329 564 265 l 564 329 q 548 446 564 394 q 493 529 532 498 q 388 559 454 559 l 388 559 q 287 529 324 559 q 233 446 250 498 q 217 329 217 394 l 217 329 q 233 214 217 265 q 287 133 250 163 q 388 103 324 103 z m 468 751 l 358 751 l 171 937 l 332 937 l 468 751 z "},"ó":{"ha":781,"x_min":67,"x_max":714,"o":"m 388 -11 l 388 -11 q 217 30 290 -11 q 106 146 145 70 q 67 329 67 222 l 67 329 q 106 515 67 437 q 217 633 145 592 q 388 673 290 673 l 388 673 q 562 633 489 673 q 674 515 635 592 q 714 329 714 437 l 714 329 q 674 146 714 222 q 562 30 635 70 q 388 -11 489 -11 z m 388 103 l 388 103 q 493 133 454 103 q 548 214 532 163 q 564 329 564 265 l 564 329 q 548 446 564 394 q 493 529 532 498 q 388 559 454 559 l 388 559 q 287 529 324 559 q 233 446 250 498 q 217 329 217 394 l 217 329 q 233 214 217 265 q 287 133 250 163 q 388 103 324 103 z m 421 751 l 311 751 l 446 937 l 609 937 l 421 751 z "},"ô":{"ha":781,"x_min":67,"x_max":714,"o":"m 388 -11 l 388 -11 q 217 30 290 -11 q 106 146 145 70 q 67 329 67 222 l 67 329 q 106 515 67 437 q 217 633 145 592 q 388 673 290 673 l 388 673 q 562 633 489 673 q 674 515 635 592 q 714 329 714 437 l 714 329 q 674 146 714 222 q 562 30 635 70 q 388 -11 489 -11 z m 388 103 l 388 103 q 493 133 454 103 q 548 214 532 163 q 564 329 564 265 l 564 329 q 548 446 564 394 q 493 529 532 498 q 388 559 454 559 l 388 559 q 287 529 324 559 q 233 446 250 498 q 217 329 217 394 l 217 329 q 233 214 217 265 q 287 133 250 163 q 388 103 324 103 z m 292 751 l 178 751 l 322 937 l 460 937 l 606 751 l 491 751 l 391 860 l 292 751 z "},"õ":{"ha":781,"x_min":67,"x_max":714,"o":"m 388 -11 l 388 -11 q 217 30 290 -11 q 106 146 145 70 q 67 329 67 222 l 67 329 q 106 515 67 437 q 217 633 145 592 q 388 673 290 673 l 388 673 q 562 633 489 673 q 674 515 635 592 q 714 329 714 437 l 714 329 q 674 146 714 222 q 562 30 635 70 q 388 -11 489 -11 z m 388 103 l 388 103 q 493 133 454 103 q 548 214 532 163 q 564 329 564 265 l 564 329 q 548 446 564 394 q 493 529 532 498 q 388 559 454 559 l 388 559 q 287 529 324 559 q 233 446 250 498 q 217 329 217 394 l 217 329 q 233 214 217 265 q 287 133 250 163 q 388 103 324 103 z m 262 764 l 182 764 q 218 873 189 834 q 302 912 248 912 l 302 912 q 359 903 332 912 q 412 882 387 893 l 412 882 q 451 867 433 873 q 484 861 469 861 l 484 861 q 508 873 499 861 q 519 914 517 886 l 519 914 l 600 914 q 567 809 593 846 q 488 772 541 772 l 488 772 q 429 781 456 772 q 378 800 401 790 l 378 800 q 336 816 354 810 q 303 823 319 823 l 303 823 q 276 809 286 823 q 262 764 266 795 l 262 764 z "},"ö":{"ha":781,"x_min":67,"x_max":714,"o":"m 388 -11 l 388 -11 q 217 30 290 -11 q 106 146 145 70 q 67 329 67 222 l 67 329 q 106 515 67 437 q 217 633 145 592 q 388 673 290 673 l 388 673 q 562 633 489 673 q 674 515 635 592 q 714 329 714 437 l 714 329 q 674 146 714 222 q 562 30 635 70 q 388 -11 489 -11 z m 388 103 l 388 103 q 493 133 454 103 q 548 214 532 163 q 564 329 564 265 l 564 329 q 548 446 564 394 q 493 529 532 498 q 388 559 454 559 l 388 559 q 287 529 324 559 q 233 446 250 498 q 217 329 217 394 l 217 329 q 233 214 217 265 q 287 133 250 163 q 388 103 324 103 z m 515 773 l 515 773 q 464 793 485 773 q 443 843 443 812 l 443 843 q 464 894 443 874 q 515 913 485 913 l 515 913 q 567 894 547 913 q 588 843 588 874 l 588 843 q 567 793 588 812 q 515 773 547 773 z m 267 773 l 267 773 q 214 793 235 773 q 193 843 193 812 l 193 843 q 214 894 193 874 q 267 913 235 913 l 267 913 q 317 894 296 913 q 338 843 338 874 l 338 843 q 317 793 338 812 q 267 773 296 773 z "},"÷":{"ha":742,"x_min":65,"x_max":676,"o":"m 65 393 l 65 514 l 676 514 l 676 393 l 65 393 z m 372 127 l 372 127 q 303 155 330 127 q 276 220 276 182 l 276 220 q 303 287 276 261 q 372 312 330 312 l 372 312 q 439 287 413 312 q 466 220 466 261 l 466 220 q 439 155 466 182 q 372 127 413 127 z m 372 595 l 372 595 q 303 622 330 595 q 276 687 276 649 l 276 687 q 303 754 276 728 q 372 780 330 780 l 372 780 q 439 754 413 780 q 466 687 466 728 l 466 687 q 439 622 466 649 q 372 595 413 595 z "},"ø":{"ha":781,"x_min":60,"x_max":722,"o":"m 722 657 l 123 -56 l 60 0 l 659 712 l 722 657 z m 388 -12 l 388 -12 q 217 29 290 -12 q 106 145 145 69 q 67 328 67 222 l 67 328 q 106 513 67 436 q 217 631 145 590 q 388 671 290 671 l 388 671 q 562 631 489 671 q 674 513 635 590 q 714 328 714 436 l 714 328 q 674 145 714 222 q 562 29 635 69 q 388 -12 489 -12 z m 388 98 l 388 98 q 494 128 454 98 q 551 211 534 159 q 568 328 568 264 l 568 328 q 551 447 568 394 q 494 531 534 500 q 388 562 454 562 l 388 562 q 285 531 323 562 q 230 447 247 500 q 213 328 213 394 l 213 328 q 230 211 213 264 q 285 128 247 159 q 388 98 323 98 z "},"ù":{"ha":791,"x_min":96,"x_max":689,"o":"m 310 -9 l 310 -9 q 149 54 202 -9 q 96 230 96 117 l 96 230 l 96 661 l 243 661 l 243 248 q 253 178 243 209 q 289 131 263 148 q 360 113 315 113 l 360 113 q 468 141 424 113 q 543 206 513 168 l 543 206 l 543 661 l 689 661 l 689 0 l 547 0 l 545 101 q 454 25 512 60 q 310 -9 397 -9 z m 470 751 l 360 751 l 173 937 l 334 937 l 470 751 z "},"ú":{"ha":791,"x_min":96,"x_max":689,"o":"m 310 -9 l 310 -9 q 149 54 202 -9 q 96 230 96 117 l 96 230 l 96 661 l 243 661 l 243 248 q 253 178 243 209 q 289 131 263 148 q 360 113 315 113 l 360 113 q 468 141 424 113 q 543 206 513 168 l 543 206 l 543 661 l 689 661 l 689 0 l 547 0 l 545 101 q 454 25 512 60 q 310 -9 397 -9 z m 423 751 l 313 751 l 448 937 l 611 937 l 423 751 z "},"û":{"ha":791,"x_min":96,"x_max":689,"o":"m 310 -9 l 310 -9 q 149 54 202 -9 q 96 230 96 117 l 96 230 l 96 661 l 243 661 l 243 248 q 253 178 243 209 q 289 131 263 148 q 360 113 315 113 l 360 113 q 468 141 424 113 q 543 206 513 168 l 543 206 l 543 661 l 689 661 l 689 0 l 547 0 l 545 101 q 454 25 512 60 q 310 -9 397 -9 z m 294 751 l 180 751 l 324 937 l 463 937 l 608 751 l 493 751 l 393 860 l 294 751 z "},"ü":{"ha":791,"x_min":96,"x_max":689,"o":"m 310 -9 l 310 -9 q 149 54 202 -9 q 96 230 96 117 l 96 230 l 96 661 l 243 661 l 243 248 q 253 178 243 209 q 289 131 263 148 q 360 113 315 113 l 360 113 q 468 141 424 113 q 543 206 513 168 l 543 206 l 543 661 l 689 661 l 689 0 l 547 0 l 545 101 q 454 25 512 60 q 310 -9 397 -9 z m 517 773 l 517 773 q 466 793 487 773 q 445 843 445 812 l 445 843 q 466 894 445 874 q 517 913 487 913 l 517 913 q 569 894 549 913 q 590 843 590 874 l 590 843 q 569 793 590 812 q 517 773 549 773 z m 269 773 l 269 773 q 216 793 237 773 q 195 843 195 812 l 195 843 q 216 894 195 874 q 269 913 237 913 l 269 913 q 319 894 298 913 q 340 843 340 874 l 340 843 q 319 793 340 812 q 269 773 298 773 z "},"ý":{"ha":656,"x_min":0,"x_max":656,"o":"m 149 -243 l 74 -243 l 74 -123 l 132 -123 q 198 -105 172 -123 q 241 -48 224 -88 l 241 -48 l 260 0 l 0 661 l 153 661 l 339 146 l 508 661 l 656 661 l 414 0 l 386 -73 q 332 -175 361 -138 q 258 -227 302 -212 q 149 -243 214 -243 l 149 -243 z m 361 751 l 251 751 l 387 937 l 549 937 l 361 751 z "},"þ":{"ha":797,"x_min":102,"x_max":730,"o":"m 249 -243 l 102 -243 l 102 913 l 250 913 l 250 557 q 339 641 286 610 q 465 671 393 671 l 465 671 q 607 632 548 671 q 698 517 667 594 q 730 323 730 439 l 730 323 q 695 137 730 211 q 598 25 661 62 q 452 -12 536 -12 l 452 -12 q 334 15 384 -12 q 249 92 284 41 l 249 92 l 249 -243 z m 418 103 l 418 103 q 538 160 496 103 q 579 324 579 217 l 579 324 q 540 498 579 439 q 426 557 500 557 l 426 557 q 316 520 360 557 q 250 437 273 484 l 250 437 l 250 214 q 315 135 273 166 q 418 103 357 103 z "},"ÿ":{"ha":656,"x_min":0,"x_max":656,"o":"m 149 -243 l 74 -243 l 74 -123 l 132 -123 q 198 -105 172 -123 q 241 -48 224 -88 l 241 -48 l 260 0 l 0 661 l 153 661 l 339 146 l 508 661 l 656 661 l 414 0 l 386 -73 q 332 -175 361 -138 q 258 -227 302 -212 q 149 -243 214 -243 l 149 -243 z m 456 773 l 456 773 q 404 793 425 773 q 383 843 383 812 l 383 843 q 404 894 383 874 q 456 913 425 913 l 456 913 q 508 894 487 913 q 528 843 528 874 l 528 843 q 508 793 528 812 q 456 773 487 773 z m 207 773 l 207 773 q 155 793 176 773 q 134 843 134 812 l 134 843 q 155 894 134 874 q 207 913 176 913 l 207 913 q 258 894 237 913 q 279 843 279 874 l 279 843 q 258 793 279 812 q 207 773 237 773 z "},"Ā":{"ha":840,"x_min":3,"x_max":836,"o":"m 165 0 l 3 0 l 339 913 l 503 913 l 836 0 l 674 0 l 598 228 l 244 228 l 165 0 z m 420 758 l 283 359 l 557 359 l 420 758 z m 608 1024 l 231 1024 l 231 1120 l 608 1120 l 608 1024 z "},"ā":{"ha":752,"x_min":67,"x_max":656,"o":"m 278 -12 l 278 -12 q 173 10 221 -12 q 96 74 125 31 q 67 182 67 117 l 67 182 q 122 318 67 272 q 278 381 178 364 q 512 400 378 398 l 512 400 l 512 441 q 475 543 512 515 q 382 570 439 570 l 382 570 q 281 541 321 570 q 240 445 240 511 l 240 445 l 101 445 q 137 577 101 528 q 236 650 172 627 q 382 672 299 672 l 382 672 q 488 662 439 672 q 575 626 538 652 q 634 556 613 601 q 656 443 656 512 l 656 443 l 656 0 l 519 0 l 513 93 q 412 16 470 44 q 278 -12 354 -12 z m 322 93 l 322 93 q 431 122 382 93 q 511 193 479 151 l 511 193 l 511 313 q 281 283 349 313 q 214 189 214 254 l 214 189 q 242 118 214 143 q 322 93 271 93 z m 576 789 l 200 789 l 200 886 l 576 886 l 576 789 z "},"Ă":{"ha":840,"x_min":3,"x_max":836,"o":"m 165 0 l 3 0 l 339 913 l 503 913 l 836 0 l 674 0 l 598 228 l 244 228 l 165 0 z m 420 758 l 283 359 l 557 359 l 420 758 z m 418 996 l 418 996 q 316 1018 360 996 q 245 1079 271 1039 q 218 1174 220 1119 l 218 1174 l 301 1174 q 322 1118 304 1139 q 366 1087 340 1097 q 418 1078 391 1078 l 418 1078 q 470 1088 445 1078 q 514 1119 496 1097 q 537 1174 532 1140 l 537 1174 l 621 1174 q 591 1080 618 1120 q 520 1018 564 1040 q 418 996 476 996 z "},"ă":{"ha":752,"x_min":67,"x_max":656,"o":"m 278 -12 l 278 -12 q 173 10 221 -12 q 96 74 125 31 q 67 182 67 117 l 67 182 q 122 318 67 272 q 278 381 178 364 q 512 400 378 398 l 512 400 l 512 441 q 475 543 512 515 q 382 570 439 570 l 382 570 q 281 541 321 570 q 240 445 240 511 l 240 445 l 101 445 q 137 577 101 528 q 236 650 172 627 q 382 672 299 672 l 382 672 q 488 662 439 672 q 575 626 538 652 q 634 556 613 601 q 656 443 656 512 l 656 443 l 656 0 l 519 0 l 513 93 q 412 16 470 44 q 278 -12 354 -12 z m 322 93 l 322 93 q 431 122 382 93 q 511 193 479 151 l 511 193 l 511 313 q 281 283 349 313 q 214 189 214 254 l 214 189 q 242 118 214 143 q 322 93 271 93 z m 387 754 l 387 754 q 254 802 302 754 q 198 933 206 850 l 198 933 l 281 933 q 318 860 287 880 q 387 840 350 840 l 387 840 q 460 861 427 840 q 500 933 494 882 l 500 933 l 576 933 q 520 802 568 850 q 387 754 472 754 z "},"Ą":{"ha":840,"x_min":3,"x_max":836,"o":"m 165 0 l 3 0 l 339 913 l 503 913 l 836 0 l 674 0 l 598 228 l 244 228 l 165 0 z m 420 758 l 283 359 l 557 359 l 420 758 z m 718 -253 l 718 -253 q 624 -223 663 -253 q 586 -139 586 -193 l 586 -139 q 607 -71 586 -104 q 665 -12 628 -37 q 746 24 701 14 l 746 24 l 799 9 q 722 -56 745 -22 q 699 -115 699 -89 l 699 -115 q 711 -148 699 -136 q 745 -159 724 -159 l 745 -159 q 788 -154 767 -159 q 831 -138 808 -148 l 831 -138 l 831 -227 q 784 -246 810 -239 q 718 -253 759 -253 z "},"ą":{"ha":752,"x_min":67,"x_max":656,"o":"m 278 -12 l 278 -12 q 173 10 221 -12 q 96 74 125 31 q 67 182 67 117 l 67 182 q 122 318 67 272 q 278 381 178 364 q 512 400 378 398 l 512 400 l 512 441 q 475 543 512 515 q 382 570 439 570 l 382 570 q 281 541 321 570 q 240 445 240 511 l 240 445 l 101 445 q 137 577 101 528 q 236 650 172 627 q 382 672 299 672 l 382 672 q 488 662 439 672 q 575 626 538 652 q 634 556 613 601 q 656 443 656 512 l 656 443 l 656 0 l 519 0 l 513 93 q 412 16 470 44 q 278 -12 354 -12 z m 322 93 l 322 93 q 431 122 382 93 q 511 193 479 151 l 511 193 l 511 313 q 281 283 349 313 q 214 189 214 254 l 214 189 q 242 118 214 143 q 322 93 271 93 z m 531 -253 l 531 -253 q 437 -223 475 -253 q 399 -139 399 -193 l 399 -139 q 420 -71 399 -104 q 477 -12 441 -37 q 559 24 514 14 l 559 24 l 612 9 q 535 -56 557 -22 q 512 -115 512 -89 l 512 -115 q 524 -148 512 -136 q 558 -159 536 -159 l 558 -159 q 601 -154 580 -159 q 644 -138 621 -148 l 644 -138 l 644 -227 q 597 -246 623 -239 q 531 -253 572 -253 z "},"Ć":{"ha":971,"x_min":71,"x_max":905,"o":"m 511 -12 l 511 -12 q 272 46 370 -12 q 122 210 174 105 q 71 456 71 315 l 71 456 q 122 702 71 596 q 272 866 174 807 q 511 925 370 925 l 511 925 q 697 890 610 925 q 840 786 784 856 q 903 612 895 717 l 903 612 l 744 612 q 703 715 736 675 q 620 775 670 755 q 511 795 570 795 l 511 795 q 349 749 411 795 q 260 626 288 703 q 232 456 232 549 l 232 456 q 260 287 232 363 q 349 163 288 210 q 511 117 411 117 l 511 117 q 675 169 613 117 q 746 320 737 221 l 746 320 l 905 320 q 844 137 896 211 q 707 25 793 62 q 511 -12 622 -12 z m 551 989 l 440 989 l 569 1174 l 731 1174 l 551 989 z "},"ć":{"ha":746,"x_min":67,"x_max":679,"o":"m 386 -10 l 386 -10 q 222 26 294 -10 q 109 138 151 62 q 67 328 67 213 l 67 328 q 107 520 67 444 q 219 634 148 597 q 386 672 291 672 l 386 672 q 530 646 466 672 q 633 566 595 619 q 673 433 671 513 l 673 433 l 530 433 q 490 524 527 490 q 387 557 452 557 l 387 557 q 258 497 300 557 q 217 328 217 437 l 217 328 q 235 208 217 258 q 291 131 254 157 q 387 104 329 104 l 387 104 q 494 140 454 104 q 536 241 534 175 l 536 241 l 679 241 q 638 102 677 159 q 534 18 600 46 q 386 -10 469 -10 z m 406 751 l 295 751 l 431 937 l 593 937 l 406 751 z "},"Ĉ":{"ha":971,"x_min":71,"x_max":905,"o":"m 511 -12 l 511 -12 q 272 46 370 -12 q 122 210 174 105 q 71 456 71 315 l 71 456 q 122 702 71 596 q 272 866 174 807 q 511 925 370 925 l 511 925 q 697 890 610 925 q 840 786 784 856 q 903 612 895 717 l 903 612 l 744 612 q 703 715 736 675 q 620 775 670 755 q 511 795 570 795 l 511 795 q 349 749 411 795 q 260 626 288 703 q 232 456 232 549 l 232 456 q 260 287 232 363 q 349 163 288 210 q 511 117 411 117 l 511 117 q 675 169 613 117 q 746 320 737 221 l 746 320 l 905 320 q 844 137 896 211 q 707 25 793 62 q 511 -12 622 -12 z m 412 989 l 298 989 l 443 1175 l 581 1175 l 726 989 l 611 989 l 512 1097 l 412 989 z "},"ĉ":{"ha":746,"x_min":67,"x_max":679,"o":"m 386 -10 l 386 -10 q 222 26 294 -10 q 109 138 151 62 q 67 328 67 213 l 67 328 q 107 520 67 444 q 219 634 148 597 q 386 672 291 672 l 386 672 q 530 646 466 672 q 633 566 595 619 q 673 433 671 513 l 673 433 l 530 433 q 490 524 527 490 q 387 557 452 557 l 387 557 q 258 497 300 557 q 217 328 217 437 l 217 328 q 235 208 217 258 q 291 131 254 157 q 387 104 329 104 l 387 104 q 494 140 454 104 q 536 241 534 175 l 536 241 l 679 241 q 638 102 677 159 q 534 18 600 46 q 386 -10 469 -10 z m 276 751 l 162 751 l 307 937 l 445 937 l 590 751 l 475 751 l 376 860 l 276 751 z "},"Ċ":{"ha":971,"x_min":71,"x_max":905,"o":"m 511 -12 l 511 -12 q 272 46 370 -12 q 122 210 174 105 q 71 456 71 315 l 71 456 q 122 702 71 596 q 272 866 174 807 q 511 925 370 925 l 511 925 q 697 890 610 925 q 840 786 784 856 q 903 612 895 717 l 903 612 l 744 612 q 703 715 736 675 q 620 775 670 755 q 511 795 570 795 l 511 795 q 349 749 411 795 q 260 626 288 703 q 232 456 232 549 l 232 456 q 260 287 232 363 q 349 163 288 210 q 511 117 411 117 l 511 117 q 675 169 613 117 q 746 320 737 221 l 746 320 l 905 320 q 844 137 896 211 q 707 25 793 62 q 511 -12 622 -12 z m 512 1002 l 512 1002 q 449 1023 471 1002 q 426 1078 426 1045 l 426 1078 q 449 1133 426 1112 q 512 1155 471 1155 l 512 1155 q 575 1133 553 1155 q 598 1078 598 1112 l 598 1078 q 575 1023 598 1045 q 512 1002 553 1002 z "},"ċ":{"ha":746,"x_min":67,"x_max":679,"o":"m 386 -10 l 386 -10 q 222 26 294 -10 q 109 138 151 62 q 67 328 67 213 l 67 328 q 107 520 67 444 q 219 634 148 597 q 386 672 291 672 l 386 672 q 530 646 466 672 q 633 566 595 619 q 673 433 671 513 l 673 433 l 530 433 q 490 524 527 490 q 387 557 452 557 l 387 557 q 258 497 300 557 q 217 328 217 437 l 217 328 q 235 208 217 258 q 291 131 254 157 q 387 104 329 104 l 387 104 q 494 140 454 104 q 536 241 534 175 l 536 241 l 679 241 q 638 102 677 159 q 534 18 600 46 q 386 -10 469 -10 z m 375 767 l 375 767 q 312 789 334 767 q 289 843 289 810 l 289 843 q 312 899 289 877 q 375 920 334 920 l 375 920 q 438 899 416 920 q 461 843 461 877 l 461 843 q 438 789 461 810 q 375 767 416 767 z "},"Č":{"ha":971,"x_min":71,"x_max":905,"o":"m 511 -12 l 511 -12 q 272 46 370 -12 q 122 210 174 105 q 71 456 71 315 l 71 456 q 122 702 71 596 q 272 866 174 807 q 511 925 370 925 l 511 925 q 697 890 610 925 q 840 786 784 856 q 903 612 895 717 l 903 612 l 744 612 q 703 715 736 675 q 620 775 670 755 q 511 795 570 795 l 511 795 q 349 749 411 795 q 260 626 288 703 q 232 456 232 549 l 232 456 q 260 287 232 363 q 349 163 288 210 q 511 117 411 117 l 511 117 q 675 169 613 117 q 746 320 737 221 l 746 320 l 905 320 q 844 137 896 211 q 707 25 793 62 q 511 -12 622 -12 z m 581 989 l 443 989 l 298 1175 l 412 1175 l 511 1066 l 611 1175 l 726 1175 l 581 989 z "},"č":{"ha":746,"x_min":67,"x_max":679,"o":"m 386 -10 l 386 -10 q 222 26 294 -10 q 109 138 151 62 q 67 328 67 213 l 67 328 q 107 520 67 444 q 219 634 148 597 q 386 672 291 672 l 386 672 q 530 646 466 672 q 633 566 595 619 q 673 433 671 513 l 673 433 l 530 433 q 490 524 527 490 q 387 557 452 557 l 387 557 q 258 497 300 557 q 217 328 217 437 l 217 328 q 235 208 217 258 q 291 131 254 157 q 387 104 329 104 l 387 104 q 494 140 454 104 q 536 241 534 175 l 536 241 l 679 241 q 638 102 677 159 q 534 18 600 46 q 386 -10 469 -10 z m 444 751 l 306 751 l 161 937 l 275 937 l 375 828 l 474 937 l 589 937 l 444 751 z "},"Ď":{"ha":967,"x_min":115,"x_max":896,"o":"m 438 0 l 115 0 l 115 913 l 438 913 q 685 859 583 913 q 842 703 787 805 q 896 458 896 601 l 896 458 q 841 209 896 311 q 684 54 787 107 q 438 0 582 0 l 438 0 z m 271 782 l 271 131 l 414 131 q 594 166 523 131 q 700 275 665 202 q 735 458 735 347 l 735 458 q 699 639 735 567 q 590 746 662 711 q 414 782 519 782 l 414 782 l 271 782 z m 553 989 l 415 989 l 270 1175 l 384 1175 l 484 1066 l 583 1175 l 698 1175 l 553 989 z "},"ď":{"ha":796,"x_min":67,"x_max":924,"o":"m 330 -12 l 330 -12 q 193 26 252 -12 q 100 141 134 64 q 67 334 67 218 l 67 334 q 103 523 67 448 q 201 635 138 597 q 346 673 264 673 l 346 673 q 466 643 415 673 q 547 564 517 613 l 547 564 l 547 913 l 694 913 l 694 0 l 555 0 l 547 95 q 458 18 512 47 q 330 -12 405 -12 z m 368 103 l 368 103 q 477 136 433 103 q 547 214 522 169 l 547 214 l 547 439 q 482 523 524 488 q 378 558 440 558 l 378 558 q 258 500 300 558 q 217 334 217 442 l 217 334 q 256 161 217 219 q 368 103 295 103 z m 833 697 l 740 697 l 784 913 l 925 913 l 833 697 z "},"Đ":{"ha":967,"x_min":0,"x_max":896,"o":"m 496 399 l 0 399 l 0 525 l 496 525 l 496 399 z m 438 0 l 115 0 l 115 913 l 438 913 q 685 859 583 913 q 842 703 787 805 q 896 458 896 601 l 896 458 q 841 209 896 311 q 684 54 787 107 q 438 0 582 0 l 438 0 z m 271 782 l 271 131 l 414 131 q 594 166 523 131 q 700 275 665 202 q 735 458 735 347 l 735 458 q 699 639 735 567 q 590 746 662 711 q 414 782 519 782 l 414 782 l 271 782 z "},"đ":{"ha":796,"x_min":67,"x_max":780,"o":"m 780 749 l 395 749 l 395 834 l 780 834 l 780 749 z m 330 -12 l 330 -12 q 193 26 252 -12 q 100 141 134 64 q 67 334 67 218 l 67 334 q 103 523 67 448 q 201 635 138 597 q 346 673 264 673 l 346 673 q 466 643 415 673 q 547 564 517 613 l 547 564 l 547 913 l 694 913 l 694 0 l 555 0 l 547 95 q 458 18 512 47 q 330 -12 405 -12 z m 368 103 l 368 103 q 477 136 433 103 q 547 214 522 169 l 547 214 l 547 439 q 482 523 524 488 q 378 558 440 558 l 378 558 q 258 500 300 558 q 217 334 217 442 l 217 334 q 256 161 217 219 q 368 103 295 103 z "},"Ē":{"ha":785,"x_min":115,"x_max":711,"o":"m 711 0 l 115 0 l 115 913 l 711 913 l 711 783 l 271 783 l 271 531 l 673 531 l 673 405 l 271 405 l 271 130 l 711 130 l 711 0 z m 602 1024 l 225 1024 l 225 1120 l 602 1120 l 602 1024 z "},"ē":{"ha":752,"x_min":67,"x_max":684,"o":"m 392 -12 l 392 -12 q 211 31 283 -12 q 103 152 139 74 q 67 332 67 229 l 67 332 q 102 511 67 435 q 207 630 137 587 q 380 672 276 672 l 380 672 q 603 588 522 672 q 684 348 684 504 l 684 348 q 683 325 684 338 q 681 304 682 311 l 681 304 l 214 304 q 232 201 214 248 q 290 125 250 154 q 392 97 329 97 l 392 97 q 498 127 460 97 q 539 216 537 157 l 539 216 l 684 216 q 644 92 680 143 q 544 14 608 41 q 392 -12 479 -12 z m 215 403 l 215 403 l 538 403 q 494 525 536 483 q 380 566 452 566 l 380 566 q 264 524 307 566 q 215 403 221 482 z m 570 789 l 193 789 l 193 886 l 570 886 l 570 789 z "},"Ĕ":{"ha":785,"x_min":115,"x_max":711,"o":"m 711 0 l 115 0 l 115 913 l 711 913 l 711 783 l 271 783 l 271 531 l 673 531 l 673 405 l 271 405 l 271 130 l 711 130 l 711 0 z m 412 996 l 412 996 q 310 1018 354 996 q 239 1079 265 1039 q 212 1174 214 1119 l 212 1174 l 295 1174 q 316 1118 298 1139 q 360 1087 334 1097 q 412 1078 385 1078 l 412 1078 q 464 1088 439 1078 q 508 1119 490 1097 q 531 1174 526 1140 l 531 1174 l 615 1174 q 585 1080 612 1120 q 514 1018 558 1040 q 412 996 470 996 z "},"ĕ":{"ha":752,"x_min":67,"x_max":684,"o":"m 392 -12 l 392 -12 q 211 31 283 -12 q 103 152 139 74 q 67 332 67 229 l 67 332 q 102 511 67 435 q 207 630 137 587 q 380 672 276 672 l 380 672 q 603 588 522 672 q 684 348 684 504 l 684 348 q 683 325 684 338 q 681 304 682 311 l 681 304 l 214 304 q 232 201 214 248 q 290 125 250 154 q 392 97 329 97 l 392 97 q 498 127 460 97 q 539 216 537 157 l 539 216 l 684 216 q 644 92 680 143 q 544 14 608 41 q 392 -12 479 -12 z m 215 403 l 215 403 l 538 403 q 494 525 536 483 q 380 566 452 566 l 380 566 q 264 524 307 566 q 215 403 221 482 z m 380 754 l 380 754 q 248 802 296 754 q 191 933 199 850 l 191 933 l 274 933 q 312 860 280 880 q 380 840 343 840 l 380 840 q 454 861 420 840 q 494 933 488 882 l 494 933 l 569 933 q 513 802 562 850 q 380 754 465 754 z "},"Ė":{"ha":785,"x_min":115,"x_max":711,"o":"m 711 0 l 115 0 l 115 913 l 711 913 l 711 783 l 271 783 l 271 531 l 673 531 l 673 405 l 271 405 l 271 130 l 711 130 l 711 0 z m 413 1002 l 413 1002 q 350 1023 372 1002 q 327 1078 327 1045 l 327 1078 q 350 1133 327 1112 q 413 1155 372 1155 l 413 1155 q 476 1133 454 1155 q 499 1078 499 1112 l 499 1078 q 476 1023 499 1045 q 413 1002 454 1002 z "},"ė":{"ha":752,"x_min":67,"x_max":684,"o":"m 392 -12 l 392 -12 q 211 31 283 -12 q 103 152 139 74 q 67 332 67 229 l 67 332 q 102 511 67 435 q 207 630 137 587 q 380 672 276 672 l 380 672 q 603 588 522 672 q 684 348 684 504 l 684 348 q 683 325 684 338 q 681 304 682 311 l 681 304 l 214 304 q 232 201 214 248 q 290 125 250 154 q 392 97 329 97 l 392 97 q 498 127 460 97 q 539 216 537 157 l 539 216 l 684 216 q 644 92 680 143 q 544 14 608 41 q 392 -12 479 -12 z m 215 403 l 215 403 l 538 403 q 494 525 536 483 q 380 566 452 566 l 380 566 q 264 524 307 566 q 215 403 221 482 z m 381 767 l 381 767 q 318 789 340 767 q 295 843 295 810 l 295 843 q 318 899 295 877 q 381 920 340 920 l 381 920 q 445 899 422 920 q 467 843 467 877 l 467 843 q 445 789 467 810 q 381 767 422 767 z "},"Ę":{"ha":785,"x_min":115,"x_max":711,"o":"m 711 0 l 115 0 l 115 913 l 711 913 l 711 783 l 271 783 l 271 531 l 673 531 l 673 405 l 271 405 l 271 130 l 711 130 l 711 0 z m 564 -253 l 564 -253 q 470 -223 508 -253 q 431 -139 431 -193 l 431 -139 q 452 -71 431 -104 q 510 -12 473 -37 q 591 24 547 14 l 591 24 l 644 9 q 567 -56 590 -22 q 545 -115 545 -89 l 545 -115 q 557 -148 545 -136 q 591 -159 569 -159 l 591 -159 q 633 -154 612 -159 q 677 -138 654 -148 l 677 -138 l 677 -227 q 630 -246 655 -239 q 564 -253 604 -253 z "},"ę":{"ha":752,"x_min":67,"x_max":684,"o":"m 392 -12 l 392 -12 q 211 31 283 -12 q 103 152 139 74 q 67 332 67 229 l 67 332 q 102 511 67 435 q 207 630 137 587 q 380 672 276 672 l 380 672 q 603 588 522 672 q 684 348 684 504 l 684 348 q 683 325 684 338 q 681 304 682 311 l 681 304 l 214 304 q 232 201 214 248 q 290 125 250 154 q 392 97 329 97 l 392 97 q 498 127 460 97 q 539 216 537 157 l 539 216 l 684 216 q 644 92 680 143 q 544 14 608 41 q 392 -12 479 -12 z m 215 403 l 215 403 l 538 403 q 494 525 536 483 q 380 566 452 566 l 380 566 q 264 524 307 566 q 215 403 221 482 z m 447 -253 l 447 -253 q 353 -223 391 -253 q 315 -139 315 -193 l 315 -139 q 336 -71 315 -104 q 393 -12 357 -37 q 475 24 430 14 l 475 24 l 528 9 q 451 -56 473 -22 q 428 -115 428 -89 l 428 -115 q 440 -148 428 -136 q 474 -159 452 -159 l 474 -159 q 516 -154 496 -159 q 560 -138 537 -148 l 560 -138 l 560 -227 q 513 -246 538 -239 q 447 -253 488 -253 z "},"Ě":{"ha":785,"x_min":115,"x_max":711,"o":"m 711 0 l 115 0 l 115 913 l 711 913 l 711 783 l 271 783 l 271 531 l 673 531 l 673 405 l 271 405 l 271 130 l 711 130 l 711 0 z m 482 989 l 344 989 l 199 1175 l 313 1175 l 412 1066 l 512 1175 l 627 1175 l 482 989 z "},"ě":{"ha":752,"x_min":67,"x_max":684,"o":"m 392 -12 l 392 -12 q 211 31 283 -12 q 103 152 139 74 q 67 332 67 229 l 67 332 q 102 511 67 435 q 207 630 137 587 q 380 672 276 672 l 380 672 q 603 588 522 672 q 684 348 684 504 l 684 348 q 683 325 684 338 q 681 304 682 311 l 681 304 l 214 304 q 232 201 214 248 q 290 125 250 154 q 392 97 329 97 l 392 97 q 498 127 460 97 q 539 216 537 157 l 539 216 l 684 216 q 644 92 680 143 q 544 14 608 41 q 392 -12 479 -12 z m 215 403 l 215 403 l 538 403 q 494 525 536 483 q 380 566 452 566 l 380 566 q 264 524 307 566 q 215 403 221 482 z m 450 751 l 312 751 l 167 937 l 281 937 l 381 828 l 480 937 l 595 937 l 450 751 z "},"Ĝ":{"ha":991,"x_min":71,"x_max":919,"o":"m 513 -12 l 513 -12 q 273 46 372 -12 q 122 210 174 105 q 71 456 71 315 l 71 456 q 122 702 71 597 q 273 866 174 808 q 513 925 372 925 l 513 925 q 649 907 583 925 q 770 852 715 889 q 860 757 825 814 q 902 623 895 700 l 902 623 l 743 623 q 708 710 737 671 q 630 772 680 749 q 511 795 580 795 l 511 795 q 349 749 411 795 q 258 626 287 703 q 230 456 230 549 l 230 456 q 258 286 230 363 q 349 163 287 209 q 513 118 412 118 l 513 118 q 649 146 595 118 q 732 227 704 175 q 764 345 761 278 l 764 345 l 522 345 l 522 471 l 919 471 l 919 390 q 873 180 919 271 q 736 39 827 90 q 513 -12 646 -12 z m 410 989 l 296 989 l 441 1175 l 580 1175 l 724 989 l 610 989 l 511 1097 l 410 989 z "},"ĝ":{"ha":692,"x_min":42,"x_max":675,"o":"m 348 -256 l 348 -256 q 168 -231 235 -256 q 72 -166 101 -207 q 42 -80 42 -126 l 42 -80 q 94 21 42 -23 q 254 82 145 64 l 254 82 l 279 133 l 366 133 q 603 89 530 133 q 675 -48 675 44 l 675 -48 q 592 -198 675 -140 q 348 -256 509 -256 z m 345 -158 l 345 -158 q 491 -130 448 -158 q 533 -61 533 -102 l 533 -61 q 518 -18 533 -36 q 468 10 504 0 q 366 20 431 20 l 366 20 l 256 20 q 199 -15 220 9 q 178 -68 178 -38 l 178 -68 q 217 -131 178 -103 q 345 -158 256 -158 z m 336 133 l 254 26 q 146 54 186 34 q 88 101 106 75 q 70 151 70 127 l 70 151 q 99 218 70 189 q 191 267 128 247 l 191 267 l 265 233 q 207 210 229 224 q 184 176 184 195 l 184 176 q 197 153 184 163 q 244 138 211 144 q 336 133 277 133 l 336 133 z m 338 212 l 338 212 q 192 244 252 212 q 101 327 132 275 q 71 439 71 379 l 71 439 q 102 554 71 503 q 194 637 133 606 q 342 668 254 668 l 342 668 q 490 637 431 668 q 579 554 549 606 q 608 439 608 503 l 608 439 q 578 326 608 378 q 488 243 548 274 q 338 212 429 212 z m 337 304 l 337 304 q 433 339 395 304 q 471 439 471 373 l 471 439 q 435 543 471 509 q 342 576 399 576 l 342 576 q 247 542 284 576 q 209 439 209 507 l 209 439 q 248 338 209 372 q 337 304 287 304 z m 518 581 l 518 581 l 469 637 q 548 728 496 704 q 675 753 600 753 l 675 753 l 675 640 q 584 630 625 640 q 518 581 542 621 z m 248 751 l 134 751 l 279 937 l 417 937 l 562 751 l 448 751 l 348 860 l 248 751 z "},"Ğ":{"ha":991,"x_min":71,"x_max":919,"o":"m 513 -12 l 513 -12 q 273 46 372 -12 q 122 210 174 105 q 71 456 71 315 l 71 456 q 122 702 71 597 q 273 866 174 808 q 513 925 372 925 l 513 925 q 649 907 583 925 q 770 852 715 889 q 860 757 825 814 q 902 623 895 700 l 902 623 l 743 623 q 708 710 737 671 q 630 772 680 749 q 511 795 580 795 l 511 795 q 349 749 411 795 q 258 626 287 703 q 230 456 230 549 l 230 456 q 258 286 230 363 q 349 163 287 209 q 513 118 412 118 l 513 118 q 649 146 595 118 q 732 227 704 175 q 764 345 761 278 l 764 345 l 522 345 l 522 471 l 919 471 l 919 390 q 873 180 919 271 q 736 39 827 90 q 513 -12 646 -12 z m 509 996 l 509 996 q 407 1018 452 996 q 337 1079 363 1039 q 309 1174 311 1119 l 309 1174 l 393 1174 q 414 1118 396 1139 q 457 1087 432 1097 q 509 1078 483 1078 l 509 1078 q 562 1088 536 1078 q 606 1119 587 1097 q 629 1174 624 1140 l 629 1174 l 713 1174 q 683 1080 709 1120 q 612 1018 656 1040 q 509 996 568 996 z "},"ğ":{"ha":692,"x_min":42,"x_max":675,"o":"m 348 -256 l 348 -256 q 168 -231 235 -256 q 72 -166 101 -207 q 42 -80 42 -126 l 42 -80 q 94 21 42 -23 q 254 82 145 64 l 254 82 l 279 133 l 366 133 q 603 89 530 133 q 675 -48 675 44 l 675 -48 q 592 -198 675 -140 q 348 -256 509 -256 z m 345 -158 l 345 -158 q 491 -130 448 -158 q 533 -61 533 -102 l 533 -61 q 518 -18 533 -36 q 468 10 504 0 q 366 20 431 20 l 366 20 l 256 20 q 199 -15 220 9 q 178 -68 178 -38 l 178 -68 q 217 -131 178 -103 q 345 -158 256 -158 z m 336 133 l 254 26 q 146 54 186 34 q 88 101 106 75 q 70 151 70 127 l 70 151 q 99 218 70 189 q 191 267 128 247 l 191 267 l 265 233 q 207 210 229 224 q 184 176 184 195 l 184 176 q 197 153 184 163 q 244 138 211 144 q 336 133 277 133 l 336 133 z m 338 212 l 338 212 q 192 244 252 212 q 101 327 132 275 q 71 439 71 379 l 71 439 q 102 554 71 503 q 194 637 133 606 q 342 668 254 668 l 342 668 q 490 637 431 668 q 579 554 549 606 q 608 439 608 503 l 608 439 q 578 326 608 378 q 488 243 548 274 q 338 212 429 212 z m 337 304 l 337 304 q 433 339 395 304 q 471 439 471 373 l 471 439 q 435 543 471 509 q 342 576 399 576 l 342 576 q 247 542 284 576 q 209 439 209 507 l 209 439 q 248 338 209 372 q 337 304 287 304 z m 518 581 l 518 581 l 469 637 q 548 728 496 704 q 675 753 600 753 l 675 753 l 675 640 q 584 630 625 640 q 518 581 542 621 z m 347 754 l 347 754 q 214 802 262 754 q 157 933 165 850 l 157 933 l 240 933 q 278 860 246 880 q 347 840 309 840 l 347 840 q 420 861 386 840 q 460 933 454 882 l 460 933 l 535 933 q 479 802 528 850 q 347 754 431 754 z "},"Ġ":{"ha":991,"x_min":71,"x_max":919,"o":"m 513 -12 l 513 -12 q 273 46 372 -12 q 122 210 174 105 q 71 456 71 315 l 71 456 q 122 702 71 597 q 273 866 174 808 q 513 925 372 925 l 513 925 q 649 907 583 925 q 770 852 715 889 q 860 757 825 814 q 902 623 895 700 l 902 623 l 743 623 q 708 710 737 671 q 630 772 680 749 q 511 795 580 795 l 511 795 q 349 749 411 795 q 258 626 287 703 q 230 456 230 549 l 230 456 q 258 286 230 363 q 349 163 287 209 q 513 118 412 118 l 513 118 q 649 146 595 118 q 732 227 704 175 q 764 345 761 278 l 764 345 l 522 345 l 522 471 l 919 471 l 919 390 q 873 180 919 271 q 736 39 827 90 q 513 -12 646 -12 z m 511 1002 l 511 1002 q 447 1023 470 1002 q 425 1078 425 1045 l 425 1078 q 447 1133 425 1112 q 511 1155 470 1155 l 511 1155 q 574 1133 551 1155 q 597 1078 597 1112 l 597 1078 q 574 1023 597 1045 q 511 1002 551 1002 z "},"ġ":{"ha":692,"x_min":42,"x_max":675,"o":"m 348 -256 l 348 -256 q 168 -231 235 -256 q 72 -166 101 -207 q 42 -80 42 -126 l 42 -80 q 94 21 42 -23 q 254 82 145 64 l 254 82 l 279 133 l 366 133 q 603 89 530 133 q 675 -48 675 44 l 675 -48 q 592 -198 675 -140 q 348 -256 509 -256 z m 345 -158 l 345 -158 q 491 -130 448 -158 q 533 -61 533 -102 l 533 -61 q 518 -18 533 -36 q 468 10 504 0 q 366 20 431 20 l 366 20 l 256 20 q 199 -15 220 9 q 178 -68 178 -38 l 178 -68 q 217 -131 178 -103 q 345 -158 256 -158 z m 336 133 l 254 26 q 146 54 186 34 q 88 101 106 75 q 70 151 70 127 l 70 151 q 99 218 70 189 q 191 267 128 247 l 191 267 l 265 233 q 207 210 229 224 q 184 176 184 195 l 184 176 q 197 153 184 163 q 244 138 211 144 q 336 133 277 133 l 336 133 z m 338 212 l 338 212 q 192 244 252 212 q 101 327 132 275 q 71 439 71 379 l 71 439 q 102 554 71 503 q 194 637 133 606 q 342 668 254 668 l 342 668 q 490 637 431 668 q 579 554 549 606 q 608 439 608 503 l 608 439 q 578 326 608 378 q 488 243 548 274 q 338 212 429 212 z m 337 304 l 337 304 q 433 339 395 304 q 471 439 471 373 l 471 439 q 435 543 471 509 q 342 576 399 576 l 342 576 q 247 542 284 576 q 209 439 209 507 l 209 439 q 248 338 209 372 q 337 304 287 304 z m 518 581 l 518 581 l 469 637 q 548 728 496 704 q 675 753 600 753 l 675 753 l 675 640 q 584 630 625 640 q 518 581 542 621 z m 347 767 l 347 767 q 284 789 307 767 q 261 843 261 810 l 261 843 q 284 899 261 877 q 347 920 307 920 l 347 920 q 411 899 388 920 q 433 843 433 877 l 433 843 q 411 789 433 810 q 347 767 388 767 z "},"Ģ":{"ha":991,"x_min":71,"x_max":919,"o":"m 513 -12 l 513 -12 q 273 46 372 -12 q 122 210 174 105 q 71 456 71 315 l 71 456 q 122 702 71 597 q 273 866 174 808 q 513 925 372 925 l 513 925 q 649 907 583 925 q 770 852 715 889 q 860 757 825 814 q 902 623 895 700 l 902 623 l 743 623 q 708 710 737 671 q 630 772 680 749 q 511 795 580 795 l 511 795 q 349 749 411 795 q 258 626 287 703 q 230 456 230 549 l 230 456 q 258 286 230 363 q 349 163 287 209 q 513 118 412 118 l 513 118 q 649 146 595 118 q 732 227 704 175 q 764 345 761 278 l 764 345 l 522 345 l 522 471 l 919 471 l 919 390 q 873 180 919 271 q 736 39 827 90 q 513 -12 646 -12 z m 444 -270 l 444 -270 l 431 -222 q 479 -199 458 -214 q 507 -165 500 -184 l 507 -165 q 456 -145 474 -163 q 438 -101 438 -127 l 438 -101 q 457 -58 438 -76 q 513 -40 477 -40 l 513 -40 q 570 -61 548 -40 q 593 -121 593 -81 l 593 -121 q 549 -220 593 -180 q 444 -270 505 -260 z "},"ģ":{"ha":692,"x_min":42,"x_max":675,"o":"m 348 -256 l 348 -256 q 168 -231 235 -256 q 72 -166 101 -207 q 42 -80 42 -126 l 42 -80 q 94 21 42 -23 q 254 82 145 64 l 254 82 l 279 133 l 366 133 q 603 89 530 133 q 675 -48 675 44 l 675 -48 q 592 -198 675 -140 q 348 -256 509 -256 z m 345 -158 l 345 -158 q 491 -130 448 -158 q 533 -61 533 -102 l 533 -61 q 518 -18 533 -36 q 468 10 504 0 q 366 20 431 20 l 366 20 l 256 20 q 199 -15 220 9 q 178 -68 178 -38 l 178 -68 q 217 -131 178 -103 q 345 -158 256 -158 z m 336 133 l 254 26 q 146 54 186 34 q 88 101 106 75 q 70 151 70 127 l 70 151 q 99 218 70 189 q 191 267 128 247 l 191 267 l 265 233 q 207 210 229 224 q 184 176 184 195 l 184 176 q 197 153 184 163 q 244 138 211 144 q 336 133 277 133 l 336 133 z m 338 212 l 338 212 q 192 244 252 212 q 101 327 132 275 q 71 439 71 379 l 71 439 q 102 554 71 503 q 194 637 133 606 q 342 668 254 668 l 342 668 q 490 637 431 668 q 579 554 549 606 q 608 439 608 503 l 608 439 q 578 326 608 378 q 488 243 548 274 q 338 212 429 212 z m 337 304 l 337 304 q 433 339 395 304 q 471 439 471 373 l 471 439 q 435 543 471 509 q 342 576 399 576 l 342 576 q 247 542 284 576 q 209 439 209 507 l 209 439 q 248 338 209 372 q 337 304 287 304 z m 518 581 l 518 581 l 469 637 q 548 728 496 704 q 675 753 600 753 l 675 753 l 675 640 q 584 630 625 640 q 518 581 542 621 z m 346 732 l 346 732 q 286 754 309 732 q 262 819 262 777 l 262 819 q 283 895 262 861 q 339 950 304 928 q 415 978 374 972 l 415 978 l 430 926 q 384 901 405 917 q 353 863 363 886 l 353 863 q 405 842 386 859 q 423 799 423 825 l 423 799 q 402 751 423 770 q 346 732 380 732 z "},"Ĥ":{"ha":998,"x_min":115,"x_max":883,"o":"m 271 0 l 115 0 l 115 913 l 271 913 l 271 543 l 727 543 l 727 913 l 883 913 l 883 0 l 727 0 l 727 406 l 271 406 l 271 0 z m 399 989 l 286 989 l 431 1175 l 569 1175 l 713 989 l 599 989 l 500 1097 l 399 989 z "},"ĥ":{"ha":785,"x_min":102,"x_max":688,"o":"m 250 0 l 102 0 l 102 913 l 247 913 l 247 561 q 335 636 279 602 q 477 671 391 671 l 477 671 q 636 609 584 671 q 688 429 688 547 l 688 429 l 688 0 l 541 0 l 541 409 q 531 483 541 451 q 498 533 522 515 q 431 551 474 551 l 431 551 q 323 522 368 551 q 250 455 279 492 l 250 455 l 250 0 z m 294 1003 l 180 1003 l 324 1188 l 463 1188 l 608 1003 l 493 1003 l 393 1112 l 294 1003 z "},"Ħ":{"ha":998,"x_min":12,"x_max":984,"o":"m 984 677 l 12 677 l 12 766 l 984 766 l 984 677 z m 271 0 l 115 0 l 115 913 l 271 913 l 271 543 l 727 543 l 727 913 l 883 913 l 883 0 l 727 0 l 727 406 l 271 406 l 271 0 z "},"ħ":{"ha":785,"x_min":17,"x_max":688,"o":"m 404 749 l 17 749 l 17 834 l 404 834 l 404 749 z m 250 0 l 102 0 l 102 913 l 247 913 l 247 561 q 335 636 279 602 q 477 671 391 671 l 477 671 q 636 609 584 671 q 688 429 688 547 l 688 429 l 688 0 l 541 0 l 541 409 q 531 483 541 451 q 498 533 522 515 q 431 551 474 551 l 431 551 q 323 522 368 551 q 250 455 279 492 l 250 455 l 250 0 z "},"Ĩ":{"ha":385,"x_min":-16,"x_max":401,"o":"m 271 0 l 115 0 l 115 913 l 271 913 l 271 0 z m 64 999 l -16 999 q 20 1108 -9 1069 q 104 1147 50 1147 l 104 1147 q 161 1137 134 1147 q 214 1117 189 1128 l 214 1117 q 253 1101 235 1107 q 286 1095 271 1095 l 286 1095 q 310 1108 301 1095 q 321 1149 319 1120 l 321 1149 l 401 1149 q 369 1044 395 1081 q 290 1006 343 1006 l 290 1006 q 231 1016 258 1006 q 180 1034 203 1025 l 180 1034 q 138 1051 156 1044 q 105 1057 121 1057 l 105 1057 q 78 1043 88 1057 q 64 999 68 1029 l 64 999 z "},"ĩ":{"ha":352,"x_min":-33,"x_max":385,"o":"m 250 0 l 102 0 l 102 661 l 250 661 l 250 0 z m 48 764 l -33 764 q 4 873 -26 834 q 87 912 33 912 l 87 912 q 145 903 117 912 q 197 882 172 893 l 197 882 q 237 867 219 873 q 270 861 255 861 l 270 861 q 294 873 285 861 q 305 914 302 886 l 305 914 l 385 914 q 353 809 378 846 q 273 772 327 772 l 273 772 q 215 781 242 772 q 163 800 187 790 l 163 800 q 122 816 140 810 q 89 823 104 823 l 89 823 q 62 809 72 823 q 48 764 52 795 l 48 764 z "},"Ī":{"ha":385,"x_min":5,"x_max":380,"o":"m 271 0 l 115 0 l 115 913 l 271 913 l 271 0 z m 381 1024 l 5 1024 l 5 1120 l 381 1120 l 381 1024 z "},"ī":{"ha":352,"x_min":26,"x_max":327,"o":"m 250 0 l 102 0 l 102 661 l 250 661 l 250 0 z m 327 796 l 26 796 l 26 879 l 327 879 l 327 796 z "},"Ĭ":{"ha":385,"x_min":-9,"x_max":395,"o":"m 271 0 l 115 0 l 115 913 l 271 913 l 271 0 z m 191 996 l 191 996 q 89 1018 134 996 q 19 1079 45 1039 q -9 1174 -7 1119 l -9 1174 l 75 1174 q 96 1118 78 1139 q 139 1087 114 1097 q 191 1078 165 1078 l 191 1078 q 244 1088 218 1078 q 288 1119 269 1097 q 311 1174 306 1140 l 311 1174 l 395 1174 q 365 1080 391 1120 q 294 1018 338 1040 q 191 996 250 996 z "},"ĭ":{"ha":352,"x_min":-14,"x_max":364,"o":"m 250 0 l 102 0 l 102 661 l 250 661 l 250 0 z m 176 754 l 176 754 q 43 802 91 754 q -14 933 -5 850 l -14 933 l 69 933 q 107 860 75 880 q 176 840 138 840 l 176 840 q 249 861 215 840 q 289 933 283 882 l 289 933 l 364 933 q 309 802 357 850 q 176 754 260 754 z "},"Į":{"ha":385,"x_min":41,"x_max":286,"o":"m 271 0 l 115 0 l 115 913 l 271 913 l 271 0 z m 173 -253 l 173 -253 q 79 -223 117 -253 q 41 -139 41 -193 l 41 -139 q 62 -71 41 -104 q 119 -12 83 -37 q 201 24 156 14 l 201 24 l 254 9 q 177 -56 199 -22 q 154 -115 154 -89 l 154 -115 q 166 -148 154 -136 q 200 -159 178 -159 l 200 -159 q 242 -154 222 -159 q 286 -138 263 -148 l 286 -138 l 286 -227 q 239 -246 264 -239 q 173 -253 214 -253 z "},"į":{"ha":352,"x_min":18,"x_max":264,"o":"m 250 0 l 102 0 l 102 661 l 250 661 l 250 0 z m 176 767 l 176 767 q 113 789 136 767 q 90 843 90 810 l 90 843 q 113 899 90 877 q 176 920 136 920 l 176 920 q 240 899 217 920 q 262 843 262 877 l 262 843 q 240 789 262 810 q 176 767 217 767 z m 151 -253 l 151 -253 q 57 -223 96 -253 q 19 -139 19 -193 l 19 -139 q 40 -71 19 -104 q 98 -12 61 -37 q 179 24 134 14 l 179 24 l 232 9 q 155 -56 178 -22 q 132 -115 132 -89 l 132 -115 q 144 -148 132 -136 q 178 -159 157 -159 l 178 -159 q 221 -154 200 -159 q 264 -138 241 -148 l 264 -138 l 264 -227 q 217 -246 243 -239 q 151 -253 192 -253 z "},"İ":{"ha":385,"x_min":106,"x_max":279,"o":"m 271 0 l 115 0 l 115 913 l 271 913 l 271 0 z m 193 1002 l 193 1002 q 129 1023 152 1002 q 106 1078 106 1045 l 106 1078 q 129 1133 106 1112 q 193 1155 152 1155 l 193 1155 q 256 1133 233 1155 q 279 1078 279 1112 l 279 1078 q 256 1023 279 1045 q 193 1002 233 1002 z "},"ı":{"ha":352,"x_min":102,"x_max":250,"o":"m 250 0 l 102 0 l 102 661 l 250 661 l 250 0 z "},"Ĳ":{"ha":870,"x_min":115,"x_max":767,"o":"m 271 0 l 115 0 l 115 913 l 271 913 l 271 0 z m 480 -7 l 410 -7 l 410 127 l 469 127 q 581 165 548 127 q 614 292 614 203 l 614 292 l 614 913 l 767 913 l 767 290 q 737 122 767 187 q 644 25 707 56 q 480 -7 581 -7 l 480 -7 z "},"ĳ":{"ha":704,"x_min":90,"x_max":614,"o":"m 250 0 l 102 0 l 102 661 l 250 661 l 250 0 z m 176 767 l 176 767 q 113 789 135 767 q 90 843 90 810 l 90 843 q 113 899 90 877 q 176 920 135 920 l 176 920 q 240 899 217 920 q 262 844 262 877 l 262 844 q 240 789 262 810 q 176 767 217 767 z m 382 -243 l 328 -243 l 328 -125 l 361 -125 q 431 -103 408 -125 q 454 -31 454 -81 l 454 -31 l 454 661 l 602 661 l 602 -19 q 549 -185 602 -127 q 382 -243 496 -243 l 382 -243 z m 528 767 l 528 767 q 465 789 487 767 q 442 843 442 810 l 442 843 q 465 899 442 877 q 528 920 487 920 l 528 920 q 592 899 569 920 q 614 843 614 877 l 614 843 q 592 789 614 810 q 528 767 569 767 z "},"Ĵ":{"ha":485,"x_min":25,"x_max":519,"o":"m 95 -7 l 25 -7 l 25 127 l 83 127 q 196 165 163 127 q 229 292 229 203 l 229 292 l 229 913 l 382 913 l 382 290 q 352 122 382 187 q 259 25 322 56 q 95 -7 195 -7 l 95 -7 z m 205 989 l 91 989 l 236 1175 l 374 1175 l 519 989 l 404 989 l 305 1097 l 205 989 z "},"ĵ":{"ha":352,"x_min":-37,"x_max":391,"o":"m 30 -243 l -24 -243 l -24 -125 l 9 -125 q 80 -103 56 -125 q 103 -31 103 -81 l 103 -31 l 103 661 l 250 661 l 250 -19 q 197 -185 250 -127 q 30 -243 144 -243 l 30 -243 z m 77 751 l -37 751 l 108 937 l 246 937 l 391 751 l 277 751 l 177 860 l 77 751 z "},"Ķ":{"ha":827,"x_min":115,"x_max":824,"o":"m 271 0 l 115 0 l 115 913 l 271 913 l 271 475 l 622 913 l 798 913 l 439 484 l 824 0 l 640 0 l 271 468 l 271 0 z m 391 -270 l 391 -270 l 377 -222 q 426 -199 404 -214 q 454 -165 447 -184 l 454 -165 q 402 -145 420 -163 q 385 -101 385 -127 l 385 -101 q 404 -58 385 -76 q 459 -40 423 -40 l 459 -40 q 517 -61 494 -40 q 539 -121 539 -81 l 539 -121 q 495 -220 539 -180 q 391 -270 452 -260 z "},"ķ":{"ha":709,"x_min":102,"x_max":715,"o":"m 250 0 l 102 0 l 102 913 l 250 913 l 250 353 l 528 661 l 692 661 l 412 355 l 715 0 l 543 0 l 250 347 l 250 0 z m 324 -270 l 324 -270 l 311 -222 q 359 -199 338 -214 q 387 -165 380 -184 l 387 -165 q 336 -145 354 -163 q 318 -101 318 -127 l 318 -101 q 337 -58 318 -76 q 393 -40 357 -40 l 393 -40 q 450 -61 428 -40 q 473 -121 473 -81 l 473 -121 q 429 -220 473 -180 q 324 -270 385 -260 z "},"ĸ":{"ha":709,"x_min":102,"x_max":715,"o":"m 250 0 l 102 0 l 102 661 l 250 661 l 250 353 l 528 661 l 692 661 l 412 355 l 715 0 l 543 0 l 250 347 l 250 0 z "},"Ĺ":{"ha":702,"x_min":115,"x_max":676,"o":"m 676 0 l 115 0 l 115 913 l 271 913 l 271 136 l 676 136 l 676 0 z m 231 989 l 121 989 l 250 1174 l 412 1174 l 231 989 z "},"ĺ":{"ha":386,"x_min":96,"x_max":395,"o":"m 364 0 l 322 0 q 182 25 231 0 q 114 99 133 50 q 96 222 96 148 l 96 222 l 96 913 l 242 913 l 242 231 q 257 145 242 174 q 328 116 272 116 l 328 116 l 364 116 l 364 0 z m 207 1002 l 96 1002 l 232 1187 l 395 1187 l 207 1002 z "},"Ļ":{"ha":702,"x_min":115,"x_max":676,"o":"m 676 0 l 115 0 l 115 913 l 271 913 l 271 136 l 676 136 l 676 0 z m 342 -270 l 342 -270 l 328 -222 q 377 -199 355 -214 q 405 -165 398 -184 l 405 -165 q 354 -145 372 -163 q 336 -101 336 -127 l 336 -101 q 355 -58 336 -76 q 410 -40 374 -40 l 410 -40 q 468 -61 446 -40 q 490 -121 490 -81 l 490 -121 q 447 -220 490 -180 q 342 -270 403 -260 z "},"ļ":{"ha":386,"x_min":96,"x_max":364,"o":"m 364 0 l 322 0 q 182 25 231 0 q 114 99 133 50 q 96 222 96 148 l 96 222 l 96 913 l 242 913 l 242 231 q 257 145 242 174 q 328 116 272 116 l 328 116 l 364 116 l 364 0 z m 163 -270 l 163 -270 l 150 -222 q 198 -199 177 -214 q 227 -165 220 -184 l 227 -165 q 175 -145 193 -163 q 157 -101 157 -127 l 157 -101 q 177 -58 157 -76 q 232 -40 196 -40 l 232 -40 q 290 -61 267 -40 q 312 -121 312 -81 l 312 -121 q 268 -220 312 -180 q 163 -270 224 -260 z "},"Ľ":{"ha":702,"x_min":115,"x_max":676,"o":"m 676 0 l 115 0 l 115 913 l 271 913 l 271 136 l 676 136 l 676 0 z m 522 697 l 428 697 l 472 913 l 613 913 l 522 697 z "},"ľ":{"ha":386,"x_min":96,"x_max":460,"o":"m 364 0 l 322 0 q 182 25 231 0 q 114 99 133 50 q 96 222 96 148 l 96 222 l 96 913 l 242 913 l 242 231 q 257 145 242 174 q 328 116 272 116 l 328 116 l 364 116 l 364 0 z m 369 697 l 275 697 l 319 913 l 460 913 l 369 697 z "},"Ŀ":{"ha":702,"x_min":115,"x_max":676,"o":"m 676 0 l 115 0 l 115 913 l 271 913 l 271 136 l 676 136 l 676 0 z m 538 416 l 538 416 q 465 444 494 416 q 437 514 437 473 l 437 514 q 465 585 437 557 q 538 612 494 612 l 538 612 q 611 585 583 612 q 639 514 639 557 l 639 514 q 611 444 639 473 q 538 416 583 416 z "},"ŀ":{"ha":456,"x_min":96,"x_max":496,"o":"m 364 0 l 322 0 q 182 25 231 0 q 114 99 133 50 q 96 222 96 148 l 96 222 l 96 913 l 242 913 l 242 231 q 257 145 242 174 q 328 116 272 116 l 328 116 l 364 116 l 364 0 z m 395 384 l 395 384 q 322 412 351 384 q 294 482 294 441 l 294 482 q 322 553 294 526 q 395 580 351 580 l 395 580 q 468 553 440 580 q 496 482 496 526 l 496 482 q 468 412 496 441 q 395 384 440 384 z "},"Ł":{"ha":702,"x_min":0,"x_max":676,"o":"m 446 505 l 0 249 l 0 374 l 446 629 l 446 505 z m 676 0 l 115 0 l 115 913 l 271 913 l 271 136 l 676 136 l 676 0 z "},"ł":{"ha":386,"x_min":0,"x_max":364,"o":"m 349 555 l 167 419 l 167 545 l 349 681 l 349 555 z m 167 435 l 0 312 l 0 437 l 167 560 l 167 435 z m 364 0 l 322 0 q 182 25 231 0 q 114 99 133 50 q 96 222 96 148 l 96 222 l 96 913 l 242 913 l 242 231 q 257 145 242 174 q 328 116 272 116 l 328 116 l 364 116 l 364 0 z "},"Ń":{"ha":992,"x_min":115,"x_max":878,"o":"m 261 0 l 115 0 l 115 913 l 270 913 l 730 242 l 730 913 l 878 913 l 878 0 l 722 0 l 261 673 l 261 0 z m 544 989 l 433 989 l 562 1174 l 724 1174 l 544 989 z "},"ń":{"ha":785,"x_min":102,"x_max":688,"o":"m 250 0 l 102 0 l 102 661 l 243 661 l 247 561 q 335 636 279 602 q 478 671 391 671 l 478 671 q 636 608 583 671 q 688 429 688 545 l 688 429 l 688 0 l 542 0 l 542 409 q 532 483 542 451 q 497 533 522 515 q 431 551 473 551 l 431 551 q 323 522 368 551 q 250 455 279 492 l 250 455 l 250 0 z m 431 751 l 321 751 l 456 937 l 619 937 l 431 751 z "},"Ņ":{"ha":992,"x_min":115,"x_max":878,"o":"m 261 0 l 115 0 l 115 913 l 270 913 l 730 242 l 730 913 l 878 913 l 878 0 l 722 0 l 261 673 l 261 0 z m 425 -270 l 425 -270 l 411 -222 q 459 -199 438 -214 q 488 -165 481 -184 l 488 -165 q 436 -145 454 -163 q 418 -101 418 -127 l 418 -101 q 438 -58 418 -76 q 493 -40 457 -40 l 493 -40 q 551 -61 528 -40 q 573 -121 573 -81 l 573 -121 q 529 -220 573 -180 q 425 -270 486 -260 z "},"ņ":{"ha":785,"x_min":102,"x_max":688,"o":"m 250 0 l 102 0 l 102 661 l 243 661 l 247 561 q 335 636 279 602 q 478 671 391 671 l 478 671 q 636 608 583 671 q 688 429 688 545 l 688 429 l 688 0 l 542 0 l 542 409 q 532 483 542 451 q 497 533 522 515 q 431 551 473 551 l 431 551 q 323 522 368 551 q 250 455 279 492 l 250 455 l 250 0 z m 329 -270 l 329 -270 l 315 -222 q 364 -199 342 -214 q 392 -165 385 -184 l 392 -165 q 341 -145 359 -163 q 323 -101 323 -127 l 323 -101 q 342 -58 323 -76 q 397 -40 361 -40 l 397 -40 q 455 -61 433 -40 q 477 -121 477 -81 l 477 -121 q 434 -220 477 -180 q 329 -270 390 -260 z "},"Ň":{"ha":992,"x_min":115,"x_max":878,"o":"m 261 0 l 115 0 l 115 913 l 270 913 l 730 242 l 730 913 l 878 913 l 878 0 l 722 0 l 261 673 l 261 0 z m 574 989 l 436 989 l 291 1175 l 405 1175 l 505 1066 l 604 1175 l 719 1175 l 574 989 z "},"ň":{"ha":785,"x_min":102,"x_max":688,"o":"m 250 0 l 102 0 l 102 661 l 243 661 l 247 561 q 335 636 279 602 q 478 671 391 671 l 478 671 q 636 608 583 671 q 688 429 688 545 l 688 429 l 688 0 l 542 0 l 542 409 q 532 483 542 451 q 497 533 522 515 q 431 551 473 551 l 431 551 q 323 522 368 551 q 250 455 279 492 l 250 455 l 250 0 z m 470 751 l 332 751 l 186 937 l 300 937 l 401 828 l 500 937 l 614 937 l 470 751 z "},"ŉ":{"ha":880,"x_min":-43,"x_max":783,"o":"m 345 0 l 197 0 l 197 661 l 338 661 l 342 561 q 430 636 374 602 q 573 671 486 671 l 573 671 q 731 608 678 671 q 783 429 783 545 l 783 429 l 783 0 l 637 0 l 637 409 q 627 483 637 451 q 592 533 616 515 q 526 551 568 551 l 526 551 q 418 522 463 551 q 345 455 374 492 l 345 455 l 345 0 z m -18 543 l -18 543 l -43 615 q 32 664 3 634 q 66 741 61 694 l 66 741 l 75 733 q 3 761 31 733 q -26 829 -26 788 l -26 829 q 2 899 -26 873 q 75 926 31 926 l 75 926 q 148 895 121 926 q 176 801 176 863 l 176 801 q 149 677 176 730 q 78 591 122 625 q -18 543 34 557 z "},"Ŋ":{"ha":992,"x_min":115,"x_max":878,"o":"m 261 0 l 115 0 l 115 913 l 270 913 l 730 258 l 730 913 l 878 913 l 878 57 l 725 12 l 261 673 l 261 0 z m 589 -243 l 520 -243 l 520 -110 l 578 -110 q 690 -71 657 -110 q 724 59 724 -32 l 724 59 l 878 57 q 809 -171 878 -99 q 589 -243 741 -243 l 589 -243 z "},"ŋ":{"ha":785,"x_min":102,"x_max":688,"o":"m 469 -243 l 414 -243 l 414 -125 l 449 -125 q 519 -105 496 -125 q 542 -37 542 -84 l 542 -37 l 542 90 l 688 90 l 688 -31 q 636 -188 688 -133 q 469 -243 583 -243 l 469 -243 z m 250 0 l 102 0 l 102 661 l 243 661 l 247 561 q 335 636 279 602 q 478 671 391 671 l 478 671 q 636 608 583 671 q 688 429 688 545 l 688 429 l 688 0 l 542 0 l 542 409 q 532 483 542 451 q 497 533 522 515 q 431 551 473 551 l 431 551 q 323 522 368 551 q 250 455 279 492 l 250 455 l 250 0 z "},"Ō":{"ha":1021,"x_min":71,"x_max":949,"o":"m 511 -12 l 511 -12 q 269 46 367 -12 q 121 210 171 105 q 71 456 71 315 l 71 456 q 121 702 71 596 q 269 866 171 807 q 511 925 367 925 l 511 925 q 751 866 654 925 q 899 702 848 807 q 949 456 949 596 l 949 456 q 899 210 949 315 q 751 46 848 105 q 511 -12 654 -12 z m 511 117 l 511 117 q 671 163 610 117 q 760 286 732 209 q 789 456 789 363 l 789 456 q 760 627 789 550 q 671 750 732 704 q 511 795 610 795 l 511 795 q 349 750 411 795 q 260 627 288 704 q 232 456 232 550 l 232 456 q 260 286 232 363 q 349 163 288 209 q 511 117 411 117 z m 699 1024 l 323 1024 l 323 1120 l 699 1120 l 699 1024 z "},"ō":{"ha":781,"x_min":67,"x_max":714,"o":"m 388 -11 l 388 -11 q 217 30 290 -11 q 106 146 145 70 q 67 329 67 222 l 67 329 q 106 515 67 437 q 217 633 145 592 q 388 673 290 673 l 388 673 q 562 633 489 673 q 674 515 635 592 q 714 329 714 437 l 714 329 q 674 146 714 222 q 562 30 635 70 q 388 -11 489 -11 z m 388 103 l 388 103 q 493 133 454 103 q 548 214 532 163 q 564 329 564 265 l 564 329 q 548 446 564 394 q 493 529 532 498 q 388 559 454 559 l 388 559 q 287 529 324 559 q 233 446 250 498 q 217 329 217 394 l 217 329 q 233 214 217 265 q 287 133 250 163 q 388 103 324 103 z m 579 789 l 203 789 l 203 886 l 579 886 l 579 789 z "},"Ŏ":{"ha":1021,"x_min":71,"x_max":949,"o":"m 511 -12 l 511 -12 q 269 46 367 -12 q 121 210 171 105 q 71 456 71 315 l 71 456 q 121 702 71 596 q 269 866 171 807 q 511 925 367 925 l 511 925 q 751 866 654 925 q 899 702 848 807 q 949 456 949 596 l 949 456 q 899 210 949 315 q 751 46 848 105 q 511 -12 654 -12 z m 511 117 l 511 117 q 671 163 610 117 q 760 286 732 209 q 789 456 789 363 l 789 456 q 760 627 789 550 q 671 750 732 704 q 511 795 610 795 l 511 795 q 349 750 411 795 q 260 627 288 704 q 232 456 232 550 l 232 456 q 260 286 232 363 q 349 163 288 209 q 511 117 411 117 z m 509 996 l 509 996 q 407 1018 452 996 q 337 1079 363 1039 q 309 1174 311 1119 l 309 1174 l 393 1174 q 414 1118 396 1139 q 457 1087 432 1097 q 509 1078 483 1078 l 509 1078 q 562 1088 536 1078 q 606 1119 587 1097 q 629 1174 624 1140 l 629 1174 l 713 1174 q 683 1080 709 1120 q 612 1018 656 1040 q 509 996 568 996 z "},"ŏ":{"ha":781,"x_min":67,"x_max":714,"o":"m 388 -11 l 388 -11 q 217 30 290 -11 q 106 146 145 70 q 67 329 67 222 l 67 329 q 106 515 67 437 q 217 633 145 592 q 388 673 290 673 l 388 673 q 562 633 489 673 q 674 515 635 592 q 714 329 714 437 l 714 329 q 674 146 714 222 q 562 30 635 70 q 388 -11 489 -11 z m 388 103 l 388 103 q 493 133 454 103 q 548 214 532 163 q 564 329 564 265 l 564 329 q 548 446 564 394 q 493 529 532 498 q 388 559 454 559 l 388 559 q 287 529 324 559 q 233 446 250 498 q 217 329 217 394 l 217 329 q 233 214 217 265 q 287 133 250 163 q 388 103 324 103 z m 390 754 l 390 754 q 257 802 305 754 q 201 933 209 850 l 201 933 l 283 933 q 321 860 290 880 q 390 840 353 840 l 390 840 q 463 861 429 840 q 503 933 497 882 l 503 933 l 578 933 q 523 802 571 850 q 390 754 475 754 z "},"Ő":{"ha":1021,"x_min":71,"x_max":949,"o":"m 511 -12 l 511 -12 q 269 46 367 -12 q 121 210 171 105 q 71 456 71 315 l 71 456 q 121 702 71 596 q 269 866 171 807 q 511 925 367 925 l 511 925 q 751 866 654 925 q 899 702 848 807 q 949 456 949 596 l 949 456 q 899 210 949 315 q 751 46 848 105 q 511 -12 654 -12 z m 511 117 l 511 117 q 671 163 610 117 q 760 286 732 209 q 789 456 789 363 l 789 456 q 760 627 789 550 q 671 750 732 704 q 511 795 610 795 l 511 795 q 349 750 411 795 q 260 627 288 704 q 232 456 232 550 l 232 456 q 260 286 232 363 q 349 163 288 209 q 511 117 411 117 z m 631 989 l 534 989 l 657 1174 l 789 1174 l 631 989 z m 424 989 l 329 989 l 450 1174 l 583 1174 l 424 989 z "},"ő":{"ha":781,"x_min":67,"x_max":714,"o":"m 388 -11 l 388 -11 q 217 30 290 -11 q 106 146 145 70 q 67 329 67 222 l 67 329 q 106 515 67 437 q 217 633 145 592 q 388 673 290 673 l 388 673 q 562 633 489 673 q 674 515 635 592 q 714 329 714 437 l 714 329 q 674 146 714 222 q 562 30 635 70 q 388 -11 489 -11 z m 388 103 l 388 103 q 493 133 454 103 q 548 214 532 163 q 564 329 564 265 l 564 329 q 548 446 564 394 q 493 529 532 498 q 388 559 454 559 l 388 559 q 287 529 324 559 q 233 446 250 498 q 217 329 217 394 l 217 329 q 233 214 217 265 q 287 133 250 163 q 388 103 324 103 z m 511 751 l 414 751 l 537 937 l 669 937 l 511 751 z m 304 751 l 209 751 l 330 937 l 463 937 l 304 751 z "},"Œ":{"ha":1461,"x_min":71,"x_max":1388,"o":"m 500 -12 l 500 -12 q 266 46 362 -12 q 120 210 170 105 q 71 456 71 315 l 71 456 q 120 702 71 597 q 266 866 170 808 q 500 925 362 925 l 500 925 q 680 890 606 925 q 799 793 753 856 q 864 644 844 730 q 885 456 885 558 l 885 456 q 864 268 885 353 q 799 120 844 182 q 680 22 753 57 q 500 -12 606 -12 z m 513 117 l 513 117 q 673 163 612 117 q 762 286 734 209 q 790 456 790 363 l 790 456 q 762 627 790 550 q 673 750 734 704 q 513 795 612 795 l 513 795 q 351 750 413 795 q 261 627 290 704 q 233 456 233 550 l 233 456 q 261 286 233 363 q 351 163 290 209 q 513 117 413 117 z m 1388 0 l 791 0 l 791 913 l 1388 913 l 1388 783 l 947 783 l 947 531 l 1350 531 l 1350 405 l 947 405 l 947 130 l 1388 130 l 1388 0 z "},"œ":{"ha":1249,"x_min":67,"x_max":1181,"o":"m 382 -12 l 382 -12 q 215 29 286 -12 q 106 145 144 69 q 67 328 67 221 l 67 328 q 106 513 67 436 q 217 631 145 590 q 388 671 290 671 l 388 671 q 557 630 491 671 q 655 511 623 588 q 688 328 688 434 l 688 328 q 654 146 688 222 q 553 29 621 70 q 382 -12 485 -12 z m 388 102 l 388 102 q 494 132 454 102 q 551 213 534 162 q 568 328 568 264 l 568 328 q 551 445 568 393 q 494 526 534 496 q 388 556 454 556 l 388 556 q 286 526 324 556 q 231 445 248 496 q 214 328 214 393 l 214 328 q 231 213 214 264 q 286 132 248 162 q 388 102 324 102 z m 890 -12 l 890 -12 q 716 31 784 -12 q 615 151 648 74 q 583 332 583 229 l 583 332 q 614 511 583 435 q 711 630 646 587 q 878 672 777 672 l 878 672 q 1100 588 1019 672 q 1181 348 1181 504 l 1181 348 q 1181 325 1181 338 q 1179 304 1180 311 l 1179 304 l 711 304 q 730 201 712 248 q 786 125 747 154 q 890 97 825 97 l 890 97 q 996 127 957 97 q 1036 216 1035 157 l 1036 216 l 1181 216 q 1142 92 1178 143 q 1041 14 1105 41 q 890 -12 977 -12 z m 712 403 l 712 403 l 1036 403 q 992 525 1034 483 q 878 566 949 566 l 878 566 q 761 524 804 566 q 712 403 718 481 z "},"Ŕ":{"ha":861,"x_min":115,"x_max":825,"o":"m 271 0 l 115 0 l 115 913 l 475 913 q 625 888 558 913 q 732 808 692 863 q 772 666 772 754 l 772 666 q 724 518 772 579 q 583 434 677 457 l 583 434 q 671 399 637 425 q 727 330 705 374 q 765 221 748 286 l 765 221 l 825 0 l 663 0 l 616 193 q 584 290 602 251 q 535 349 566 329 q 452 368 505 368 l 452 368 l 271 368 l 271 0 z m 271 783 l 271 497 l 451 497 q 535 514 498 497 q 592 563 571 531 q 613 641 613 595 l 613 641 q 572 746 613 709 q 458 783 531 783 l 458 783 l 271 783 z m 469 989 l 359 989 l 488 1174 l 650 1174 l 469 989 z "},"ŕ":{"ha":488,"x_min":102,"x_max":499,"o":"m 250 0 l 102 0 l 102 661 l 242 661 l 245 548 q 323 636 273 603 q 450 670 374 670 l 450 670 l 463 670 l 463 542 l 448 542 q 365 532 402 542 q 300 502 328 522 q 250 452 271 482 l 250 452 l 250 0 z m 311 751 l 200 751 l 336 937 l 498 937 l 311 751 z "},"Ŗ":{"ha":861,"x_min":115,"x_max":825,"o":"m 271 0 l 115 0 l 115 913 l 475 913 q 625 888 558 913 q 732 808 692 863 q 772 666 772 754 l 772 666 q 724 518 772 579 q 583 434 677 457 l 583 434 q 671 399 637 425 q 727 330 705 374 q 765 221 748 286 l 765 221 l 825 0 l 663 0 l 616 193 q 584 290 602 251 q 535 349 566 329 q 452 368 505 368 l 452 368 l 271 368 l 271 0 z m 271 783 l 271 497 l 451 497 q 535 514 498 497 q 592 563 571 531 q 613 641 613 595 l 613 641 q 572 746 613 709 q 458 783 531 783 l 458 783 l 271 783 z m 402 -270 l 402 -270 l 389 -222 q 437 -199 416 -214 q 465 -165 458 -184 l 465 -165 q 414 -145 432 -163 q 396 -101 396 -127 l 396 -101 q 415 -58 396 -76 q 471 -40 435 -40 l 471 -40 q 528 -61 506 -40 q 551 -121 551 -81 l 551 -121 q 507 -220 551 -180 q 402 -270 463 -260 z "},"ŗ":{"ha":488,"x_min":96,"x_max":463,"o":"m 250 0 l 102 0 l 102 661 l 242 661 l 245 548 q 323 636 273 603 q 450 670 374 670 l 450 670 l 463 670 l 463 542 l 448 542 q 365 532 402 542 q 300 502 328 522 q 250 452 271 482 l 250 452 l 250 0 z m 110 -270 l 110 -270 l 96 -222 q 145 -199 123 -214 q 173 -165 166 -184 l 173 -165 q 122 -145 140 -163 q 104 -101 104 -127 l 104 -101 q 123 -58 104 -76 q 178 -40 142 -40 l 178 -40 q 236 -61 214 -40 q 258 -121 258 -81 l 258 -121 q 215 -220 258 -180 q 110 -270 171 -260 z "},"Ř":{"ha":861,"x_min":115,"x_max":825,"o":"m 271 0 l 115 0 l 115 913 l 475 913 q 625 888 558 913 q 732 808 692 863 q 772 666 772 754 l 772 666 q 724 518 772 579 q 583 434 677 457 l 583 434 q 671 399 637 425 q 727 330 705 374 q 765 221 748 286 l 765 221 l 825 0 l 663 0 l 616 193 q 584 290 602 251 q 535 349 566 329 q 452 368 505 368 l 452 368 l 271 368 l 271 0 z m 271 783 l 271 497 l 451 497 q 535 514 498 497 q 592 563 571 531 q 613 641 613 595 l 613 641 q 572 746 613 709 q 458 783 531 783 l 458 783 l 271 783 z m 500 989 l 361 989 l 216 1175 l 330 1175 l 430 1066 l 530 1175 l 644 1175 l 500 989 z "},"ř":{"ha":488,"x_min":66,"x_max":494,"o":"m 250 0 l 102 0 l 102 661 l 242 661 l 245 548 q 323 636 273 603 q 450 670 374 670 l 450 670 l 463 670 l 463 542 l 448 542 q 365 532 402 542 q 300 502 328 522 q 250 452 271 482 l 250 452 l 250 0 z m 349 751 l 211 751 l 66 937 l 180 937 l 280 828 l 379 937 l 494 937 l 349 751 z "},"Ś":{"ha":808,"x_min":52,"x_max":758,"o":"m 410 -12 l 410 -12 q 228 18 309 -12 q 99 111 146 47 q 52 278 52 175 l 52 278 l 210 278 q 239 180 212 216 q 312 129 266 144 q 413 114 357 114 l 413 114 q 508 128 466 114 q 575 172 551 142 q 600 248 600 202 l 600 248 q 580 317 600 290 q 511 365 559 344 q 379 408 463 385 l 379 408 q 213 467 281 435 q 110 550 145 500 q 75 677 75 600 l 75 677 q 115 815 75 761 q 227 897 155 870 q 395 924 299 924 l 395 924 q 563 896 487 924 q 684 810 638 868 q 729 665 729 753 l 729 665 l 570 665 q 520 767 571 733 q 395 802 469 802 l 395 802 q 277 773 321 802 q 233 686 233 744 l 233 686 q 252 629 233 653 q 319 585 271 605 q 457 539 368 564 l 457 539 q 628 477 562 510 q 726 392 694 444 q 758 255 758 340 l 758 255 q 712 104 758 163 q 587 16 666 45 q 410 -12 509 -12 z m 444 989 l 333 989 l 462 1174 l 624 1174 l 444 989 z "},"ś":{"ha":696,"x_min":67,"x_max":628,"o":"m 353 -12 l 353 -12 q 246 -1 297 -12 q 154 36 195 10 q 91 104 114 62 q 67 210 67 147 l 67 210 l 205 210 q 249 117 205 143 q 354 90 292 90 l 354 90 q 448 111 412 90 q 483 180 483 132 l 483 180 q 447 243 483 222 q 321 285 411 264 l 321 285 q 194 327 248 303 q 111 390 140 351 q 82 490 82 429 l 82 490 q 103 572 82 537 q 161 629 125 606 q 245 662 198 651 q 346 673 293 673 l 346 673 q 444 662 397 673 q 529 625 492 650 q 588 559 566 600 q 610 460 610 519 l 610 460 l 472 460 q 435 545 472 520 q 346 570 397 570 l 346 570 q 259 552 292 570 q 227 495 227 534 l 227 495 q 244 457 227 473 q 299 428 261 441 q 402 399 338 414 l 402 399 q 522 359 471 383 q 601 296 573 335 q 628 195 628 257 l 628 195 q 606 100 628 139 q 546 36 584 60 q 458 -1 508 11 q 353 -12 408 -12 z m 381 751 l 271 751 l 406 937 l 569 937 l 381 751 z "},"Ŝ":{"ha":808,"x_min":52,"x_max":758,"o":"m 410 -12 l 410 -12 q 228 18 309 -12 q 99 111 146 47 q 52 278 52 175 l 52 278 l 210 278 q 239 180 212 216 q 312 129 266 144 q 413 114 357 114 l 413 114 q 508 128 466 114 q 575 172 551 142 q 600 248 600 202 l 600 248 q 580 317 600 290 q 511 365 559 344 q 379 408 463 385 l 379 408 q 213 467 281 435 q 110 550 145 500 q 75 677 75 600 l 75 677 q 115 815 75 761 q 227 897 155 870 q 395 924 299 924 l 395 924 q 563 896 487 924 q 684 810 638 868 q 729 665 729 753 l 729 665 l 570 665 q 520 767 571 733 q 395 802 469 802 l 395 802 q 277 773 321 802 q 233 686 233 744 l 233 686 q 252 629 233 653 q 319 585 271 605 q 457 539 368 564 l 457 539 q 628 477 562 510 q 726 392 694 444 q 758 255 758 340 l 758 255 q 712 104 758 163 q 587 16 666 45 q 410 -12 509 -12 z m 304 989 l 191 989 l 336 1175 l 474 1175 l 618 989 l 504 989 l 405 1097 l 304 989 z "},"ŝ":{"ha":696,"x_min":67,"x_max":628,"o":"m 353 -12 l 353 -12 q 246 -1 297 -12 q 154 36 195 10 q 91 104 114 62 q 67 210 67 147 l 67 210 l 205 210 q 249 117 205 143 q 354 90 292 90 l 354 90 q 448 111 412 90 q 483 180 483 132 l 483 180 q 447 243 483 222 q 321 285 411 264 l 321 285 q 194 327 248 303 q 111 390 140 351 q 82 490 82 429 l 82 490 q 103 572 82 537 q 161 629 125 606 q 245 662 198 651 q 346 673 293 673 l 346 673 q 444 662 397 673 q 529 625 492 650 q 588 559 566 600 q 610 460 610 519 l 610 460 l 472 460 q 435 545 472 520 q 346 570 397 570 l 346 570 q 259 552 292 570 q 227 495 227 534 l 227 495 q 244 457 227 473 q 299 428 261 441 q 402 399 338 414 l 402 399 q 522 359 471 383 q 601 296 573 335 q 628 195 628 257 l 628 195 q 606 100 628 139 q 546 36 584 60 q 458 -1 508 11 q 353 -12 408 -12 z m 252 751 l 138 751 l 282 937 l 420 937 l 566 751 l 451 751 l 351 860 l 252 751 z "},"Ş":{"ha":808,"x_min":52,"x_max":758,"o":"m 410 -12 l 410 -12 q 228 18 309 -12 q 99 111 146 47 q 52 278 52 175 l 52 278 l 210 278 q 239 180 212 216 q 312 129 266 144 q 413 114 357 114 l 413 114 q 508 128 466 114 q 575 172 551 142 q 600 248 600 202 l 600 248 q 580 317 600 290 q 511 365 559 344 q 379 408 463 385 l 379 408 q 213 467 281 435 q 110 550 145 500 q 75 677 75 600 l 75 677 q 115 815 75 761 q 227 897 155 870 q 395 924 299 924 l 395 924 q 563 896 487 924 q 684 810 638 868 q 729 665 729 753 l 729 665 l 570 665 q 520 767 571 733 q 395 802 469 802 l 395 802 q 277 773 321 802 q 233 686 233 744 l 233 686 q 252 629 233 653 q 319 585 271 605 q 457 539 368 564 l 457 539 q 628 477 562 510 q 726 392 694 444 q 758 255 758 340 l 758 255 q 712 104 758 163 q 587 16 666 45 q 410 -12 509 -12 z m 415 -258 l 415 -258 q 341 -251 372 -258 q 282 -233 310 -244 l 282 -233 l 303 -163 q 352 -178 324 -172 q 409 -184 380 -184 l 409 -184 q 450 -173 434 -184 q 466 -141 466 -161 l 466 -141 q 445 -109 466 -120 q 370 -91 425 -98 l 370 -91 l 340 -87 l 431 32 l 493 7 l 449 -50 l 422 -37 q 524 -66 486 -39 q 562 -143 562 -92 l 562 -143 q 542 -208 562 -182 q 489 -245 522 -233 q 415 -258 456 -258 z "},"ş":{"ha":696,"x_min":67,"x_max":628,"o":"m 353 -12 l 353 -12 q 246 -1 297 -12 q 154 36 195 10 q 91 104 114 62 q 67 210 67 147 l 67 210 l 205 210 q 249 117 205 143 q 354 90 292 90 l 354 90 q 448 111 412 90 q 483 180 483 132 l 483 180 q 447 243 483 222 q 321 285 411 264 l 321 285 q 194 327 248 303 q 111 390 140 351 q 82 490 82 429 l 82 490 q 103 572 82 537 q 161 629 125 606 q 245 662 198 651 q 346 673 293 673 l 346 673 q 444 662 397 673 q 529 625 492 650 q 588 559 566 600 q 610 460 610 519 l 610 460 l 472 460 q 435 545 472 520 q 346 570 397 570 l 346 570 q 259 552 292 570 q 227 495 227 534 l 227 495 q 244 457 227 473 q 299 428 261 441 q 402 399 338 414 l 402 399 q 522 359 471 383 q 601 296 573 335 q 628 195 628 257 l 628 195 q 606 100 628 139 q 546 36 584 60 q 458 -1 508 11 q 353 -12 408 -12 z m 341 -258 l 341 -258 q 267 -251 298 -258 q 208 -233 236 -244 l 208 -233 l 229 -163 q 278 -178 250 -172 q 335 -184 307 -184 l 335 -184 q 376 -173 360 -184 q 392 -141 392 -161 l 392 -141 q 371 -109 392 -120 q 296 -91 351 -98 l 296 -91 l 266 -87 l 357 32 l 419 7 l 375 -50 l 348 -37 q 450 -66 412 -39 q 488 -143 488 -92 l 488 -143 q 468 -208 488 -182 q 415 -245 448 -233 q 341 -258 382 -258 z "},"Š":{"ha":808,"x_min":52,"x_max":758,"o":"m 410 -12 l 410 -12 q 228 18 309 -12 q 99 111 146 47 q 52 278 52 175 l 52 278 l 210 278 q 239 180 212 216 q 312 129 266 144 q 413 114 357 114 l 413 114 q 508 128 466 114 q 575 172 551 142 q 600 248 600 202 l 600 248 q 580 317 600 290 q 511 365 559 344 q 379 408 463 385 l 379 408 q 213 467 281 435 q 110 550 145 500 q 75 677 75 600 l 75 677 q 115 815 75 761 q 227 897 155 870 q 395 924 299 924 l 395 924 q 563 896 487 924 q 684 810 638 868 q 729 665 729 753 l 729 665 l 570 665 q 520 767 571 733 q 395 802 469 802 l 395 802 q 277 773 321 802 q 233 686 233 744 l 233 686 q 252 629 233 653 q 319 585 271 605 q 457 539 368 564 l 457 539 q 628 477 562 510 q 726 392 694 444 q 758 255 758 340 l 758 255 q 712 104 758 163 q 587 16 666 45 q 410 -12 509 -12 z m 474 989 l 336 989 l 191 1175 l 304 1175 l 404 1066 l 504 1175 l 618 1175 l 474 989 z "},"š":{"ha":696,"x_min":67,"x_max":628,"o":"m 353 -12 l 353 -12 q 246 -1 297 -12 q 154 36 195 10 q 91 104 114 62 q 67 210 67 147 l 67 210 l 205 210 q 249 117 205 143 q 354 90 292 90 l 354 90 q 448 111 412 90 q 483 180 483 132 l 483 180 q 447 243 483 222 q 321 285 411 264 l 321 285 q 194 327 248 303 q 111 390 140 351 q 82 490 82 429 l 82 490 q 103 572 82 537 q 161 629 125 606 q 245 662 198 651 q 346 673 293 673 l 346 673 q 444 662 397 673 q 529 625 492 650 q 588 559 566 600 q 610 460 610 519 l 610 460 l 472 460 q 435 545 472 520 q 346 570 397 570 l 346 570 q 259 552 292 570 q 227 495 227 534 l 227 495 q 244 457 227 473 q 299 428 261 441 q 402 399 338 414 l 402 399 q 522 359 471 383 q 601 296 573 335 q 628 195 628 257 l 628 195 q 606 100 628 139 q 546 36 584 60 q 458 -1 508 11 q 353 -12 408 -12 z m 420 751 l 281 751 l 136 937 l 250 937 l 351 828 l 450 937 l 564 937 l 420 751 z "},"Ţ":{"ha":683,"x_min":12,"x_max":671,"o":"m 420 0 l 264 0 l 264 782 l 12 782 l 12 913 l 671 913 l 671 782 l 420 782 l 420 0 z m 321 -258 l 321 -258 q 247 -251 278 -258 q 189 -233 216 -244 l 189 -233 l 210 -163 q 259 -178 231 -172 q 315 -184 287 -184 l 315 -184 q 356 -173 340 -184 q 372 -141 372 -161 l 372 -141 q 352 -109 372 -120 q 276 -91 331 -98 l 276 -91 l 246 -87 l 338 32 l 399 7 l 355 -50 l 328 -37 q 430 -66 392 -39 q 468 -143 468 -92 l 468 -143 q 448 -208 468 -182 q 395 -245 429 -233 q 321 -258 362 -258 z "},"ţ":{"ha":471,"x_min":18,"x_max":429,"o":"m 429 0 l 354 0 q 215 25 264 0 q 148 99 166 50 q 129 222 129 148 l 129 222 l 129 546 l 18 546 l 18 661 l 129 661 l 129 815 l 275 815 l 275 661 l 429 661 l 429 546 l 275 546 l 275 231 q 290 144 275 174 q 361 115 305 115 l 361 115 l 429 115 l 429 0 z m 236 -258 l 236 -258 q 162 -251 193 -258 q 103 -233 131 -244 l 103 -233 l 124 -163 q 173 -178 145 -172 q 230 -184 201 -184 l 230 -184 q 271 -173 255 -184 q 287 -141 287 -161 l 287 -141 q 266 -109 287 -120 q 191 -91 245 -98 l 191 -91 l 161 -87 l 252 32 l 314 7 l 270 -50 l 243 -37 q 345 -66 307 -39 q 382 -143 382 -92 l 382 -143 q 363 -208 382 -182 q 310 -245 343 -233 q 236 -258 277 -258 z "},"Ť":{"ha":683,"x_min":12,"x_max":671,"o":"m 420 0 l 264 0 l 264 782 l 12 782 l 12 913 l 671 913 l 671 782 l 420 782 l 420 0 z m 412 989 l 273 989 l 128 1175 l 242 1175 l 342 1066 l 441 1175 l 556 1175 l 412 989 z "},"ť":{"ha":471,"x_min":18,"x_max":524,"o":"m 429 0 l 354 0 q 215 25 264 0 q 148 99 166 50 q 129 222 129 148 l 129 222 l 129 546 l 18 546 l 18 661 l 129 661 l 129 815 l 275 815 l 275 661 l 429 661 l 429 546 l 275 546 l 275 231 q 290 144 275 174 q 361 115 305 115 l 361 115 l 429 115 l 429 0 z m 432 721 l 338 721 l 382 937 l 524 937 l 432 721 z "},"Ŧ":{"ha":683,"x_min":12,"x_max":671,"o":"m 568 377 l 116 377 l 116 500 l 568 500 l 568 377 z m 420 0 l 264 0 l 264 782 l 12 782 l 12 913 l 671 913 l 671 782 l 420 782 l 420 0 z "},"ŧ":{"ha":471,"x_min":18,"x_max":429,"o":"m 429 305 l 18 305 l 18 390 l 429 390 l 429 305 z m 429 0 l 354 0 q 215 25 264 0 q 148 99 166 50 q 129 222 129 148 l 129 222 l 129 546 l 18 546 l 18 661 l 129 661 l 129 815 l 275 815 l 275 661 l 429 661 l 429 546 l 275 546 l 275 231 q 290 144 275 174 q 361 115 305 115 l 361 115 l 429 115 l 429 0 z "},"Ũ":{"ha":956,"x_min":103,"x_max":854,"o":"m 478 -12 l 478 -12 q 263 32 347 -12 q 142 158 180 76 q 103 351 103 239 l 103 351 l 103 913 l 262 913 l 262 361 q 316 176 262 233 q 479 118 370 118 l 479 118 q 641 176 587 118 q 694 361 694 233 l 694 361 l 694 913 l 854 913 l 854 351 q 815 158 854 239 q 693 32 776 76 q 478 -12 610 -12 z m 351 999 l 270 999 q 306 1108 277 1069 q 390 1147 336 1147 l 390 1147 q 447 1137 420 1147 q 500 1117 475 1128 l 500 1117 q 539 1101 522 1107 q 572 1095 557 1095 l 572 1095 q 596 1108 587 1095 q 608 1149 605 1120 l 608 1149 l 688 1149 q 655 1044 681 1081 q 576 1006 629 1006 l 576 1006 q 517 1016 545 1006 q 466 1034 490 1025 l 466 1034 q 425 1051 442 1044 q 391 1057 407 1057 l 391 1057 q 364 1043 374 1057 q 351 999 354 1029 l 351 999 z "},"ũ":{"ha":791,"x_min":96,"x_max":689,"o":"m 310 -9 l 310 -9 q 149 54 202 -9 q 96 230 96 117 l 96 230 l 96 661 l 243 661 l 243 248 q 253 178 243 209 q 289 131 263 148 q 360 113 315 113 l 360 113 q 468 141 424 113 q 543 206 513 168 l 543 206 l 543 661 l 689 661 l 689 0 l 547 0 l 545 101 q 454 25 512 60 q 310 -9 397 -9 z m 264 764 l 184 764 q 220 873 191 834 q 304 912 250 912 l 304 912 q 361 903 334 912 q 414 882 389 893 l 414 882 q 453 867 435 873 q 486 861 471 861 l 486 861 q 510 873 501 861 q 522 914 519 886 l 522 914 l 602 914 q 569 809 595 846 q 490 772 543 772 l 490 772 q 431 781 458 772 q 380 800 404 790 l 380 800 q 338 816 356 810 q 305 823 321 823 l 305 823 q 278 809 288 823 q 264 764 268 795 l 264 764 z "},"Ū":{"ha":956,"x_min":103,"x_max":854,"o":"m 478 -12 l 478 -12 q 263 32 347 -12 q 142 158 180 76 q 103 351 103 239 l 103 351 l 103 913 l 262 913 l 262 361 q 316 176 262 233 q 479 118 370 118 l 479 118 q 641 176 587 118 q 694 361 694 233 l 694 361 l 694 913 l 854 913 l 854 351 q 815 158 854 239 q 693 32 776 76 q 478 -12 610 -12 z m 667 1024 l 291 1024 l 291 1120 l 667 1120 l 667 1024 z "},"ū":{"ha":791,"x_min":96,"x_max":689,"o":"m 310 -9 l 310 -9 q 149 54 202 -9 q 96 230 96 117 l 96 230 l 96 661 l 243 661 l 243 248 q 253 178 243 209 q 289 131 263 148 q 360 113 315 113 l 360 113 q 468 141 424 113 q 543 206 513 168 l 543 206 l 543 661 l 689 661 l 689 0 l 547 0 l 545 101 q 454 25 512 60 q 310 -9 397 -9 z m 581 789 l 205 789 l 205 886 l 581 886 l 581 789 z "},"Ŭ":{"ha":956,"x_min":103,"x_max":854,"o":"m 478 -12 l 478 -12 q 263 32 347 -12 q 142 158 180 76 q 103 351 103 239 l 103 351 l 103 913 l 262 913 l 262 361 q 316 176 262 233 q 479 118 370 118 l 479 118 q 641 176 587 118 q 694 361 694 233 l 694 361 l 694 913 l 854 913 l 854 351 q 815 158 854 239 q 693 32 776 76 q 478 -12 610 -12 z m 477 996 l 477 996 q 375 1018 420 996 q 305 1079 331 1039 q 277 1174 279 1119 l 277 1174 l 361 1174 q 382 1118 364 1139 q 426 1087 400 1097 q 477 1078 451 1078 l 477 1078 q 530 1088 505 1078 q 574 1119 555 1097 q 597 1174 592 1140 l 597 1174 l 681 1174 q 651 1080 677 1120 q 580 1018 624 1040 q 477 996 536 996 z "},"ŭ":{"ha":791,"x_min":96,"x_max":689,"o":"m 310 -9 l 310 -9 q 149 54 202 -9 q 96 230 96 117 l 96 230 l 96 661 l 243 661 l 243 248 q 253 178 243 209 q 289 131 263 148 q 360 113 315 113 l 360 113 q 468 141 424 113 q 543 206 513 168 l 543 206 l 543 661 l 689 661 l 689 0 l 547 0 l 545 101 q 454 25 512 60 q 310 -9 397 -9 z m 392 754 l 392 754 q 259 802 307 754 q 203 933 211 850 l 203 933 l 286 933 q 323 860 292 880 q 392 840 355 840 l 392 840 q 465 861 431 840 q 505 933 499 882 l 505 933 l 581 933 q 525 802 573 850 q 392 754 477 754 z "},"Ů":{"ha":956,"x_min":103,"x_max":854,"o":"m 478 -12 l 478 -12 q 263 32 347 -12 q 142 158 180 76 q 103 351 103 239 l 103 351 l 103 913 l 262 913 l 262 361 q 316 176 262 233 q 479 118 370 118 l 479 118 q 641 176 587 118 q 694 361 694 233 l 694 361 l 694 913 l 854 913 l 854 351 q 815 158 854 239 q 693 32 776 76 q 478 -12 610 -12 z m 479 935 l 479 935 q 376 972 416 935 q 336 1073 336 1010 l 336 1073 q 376 1172 336 1134 q 479 1209 416 1209 l 479 1209 q 582 1172 541 1209 q 622 1073 622 1134 l 622 1073 q 582 972 622 1010 q 479 935 541 935 z m 479 1006 l 479 1006 q 526 1025 508 1006 q 544 1073 544 1044 l 544 1073 q 526 1121 544 1102 q 479 1139 508 1139 l 479 1139 q 432 1121 450 1139 q 414 1073 414 1102 l 414 1073 q 432 1025 414 1044 q 479 1006 450 1006 z "},"ů":{"ha":791,"x_min":96,"x_max":689,"o":"m 310 -9 l 310 -9 q 149 54 202 -9 q 96 230 96 117 l 96 230 l 96 661 l 243 661 l 243 248 q 253 178 243 209 q 289 131 263 148 q 360 113 315 113 l 360 113 q 468 141 424 113 q 543 206 513 168 l 543 206 l 543 661 l 689 661 l 689 0 l 547 0 l 545 101 q 454 25 512 60 q 310 -9 397 -9 z m 393 732 l 393 732 q 290 769 330 732 q 250 869 250 807 l 250 869 q 290 968 250 930 q 393 1006 330 1006 l 393 1006 q 495 968 455 1006 q 536 869 536 930 l 536 869 q 495 769 536 807 q 393 732 455 732 z m 393 802 l 393 802 q 440 821 422 802 q 458 869 458 840 l 458 869 q 440 917 458 899 q 393 936 422 936 l 393 936 q 346 917 364 936 q 328 869 328 899 l 328 869 q 346 821 328 840 q 393 802 364 802 z "},"Ű":{"ha":956,"x_min":103,"x_max":854,"o":"m 478 -12 l 478 -12 q 263 32 347 -12 q 142 158 180 76 q 103 351 103 239 l 103 351 l 103 913 l 262 913 l 262 361 q 316 176 262 233 q 479 118 370 118 l 479 118 q 641 176 587 118 q 694 361 694 233 l 694 361 l 694 913 l 854 913 l 854 351 q 815 158 854 239 q 693 32 776 76 q 478 -12 610 -12 z m 599 989 l 503 989 l 625 1174 l 758 1174 l 599 989 z m 392 989 l 297 989 l 418 1174 l 551 1174 l 392 989 z "},"ű":{"ha":791,"x_min":96,"x_max":689,"o":"m 310 -9 l 310 -9 q 149 54 202 -9 q 96 230 96 117 l 96 230 l 96 661 l 243 661 l 243 248 q 253 178 243 209 q 289 131 263 148 q 360 113 315 113 l 360 113 q 468 141 424 113 q 543 206 513 168 l 543 206 l 543 661 l 689 661 l 689 0 l 547 0 l 545 101 q 454 25 512 60 q 310 -9 397 -9 z m 513 751 l 416 751 l 539 937 l 671 937 l 513 751 z m 306 751 l 211 751 l 332 937 l 465 937 l 306 751 z "},"Ų":{"ha":956,"x_min":103,"x_max":854,"o":"m 478 -12 l 478 -12 q 263 32 347 -12 q 142 158 180 76 q 103 351 103 239 l 103 351 l 103 913 l 262 913 l 262 361 q 316 176 262 233 q 479 118 370 118 l 479 118 q 641 176 587 118 q 694 361 694 233 l 694 361 l 694 913 l 854 913 l 854 351 q 815 158 854 239 q 693 32 776 76 q 478 -12 610 -12 z m 573 -253 l 573 -253 q 479 -223 517 -253 q 441 -139 441 -193 l 441 -139 q 462 -71 441 -104 q 519 -12 483 -37 q 601 24 556 14 l 601 24 l 654 9 q 577 -56 600 -22 q 554 -115 554 -89 l 554 -115 q 566 -148 554 -136 q 600 -159 578 -159 l 600 -159 q 643 -154 622 -159 q 686 -138 663 -148 l 686 -138 l 686 -227 q 639 -246 665 -239 q 573 -253 614 -253 z "},"ų":{"ha":791,"x_min":96,"x_max":689,"o":"m 310 -9 l 310 -9 q 149 54 202 -9 q 96 230 96 117 l 96 230 l 96 661 l 243 661 l 243 248 q 253 178 243 209 q 289 131 263 148 q 360 113 315 113 l 360 113 q 468 141 424 113 q 543 206 513 168 l 543 206 l 543 661 l 689 661 l 689 0 l 547 0 l 545 101 q 454 25 512 60 q 310 -9 397 -9 z m 571 -253 l 571 -253 q 477 -223 515 -253 q 439 -139 439 -193 l 439 -139 q 460 -71 439 -104 q 517 -12 481 -37 q 599 24 554 14 l 599 24 l 652 9 q 575 -56 597 -22 q 552 -115 552 -89 l 552 -115 q 564 -148 552 -136 q 598 -159 576 -159 l 598 -159 q 641 -154 620 -159 q 684 -138 661 -148 l 684 -138 l 684 -227 q 637 -246 663 -239 q 571 -253 612 -253 z "},"Ŵ":{"ha":1273,"x_min":3,"x_max":1270,"o":"m 436 0 l 272 0 l 3 913 l 165 913 l 355 189 l 556 913 l 720 913 l 920 189 l 1111 913 l 1270 913 l 1000 0 l 837 0 l 635 727 l 436 0 z m 538 989 l 424 989 l 569 1175 l 707 1175 l 852 989 l 737 989 l 638 1097 l 538 989 z "},"ŵ":{"ha":1029,"x_min":5,"x_max":1024,"o":"m 367 0 l 215 0 l 5 661 l 155 661 l 297 161 l 440 661 l 597 661 l 743 161 l 883 661 l 1024 661 l 814 0 l 663 0 l 515 507 l 367 0 z m 420 751 l 306 751 l 450 937 l 589 937 l 734 751 l 619 751 l 519 860 l 420 751 z "},"Ŷ":{"ha":781,"x_min":0,"x_max":781,"o":"m 470 0 l 311 0 l 311 352 l 0 913 l 173 913 l 391 494 l 608 913 l 781 913 l 470 352 l 470 0 z m 291 989 l 177 989 l 322 1175 l 460 1175 l 605 989 l 490 989 l 391 1097 l 291 989 z "},"ŷ":{"ha":656,"x_min":0,"x_max":656,"o":"m 149 -243 l 74 -243 l 74 -123 l 132 -123 q 198 -105 172 -123 q 241 -48 224 -88 l 241 -48 l 260 0 l 0 661 l 153 661 l 339 146 l 508 661 l 656 661 l 414 0 l 386 -73 q 332 -175 361 -138 q 258 -227 302 -212 q 149 -243 214 -243 l 149 -243 z m 232 751 l 118 751 l 262 937 l 401 937 l 546 751 l 431 751 l 332 860 l 232 751 z "},"Ÿ":{"ha":781,"x_min":0,"x_max":781,"o":"m 470 0 l 311 0 l 311 352 l 0 913 l 173 913 l 391 494 l 608 913 l 781 913 l 470 352 l 470 0 z m 516 1008 l 516 1008 q 465 1027 486 1008 q 444 1078 444 1047 l 444 1078 q 465 1129 444 1109 q 516 1149 486 1149 l 516 1149 q 568 1129 547 1149 q 589 1078 589 1109 l 589 1078 q 568 1027 589 1047 q 516 1008 547 1008 z m 267 1008 l 267 1008 q 215 1027 236 1008 q 194 1078 194 1047 l 194 1078 q 215 1129 194 1109 q 267 1149 236 1149 l 267 1149 q 318 1129 297 1149 q 339 1078 339 1109 l 339 1078 q 318 1027 339 1047 q 267 1008 297 1008 z "},"Ź":{"ha":739,"x_min":30,"x_max":709,"o":"m 709 0 l 30 0 l 30 123 l 490 782 l 62 782 l 62 913 l 680 913 l 680 795 l 215 131 l 709 131 l 709 0 z m 410 989 l 300 989 l 429 1174 l 591 1174 l 410 989 z "},"ź":{"ha":627,"x_min":48,"x_max":580,"o":"m 580 0 l 48 0 l 48 109 l 385 546 l 76 546 l 76 661 l 559 661 l 559 558 l 220 115 l 580 115 l 580 0 z m 348 751 l 237 751 l 373 937 l 536 937 l 348 751 z "},"Ż":{"ha":739,"x_min":30,"x_max":709,"o":"m 709 0 l 30 0 l 30 123 l 490 782 l 62 782 l 62 913 l 680 913 l 680 795 l 215 131 l 709 131 l 709 0 z m 372 1002 l 372 1002 q 308 1023 331 1002 q 286 1078 286 1045 l 286 1078 q 308 1133 286 1112 q 372 1155 331 1155 l 372 1155 q 435 1133 412 1155 q 458 1078 458 1112 l 458 1078 q 435 1023 458 1045 q 372 1002 412 1002 z "},"ż":{"ha":627,"x_min":48,"x_max":580,"o":"m 580 0 l 48 0 l 48 109 l 385 546 l 76 546 l 76 661 l 559 661 l 559 558 l 220 115 l 580 115 l 580 0 z m 317 767 l 317 767 q 254 789 277 767 q 231 843 231 810 l 231 843 q 254 899 231 877 q 317 920 277 920 l 317 920 q 381 899 358 920 q 404 843 404 877 l 404 843 q 381 789 404 810 q 317 767 358 767 z "},"Ž":{"ha":739,"x_min":30,"x_max":709,"o":"m 709 0 l 30 0 l 30 123 l 490 782 l 62 782 l 62 913 l 680 913 l 680 795 l 215 131 l 709 131 l 709 0 z m 441 989 l 302 989 l 157 1175 l 271 1175 l 371 1066 l 471 1175 l 585 1175 l 441 989 z "},"ž":{"ha":627,"x_min":48,"x_max":580,"o":"m 580 0 l 48 0 l 48 109 l 385 546 l 76 546 l 76 661 l 559 661 l 559 558 l 220 115 l 580 115 l 580 0 z m 387 751 l 248 751 l 103 937 l 217 937 l 317 828 l 416 937 l 531 937 l 387 751 z "},"ſ":{"ha":401,"x_min":18,"x_max":422,"o":"m 275 0 l 129 0 l 129 545 l 18 545 l 18 661 l 129 661 l 129 690 q 147 814 129 764 q 214 888 165 863 q 354 913 263 913 l 354 913 l 422 913 l 422 803 l 361 803 q 290 775 305 803 q 275 690 275 747 l 275 690 l 275 0 z "},"Ɓ":{"ha":999,"x_min":12,"x_max":939,"o":"m 598 0 l 264 0 l 264 785 q 173 758 203 784 q 142 674 142 731 l 142 674 l 142 630 l 12 630 l 12 690 q 81 860 12 808 q 264 913 150 913 l 264 913 l 566 913 q 793 857 709 913 q 878 686 878 802 l 878 686 q 839 561 878 614 q 737 488 801 507 l 737 488 q 885 411 832 471 q 939 265 939 352 l 939 265 q 899 119 939 178 q 784 30 860 60 q 598 0 708 0 l 598 0 z m 420 412 l 420 130 l 593 130 q 688 143 645 130 q 756 188 730 156 q 781 277 781 220 l 781 277 q 730 379 781 347 q 593 412 679 412 l 593 412 l 420 412 z m 420 785 l 420 534 l 564 534 q 678 568 635 534 q 720 665 720 603 l 720 665 q 701 734 720 707 q 647 773 682 760 q 564 785 612 785 l 564 785 l 420 785 z "},"Ɔ":{"ha":972,"x_min":66,"x_max":901,"o":"m 461 -12 l 461 -12 q 265 25 351 -12 q 127 137 179 62 q 66 320 76 211 l 66 320 l 226 320 q 297 169 235 221 q 461 117 359 117 l 461 117 q 623 163 562 117 q 712 287 684 210 q 740 456 740 363 l 740 456 q 712 626 740 549 q 623 749 684 703 q 461 795 562 795 l 461 795 q 353 775 403 795 q 269 715 302 755 q 228 612 236 675 l 228 612 l 69 612 q 132 786 77 717 q 275 890 188 856 q 461 925 361 925 l 461 925 q 700 866 602 925 q 850 702 798 807 q 901 456 901 596 l 901 456 q 850 210 901 315 q 700 46 798 105 q 461 -12 602 -12 z "},"Ɖ":{"ha":967,"x_min":0,"x_max":896,"o":"m 496 399 l 0 399 l 0 525 l 496 525 l 496 399 z m 438 0 l 115 0 l 115 913 l 438 913 q 685 859 583 913 q 842 703 787 805 q 896 458 896 601 l 896 458 q 841 209 896 311 q 684 54 787 107 q 438 0 582 0 l 438 0 z m 271 782 l 271 131 l 414 131 q 594 166 523 131 q 700 275 665 202 q 735 458 735 347 l 735 458 q 699 639 735 567 q 590 746 662 711 q 414 782 519 782 l 414 782 l 271 782 z "},"Ɗ":{"ha":1116,"x_min":12,"x_max":1045,"o":"m 587 0 l 264 0 l 264 785 q 173 758 203 784 q 142 674 142 731 l 142 674 l 142 630 l 12 630 l 12 690 q 81 860 12 808 q 264 913 150 913 l 264 913 l 587 913 q 834 859 732 913 q 991 703 937 805 q 1045 458 1045 601 l 1045 458 q 990 209 1045 311 q 833 54 936 107 q 587 0 731 0 l 587 0 z m 420 782 l 420 131 l 564 131 q 805 211 726 131 q 884 458 884 292 l 884 458 q 802 701 884 621 q 564 782 720 782 l 564 782 l 420 782 z "},"Ǝ":{"ha":785,"x_min":73,"x_max":670,"o":"m 670 0 l 73 0 l 73 130 l 514 130 l 514 405 l 111 405 l 111 531 l 514 531 l 514 783 l 73 783 l 73 913 l 670 913 l 670 0 z "},"Ə":{"ha":1000,"x_min":71,"x_max":929,"o":"m 501 -12 l 501 -12 q 331 14 408 -12 q 196 99 253 41 q 106 252 138 157 q 71 481 73 346 l 71 481 l 243 369 q 285 222 249 277 q 378 142 321 167 q 501 117 435 117 l 501 117 q 655 161 596 117 q 741 281 713 205 q 768 457 768 358 l 768 457 q 741 632 768 556 q 655 751 714 708 q 501 795 597 795 l 501 795 q 317 749 385 795 q 236 612 250 703 l 236 612 l 77 612 q 147 785 90 715 q 296 890 204 854 q 506 925 388 925 l 506 925 q 737 867 643 925 q 880 704 831 809 q 929 457 929 599 l 929 457 q 879 211 929 317 q 734 47 829 106 q 501 -12 638 -12 z m 836 359 l 139 359 l 71 481 l 836 481 l 836 359 z "},"Ɛ":{"ha":804,"x_min":60,"x_max":751,"o":"m 406 -12 l 406 -12 q 224 20 302 -12 q 103 113 146 52 q 60 264 60 174 l 60 264 q 118 413 60 356 q 263 486 176 469 l 263 486 q 134 557 182 506 q 85 689 85 609 l 85 689 q 128 822 85 770 q 244 900 172 874 q 401 926 316 926 l 401 926 q 570 895 496 926 q 685 804 643 864 q 726 656 726 744 l 726 656 l 574 656 q 530 762 575 722 q 401 801 484 801 l 401 801 q 281 770 326 801 q 237 676 237 739 l 237 676 q 282 577 237 614 q 406 541 327 541 l 406 541 l 487 541 l 487 417 l 410 417 q 273 382 325 417 q 221 272 221 347 l 221 272 q 270 152 221 190 q 407 113 318 113 l 407 113 q 548 158 498 113 q 598 279 598 202 l 598 279 l 751 279 q 710 118 751 182 q 591 21 668 54 q 406 -12 513 -12 z "},"Ƒ":{"ha":736,"x_min":5,"x_max":697,"o":"m 48 -243 l 5 -243 l 5 -110 l 36 -110 q 97 -83 80 -110 q 115 -7 115 -56 l 115 -7 l 115 913 l 697 913 l 697 783 l 271 783 l 271 530 l 654 530 l 654 405 l 271 405 l 271 -8 q 218 -185 271 -128 q 48 -243 165 -243 l 48 -243 z "},"ƒ":{"ha":442,"x_min":0,"x_max":422,"o":"m 54 -243 l 0 -243 l 0 -125 l 35 -125 q 105 -104 81 -125 q 128 -31 128 -83 l 128 -31 l 129 546 l 18 546 l 18 661 l 129 661 l 129 690 q 147 814 129 764 q 214 888 165 863 q 354 913 263 913 l 354 913 l 422 913 l 422 803 l 361 803 q 290 775 305 803 q 275 690 275 747 l 275 690 l 275 661 l 422 661 l 422 546 l 275 546 l 274 -33 q 222 -189 274 -134 q 54 -243 170 -243 l 54 -243 z "},"Ɣ":{"ha":761,"x_min":3,"x_max":758,"o":"m 382 -11 l 382 -11 q 277 11 320 -11 q 213 72 235 33 q 191 164 191 111 l 191 164 q 208 259 191 213 q 258 359 225 306 q 335 481 290 412 l 335 481 l 361 522 l 370 526 l 585 913 l 758 913 l 423 372 q 381 301 403 338 q 346 230 360 264 q 331 166 331 195 l 331 166 q 344 117 331 136 q 382 99 357 99 l 382 99 q 418 118 404 99 q 432 168 432 136 l 432 168 q 404 262 432 209 q 340 373 375 316 l 340 373 l 3 913 l 181 913 l 393 528 l 405 520 l 431 479 q 508 356 476 410 q 556 257 540 302 q 572 164 572 211 l 572 164 q 550 73 572 112 q 486 11 528 33 q 382 -11 444 -11 z "},"Ƙ":{"ha":827,"x_min":115,"x_max":824,"o":"m 271 0 l 115 0 l 115 913 l 271 913 l 271 475 l 436 483 l 824 0 l 644 0 l 271 468 l 271 0 z m 754 913 l 791 913 l 791 779 l 766 779 q 698 769 728 779 q 637 731 668 758 q 568 654 607 704 l 568 654 l 436 483 l 271 475 l 454 720 q 550 832 507 790 q 640 894 593 875 q 754 913 688 913 l 754 913 z "},"ƙ":{"ha":709,"x_min":102,"x_max":715,"o":"m 250 0 l 102 0 l 102 692 l 250 698 l 250 353 l 528 661 l 692 661 l 410 355 l 715 0 l 546 0 l 250 347 l 250 0 z m 250 698 l 102 692 q 151 856 102 800 q 304 913 199 913 l 304 913 l 372 913 l 372 795 l 337 795 q 271 772 293 795 q 250 698 248 749 l 250 698 z "},"Ơ":{"ha":1088,"x_min":71,"x_max":1114,"o":"m 900 663 l 900 663 l 876 726 q 964 772 930 745 q 1003 842 998 800 l 1003 842 l 1011 836 q 946 861 971 836 q 921 921 921 885 l 921 921 q 947 984 921 960 q 1015 1008 972 1008 l 1015 1008 q 1086 980 1059 1008 q 1114 895 1114 951 l 1114 895 q 1097 810 1114 848 q 1049 742 1080 771 q 981 693 1019 713 q 900 663 942 673 z m 511 -12 l 511 -12 q 269 46 367 -12 q 121 210 171 105 q 71 456 71 315 l 71 456 q 121 702 71 596 q 269 866 171 807 q 511 925 367 925 l 511 925 q 751 866 654 925 q 899 702 848 807 q 949 456 949 596 l 949 456 q 899 210 949 315 q 751 46 848 105 q 511 -12 654 -12 z m 511 117 l 511 117 q 671 163 610 117 q 760 286 732 209 q 789 456 789 363 l 789 456 q 760 627 789 550 q 671 750 732 704 q 511 795 610 795 l 511 795 q 349 750 411 795 q 260 627 288 704 q 232 456 232 550 l 232 456 q 260 286 232 363 q 349 163 288 209 q 511 117 411 117 z "},"ơ":{"ha":805,"x_min":67,"x_max":836,"o":"m 635 475 l 635 475 l 612 539 q 695 585 663 557 q 732 655 726 613 l 732 655 l 740 648 q 675 673 701 648 q 650 734 650 697 l 650 734 q 675 796 650 772 q 740 820 700 820 l 740 820 q 810 792 783 820 q 836 708 836 764 l 836 708 q 808 598 836 646 q 735 520 781 551 q 635 475 689 489 z m 388 -11 l 388 -11 q 217 30 290 -11 q 106 146 145 70 q 67 329 67 222 l 67 329 q 106 515 67 437 q 217 633 145 592 q 388 673 290 673 l 388 673 q 562 633 489 673 q 674 515 635 592 q 714 329 714 437 l 714 329 q 674 146 714 222 q 562 30 635 70 q 388 -11 489 -11 z m 388 103 l 388 103 q 493 133 454 103 q 548 214 532 163 q 564 329 564 265 l 564 329 q 548 446 564 394 q 493 529 532 498 q 388 559 454 559 l 388 559 q 287 529 324 559 q 233 446 250 498 q 217 329 217 394 l 217 329 q 233 214 217 265 q 287 133 250 163 q 388 103 324 103 z "},"Ư":{"ha":1085,"x_min":103,"x_max":1113,"o":"m 846 663 l 846 663 l 823 726 q 946 772 899 745 q 1002 842 994 800 l 1002 842 l 1010 836 q 945 861 970 836 q 920 921 920 885 l 920 921 q 946 984 920 960 q 1013 1008 972 1008 l 1013 1008 q 1086 980 1059 1008 q 1113 895 1113 951 l 1113 895 q 1092 810 1113 848 q 1033 742 1070 771 q 948 693 996 713 q 846 663 900 673 z m 478 -12 l 478 -12 q 263 32 347 -12 q 142 158 180 76 q 103 351 103 239 l 103 351 l 103 913 l 262 913 l 262 361 q 316 176 262 233 q 479 118 370 118 l 479 118 q 641 176 587 118 q 694 361 694 233 l 694 361 l 694 913 l 854 913 l 854 351 q 815 158 854 239 q 693 32 776 76 q 478 -12 610 -12 z "},"ư":{"ha":873,"x_min":96,"x_max":912,"o":"m 677 460 l 677 460 l 668 532 q 765 581 730 551 q 808 655 801 610 l 808 655 l 815 648 q 751 673 777 648 q 726 734 726 697 l 726 734 q 751 796 726 772 q 815 820 776 820 l 815 820 q 885 792 859 820 q 912 708 912 764 l 912 708 q 895 620 912 660 q 845 549 877 580 q 770 496 813 517 q 677 460 727 474 z m 310 -9 l 310 -9 q 149 54 202 -9 q 96 230 96 117 l 96 230 l 96 661 l 243 661 l 243 248 q 253 178 243 209 q 289 131 263 148 q 360 113 315 113 l 360 113 q 468 141 424 113 q 543 206 513 168 l 543 206 l 543 661 l 689 661 l 689 0 l 547 0 l 545 101 q 454 25 512 60 q 310 -9 397 -9 z "},"Ʋ":{"ha":956,"x_min":103,"x_max":854,"o":"m 478 -12 l 478 -12 q 263 34 347 -12 q 142 160 180 79 q 103 351 103 241 l 103 351 l 103 913 l 262 913 l 262 361 q 316 178 262 237 q 479 119 370 119 l 479 119 q 641 178 587 119 q 694 361 694 237 l 694 361 l 694 614 l 854 616 l 854 351 q 815 160 854 241 q 693 34 776 79 q 478 -12 610 -12 z m 854 616 l 694 614 q 662 744 694 705 q 555 783 631 783 l 555 783 l 517 783 l 517 916 l 566 916 q 785 844 717 916 q 854 616 854 772 l 854 616 z "},"Ƴ":{"ha":795,"x_min":0,"x_max":783,"o":"m 470 0 l 311 0 l 311 352 l 0 913 l 175 913 l 391 492 l 470 352 l 470 0 z m 597 637 l 470 352 l 343 388 l 488 720 q 556 839 522 798 q 635 897 591 881 q 740 913 679 913 l 740 913 l 783 913 l 783 779 l 758 779 q 696 768 722 779 q 647 727 670 758 q 597 637 624 696 l 597 637 z "},"ƴ":{"ha":798,"x_min":0,"x_max":798,"o":"m 155 -243 l 81 -243 l 81 -123 l 138 -123 q 201 -105 177 -123 q 241 -48 224 -88 l 241 -48 l 260 0 l 0 661 l 153 661 l 339 155 l 531 730 q 583 831 553 795 q 656 882 613 867 q 758 896 699 896 l 758 896 l 798 896 l 798 776 l 774 776 q 711 758 736 776 q 667 691 686 740 l 667 691 l 391 -79 q 338 -177 368 -141 q 265 -228 309 -212 q 155 -243 221 -243 l 155 -243 z "},"Ʒ":{"ha":797,"x_min":53,"x_max":736,"o":"m 395 -12 l 395 -12 q 212 21 289 -12 q 94 118 136 54 q 53 279 53 182 l 53 279 l 205 279 q 255 158 205 202 q 395 113 304 113 l 395 113 q 528 155 481 113 q 576 286 576 196 l 576 286 q 515 407 576 368 q 351 445 454 445 l 351 445 l 255 445 l 255 557 l 380 553 q 565 524 484 553 q 691 435 645 494 q 736 283 736 376 l 736 283 q 694 122 736 188 q 575 22 652 56 q 395 -12 499 -12 z m 688 788 l 361 500 l 255 557 l 508 782 l 106 782 l 106 913 l 688 913 l 688 788 z "},"ǝ":{"ha":752,"x_min":68,"x_max":685,"o":"m 360 673 l 360 673 q 541 630 469 673 q 649 510 613 587 q 685 330 685 432 l 685 330 q 650 150 685 227 q 546 32 615 74 q 372 -11 476 -11 l 372 -11 q 149 73 231 -11 q 68 313 68 157 l 68 313 q 69 337 68 323 q 71 357 71 351 l 71 357 l 538 357 q 520 460 538 414 q 463 536 502 507 q 360 564 424 564 l 360 564 q 254 534 294 564 q 213 445 215 504 l 213 445 l 68 445 q 108 569 72 518 q 209 647 144 621 q 360 673 273 673 z m 537 258 l 537 258 l 214 258 q 258 137 216 178 q 372 95 300 95 l 372 95 q 488 137 445 95 q 537 258 531 178 z "},"Ǧ":{"ha":991,"x_min":71,"x_max":919,"o":"m 513 -12 l 513 -12 q 273 46 372 -12 q 122 210 174 105 q 71 456 71 315 l 71 456 q 122 702 71 597 q 273 866 174 808 q 513 925 372 925 l 513 925 q 649 907 583 925 q 770 852 715 889 q 860 757 825 814 q 902 623 895 700 l 902 623 l 743 623 q 708 710 737 671 q 630 772 680 749 q 511 795 580 795 l 511 795 q 349 749 411 795 q 258 626 287 703 q 230 456 230 549 l 230 456 q 258 286 230 363 q 349 163 287 209 q 513 118 412 118 l 513 118 q 649 146 595 118 q 732 227 704 175 q 764 345 761 278 l 764 345 l 522 345 l 522 471 l 919 471 l 919 390 q 873 180 919 271 q 736 39 827 90 q 513 -12 646 -12 z m 580 989 l 441 989 l 296 1175 l 410 1175 l 510 1066 l 610 1175 l 724 1175 l 580 989 z "},"ǧ":{"ha":692,"x_min":42,"x_max":675,"o":"m 348 -256 l 348 -256 q 168 -231 235 -256 q 72 -166 101 -207 q 42 -80 42 -126 l 42 -80 q 94 21 42 -23 q 254 82 145 64 l 254 82 l 279 133 l 366 133 q 603 89 530 133 q 675 -48 675 44 l 675 -48 q 592 -198 675 -140 q 348 -256 509 -256 z m 345 -158 l 345 -158 q 491 -130 448 -158 q 533 -61 533 -102 l 533 -61 q 518 -18 533 -36 q 468 10 504 0 q 366 20 431 20 l 366 20 l 256 20 q 199 -15 220 9 q 178 -68 178 -38 l 178 -68 q 217 -131 178 -103 q 345 -158 256 -158 z m 336 133 l 254 26 q 146 54 186 34 q 88 101 106 75 q 70 151 70 127 l 70 151 q 99 218 70 189 q 191 267 128 247 l 191 267 l 265 233 q 207 210 229 224 q 184 176 184 195 l 184 176 q 197 153 184 163 q 244 138 211 144 q 336 133 277 133 l 336 133 z m 338 212 l 338 212 q 192 244 252 212 q 101 327 132 275 q 71 439 71 379 l 71 439 q 102 554 71 503 q 194 637 133 606 q 342 668 254 668 l 342 668 q 490 637 431 668 q 579 554 549 606 q 608 439 608 503 l 608 439 q 578 326 608 378 q 488 243 548 274 q 338 212 429 212 z m 337 304 l 337 304 q 433 339 395 304 q 471 439 471 373 l 471 439 q 435 543 471 509 q 342 576 399 576 l 342 576 q 247 542 284 576 q 209 439 209 507 l 209 439 q 248 338 209 372 q 337 304 287 304 z m 518 581 l 518 581 l 469 637 q 548 728 496 704 q 675 753 600 753 l 675 753 l 675 640 q 584 630 625 640 q 518 581 542 621 z m 416 751 l 278 751 l 133 937 l 247 937 l 347 828 l 446 937 l 561 937 l 416 751 z "},"Ǫ":{"ha":1021,"x_min":71,"x_max":949,"o":"m 511 -12 l 511 -12 q 269 46 367 -12 q 121 210 171 105 q 71 456 71 315 l 71 456 q 121 702 71 596 q 269 866 171 807 q 511 925 367 925 l 511 925 q 751 866 654 925 q 899 702 848 807 q 949 456 949 596 l 949 456 q 899 210 949 315 q 751 46 848 105 q 511 -12 654 -12 z m 511 117 l 511 117 q 671 163 610 117 q 760 286 732 209 q 789 456 789 363 l 789 456 q 760 627 789 550 q 671 750 732 704 q 511 795 610 795 l 511 795 q 349 750 411 795 q 260 627 288 704 q 232 456 232 550 l 232 456 q 260 286 232 363 q 349 163 288 209 q 511 117 411 117 z m 585 -253 l 585 -253 q 491 -223 529 -253 q 452 -139 452 -193 l 452 -139 q 473 -71 452 -104 q 531 -12 494 -37 q 612 24 568 14 l 612 24 l 665 9 q 588 -56 611 -22 q 566 -115 566 -89 l 566 -115 q 578 -148 566 -136 q 612 -159 590 -159 l 612 -159 q 654 -154 633 -159 q 698 -138 675 -148 l 698 -138 l 698 -227 q 651 -246 676 -239 q 585 -253 625 -253 z "},"ǫ":{"ha":781,"x_min":67,"x_max":714,"o":"m 388 -11 l 388 -11 q 217 30 290 -11 q 106 146 145 70 q 67 329 67 222 l 67 329 q 106 515 67 437 q 217 633 145 592 q 388 673 290 673 l 388 673 q 562 633 489 673 q 674 515 635 592 q 714 329 714 437 l 714 329 q 674 146 714 222 q 562 30 635 70 q 388 -11 489 -11 z m 388 103 l 388 103 q 493 133 454 103 q 548 214 532 163 q 564 329 564 265 l 564 329 q 548 446 564 394 q 493 529 532 498 q 388 559 454 559 l 388 559 q 287 529 324 559 q 233 446 250 498 q 217 329 217 394 l 217 329 q 233 214 217 265 q 287 133 250 163 q 388 103 324 103 z m 434 -253 l 434 -253 q 340 -223 378 -253 q 302 -139 302 -193 l 302 -139 q 323 -71 302 -104 q 380 -12 344 -37 q 462 24 417 14 l 462 24 l 515 9 q 438 -56 460 -22 q 415 -115 415 -89 l 415 -115 q 427 -148 415 -136 q 461 -159 439 -159 l 461 -159 q 504 -154 483 -159 q 547 -138 524 -148 l 547 -138 l 547 -227 q 500 -246 526 -239 q 434 -253 475 -253 z "},"Ǹ":{"ha":992,"x_min":115,"x_max":878,"o":"m 261 0 l 115 0 l 115 913 l 270 913 l 730 242 l 730 913 l 878 913 l 878 0 l 722 0 l 261 673 l 261 0 z m 577 989 l 467 989 l 286 1174 l 448 1174 l 577 989 z "},"ǹ":{"ha":785,"x_min":102,"x_max":688,"o":"m 250 0 l 102 0 l 102 661 l 243 661 l 247 561 q 335 636 279 602 q 478 671 391 671 l 478 671 q 636 608 583 671 q 688 429 688 545 l 688 429 l 688 0 l 542 0 l 542 409 q 532 483 542 451 q 497 533 522 515 q 431 551 473 551 l 431 551 q 323 522 368 551 q 250 455 279 492 l 250 455 l 250 0 z m 478 751 l 368 751 l 181 937 l 342 937 l 478 751 z "},"Ǻ":{"ha":840,"x_min":3,"x_max":836,"o":"m 165 0 l 3 0 l 339 913 l 503 913 l 836 0 l 674 0 l 598 228 l 244 228 l 165 0 z m 420 758 l 283 359 l 557 359 l 420 758 z m 419 844 l 419 844 q 316 881 357 844 q 276 981 276 918 l 276 981 q 316 1080 276 1042 q 419 1118 357 1118 l 419 1118 q 522 1080 481 1118 q 562 981 562 1042 l 562 981 q 522 881 562 918 q 419 844 481 844 z m 419 914 l 419 914 q 466 933 448 914 q 484 981 484 952 l 484 981 q 466 1029 484 1010 q 419 1048 448 1048 l 419 1048 q 372 1029 391 1048 q 354 981 354 1010 l 354 981 q 372 933 354 952 q 419 914 391 914 z m 450 1142 l 339 1142 l 468 1327 l 630 1327 l 450 1142 z "},"ǻ":{"ha":752,"x_min":67,"x_max":656,"o":"m 278 -12 l 278 -12 q 173 10 221 -12 q 96 74 125 31 q 67 182 67 117 l 67 182 q 122 318 67 272 q 278 381 178 364 q 512 400 378 398 l 512 400 l 512 441 q 475 543 512 515 q 382 570 439 570 l 382 570 q 281 541 321 570 q 240 445 240 511 l 240 445 l 101 445 q 137 577 101 528 q 236 650 172 627 q 382 672 299 672 l 382 672 q 488 662 439 672 q 575 626 538 652 q 634 556 613 601 q 656 443 656 512 l 656 443 l 656 0 l 519 0 l 513 93 q 412 16 470 44 q 278 -12 354 -12 z m 322 93 l 322 93 q 431 122 382 93 q 511 193 479 151 l 511 193 l 511 313 q 281 283 349 313 q 214 189 214 254 l 214 189 q 242 118 214 143 q 322 93 271 93 z m 388 732 l 388 732 q 285 769 326 732 q 245 869 245 807 l 245 869 q 285 968 245 930 q 388 1006 326 1006 l 388 1006 q 491 968 450 1006 q 531 869 531 930 l 531 869 q 491 769 531 807 q 388 732 450 732 z m 388 802 l 388 802 q 435 821 417 802 q 453 869 453 840 l 453 869 q 435 917 453 899 q 388 936 417 936 l 388 936 q 341 917 359 936 q 323 869 323 899 l 323 869 q 341 821 323 840 q 388 802 359 802 z m 420 1024 l 310 1024 l 446 1209 l 608 1209 l 420 1024 z "},"Ǽ":{"ha":1315,"x_min":-24,"x_max":1242,"o":"m 154 0 l -24 0 l 552 913 l 684 913 l 688 762 l 614 762 l 334 305 l 334 296 l 154 0 z m 729 228 l 260 228 l 260 359 l 729 359 l 729 228 z m 1242 0 l 645 0 l 645 913 l 1242 913 l 1242 783 l 801 783 l 801 531 l 1204 531 l 1204 405 l 801 405 l 801 130 l 1242 130 l 1242 0 z m 808 989 l 698 989 l 827 1174 l 989 1174 l 808 989 z "},"ǽ":{"ha":1192,"x_min":67,"x_max":1124,"o":"m 832 -12 l 832 -12 q 651 31 723 -12 q 543 152 578 74 q 507 332 507 229 l 507 332 q 542 511 507 435 q 646 630 576 587 q 821 672 716 672 l 821 672 q 1043 588 962 672 q 1124 348 1124 504 l 1124 348 q 1123 325 1124 338 q 1121 304 1122 311 l 1121 304 l 654 304 q 672 201 654 248 q 729 125 690 154 q 832 97 768 97 l 832 97 q 938 127 899 97 q 979 216 977 157 l 979 216 l 1123 216 q 1084 92 1120 143 q 983 14 1047 41 q 832 -12 919 -12 z m 299 -12 l 299 -12 q 129 39 191 -12 q 67 180 67 90 l 67 180 q 121 316 67 270 q 274 379 175 362 q 507 398 373 397 l 507 398 l 507 444 q 490 519 507 492 q 445 557 473 546 q 383 569 417 569 l 383 569 q 281 540 322 569 q 240 446 240 511 l 240 446 l 101 446 q 176 617 101 563 q 382 672 251 672 l 382 672 q 491 657 442 672 q 572 610 539 643 q 614 522 604 577 l 614 522 l 545 313 q 349 302 422 314 q 245 263 277 290 q 214 193 214 236 l 214 193 q 242 120 214 146 q 323 93 270 93 l 323 93 q 405 109 366 93 q 478 157 444 125 q 537 237 513 189 l 537 237 l 596 184 q 533 83 576 127 q 431 13 491 39 q 299 -12 372 -12 z m 655 403 l 655 403 l 979 403 q 934 525 977 483 q 821 566 891 566 l 821 566 q 704 524 747 566 q 655 403 661 482 z m 625 751 l 514 751 l 650 937 l 812 937 l 625 751 z "},"Ǿ":{"ha":1021,"x_min":71,"x_max":949,"o":"m 949 896 l 147 -48 l 71 17 l 873 960 l 949 896 z m 511 -12 l 511 -12 q 269 46 367 -12 q 121 210 171 105 q 71 456 71 315 l 71 456 q 121 702 71 596 q 269 866 171 807 q 511 925 367 925 l 511 925 q 751 866 654 925 q 899 702 848 807 q 949 456 949 596 l 949 456 q 899 210 949 315 q 751 46 848 105 q 511 -12 654 -12 z m 511 115 l 511 115 q 672 161 611 115 q 762 284 734 207 q 790 456 790 362 l 790 456 q 762 628 790 551 q 672 752 734 705 q 511 798 611 798 l 511 798 q 348 752 410 798 q 257 628 286 705 q 229 456 229 551 l 229 456 q 257 284 229 362 q 348 161 286 207 q 511 115 410 115 z m 549 989 l 439 989 l 568 1174 l 730 1174 l 549 989 z "},"ǿ":{"ha":781,"x_min":60,"x_max":722,"o":"m 722 657 l 123 -56 l 60 0 l 659 712 l 722 657 z m 388 -12 l 388 -12 q 217 29 290 -12 q 106 145 145 69 q 67 328 67 222 l 67 328 q 106 513 67 436 q 217 631 145 590 q 388 671 290 671 l 388 671 q 562 631 489 671 q 674 513 635 590 q 714 328 714 436 l 714 328 q 674 145 714 222 q 562 29 635 69 q 388 -12 489 -12 z m 388 98 l 388 98 q 494 128 454 98 q 551 211 534 159 q 568 328 568 264 l 568 328 q 551 447 568 394 q 494 531 534 500 q 388 562 454 562 l 388 562 q 285 531 323 562 q 230 447 247 500 q 213 328 213 394 l 213 328 q 230 211 213 264 q 285 128 247 159 q 388 98 323 98 z m 421 751 l 311 751 l 446 937 l 609 937 l 421 751 z "},"Ș":{"ha":808,"x_min":52,"x_max":758,"o":"m 410 -12 l 410 -12 q 228 18 309 -12 q 99 111 146 47 q 52 278 52 175 l 52 278 l 210 278 q 239 180 212 216 q 312 129 266 144 q 413 114 357 114 l 413 114 q 508 128 466 114 q 575 172 551 142 q 600 248 600 202 l 600 248 q 580 317 600 290 q 511 365 559 344 q 379 408 463 385 l 379 408 q 213 467 281 435 q 110 550 145 500 q 75 677 75 600 l 75 677 q 115 815 75 761 q 227 897 155 870 q 395 924 299 924 l 395 924 q 563 896 487 924 q 684 810 638 868 q 729 665 729 753 l 729 665 l 570 665 q 520 767 571 733 q 395 802 469 802 l 395 802 q 277 773 321 802 q 233 686 233 744 l 233 686 q 252 629 233 653 q 319 585 271 605 q 457 539 368 564 l 457 539 q 628 477 562 510 q 726 392 694 444 q 758 255 758 340 l 758 255 q 712 104 758 163 q 587 16 666 45 q 410 -12 509 -12 z m 341 -270 l 341 -270 l 328 -222 q 376 -199 355 -214 q 404 -165 397 -184 l 404 -165 q 353 -145 371 -163 q 335 -101 335 -127 l 335 -101 q 354 -58 335 -76 q 410 -40 374 -40 l 410 -40 q 467 -61 445 -40 q 490 -121 490 -81 l 490 -121 q 446 -220 490 -180 q 341 -270 402 -260 z "},"ș":{"ha":696,"x_min":67,"x_max":628,"o":"m 353 -12 l 353 -12 q 246 -1 297 -12 q 154 36 195 10 q 91 104 114 62 q 67 210 67 147 l 67 210 l 205 210 q 249 117 205 143 q 354 90 292 90 l 354 90 q 448 111 412 90 q 483 180 483 132 l 483 180 q 447 243 483 222 q 321 285 411 264 l 321 285 q 194 327 248 303 q 111 390 140 351 q 82 490 82 429 l 82 490 q 103 572 82 537 q 161 629 125 606 q 245 662 198 651 q 346 673 293 673 l 346 673 q 444 662 397 673 q 529 625 492 650 q 588 559 566 600 q 610 460 610 519 l 610 460 l 472 460 q 435 545 472 520 q 346 570 397 570 l 346 570 q 259 552 292 570 q 227 495 227 534 l 227 495 q 244 457 227 473 q 299 428 261 441 q 402 399 338 414 l 402 399 q 522 359 471 383 q 601 296 573 335 q 628 195 628 257 l 628 195 q 606 100 628 139 q 546 36 584 60 q 458 -1 508 11 q 353 -12 408 -12 z m 289 -270 l 289 -270 l 275 -222 q 324 -199 302 -214 q 352 -165 345 -184 l 352 -165 q 301 -145 319 -163 q 283 -101 283 -127 l 283 -101 q 302 -58 283 -76 q 357 -40 321 -40 l 357 -40 q 415 -61 393 -40 q 437 -121 437 -81 l 437 -121 q 394 -220 437 -180 q 289 -270 350 -260 z "},"Ț":{"ha":683,"x_min":12,"x_max":671,"o":"m 420 0 l 264 0 l 264 782 l 12 782 l 12 913 l 671 913 l 671 782 l 420 782 l 420 0 z m 276 -270 l 276 -270 l 262 -222 q 311 -199 290 -214 q 339 -165 332 -184 l 339 -165 q 288 -145 306 -163 q 270 -101 270 -127 l 270 -101 q 289 -58 270 -76 q 345 -40 309 -40 l 345 -40 q 402 -61 380 -40 q 425 -121 425 -81 l 425 -121 q 381 -220 425 -180 q 276 -270 337 -260 z "},"ț":{"ha":471,"x_min":18,"x_max":429,"o":"m 429 0 l 354 0 q 215 25 264 0 q 148 99 166 50 q 129 222 129 148 l 129 222 l 129 546 l 18 546 l 18 661 l 129 661 l 129 815 l 275 815 l 275 661 l 429 661 l 429 546 l 275 546 l 275 231 q 290 144 275 174 q 361 115 305 115 l 361 115 l 429 115 l 429 0 z m 211 -270 l 211 -270 l 197 -222 q 246 -199 224 -214 q 274 -165 267 -184 l 274 -165 q 223 -145 241 -163 q 205 -101 205 -127 l 205 -101 q 224 -58 205 -76 q 279 -40 243 -40 l 279 -40 q 337 -61 315 -40 q 359 -121 359 -81 l 359 -121 q 316 -220 359 -180 q 211 -270 272 -260 z "},"Ȳ":{"ha":781,"x_min":0,"x_max":781,"o":"m 470 0 l 311 0 l 311 352 l 0 913 l 173 913 l 391 494 l 608 913 l 781 913 l 470 352 l 470 0 z m 580 1024 l 203 1024 l 203 1120 l 580 1120 l 580 1024 z "},"ȳ":{"ha":656,"x_min":0,"x_max":656,"o":"m 149 -243 l 74 -243 l 74 -123 l 132 -123 q 198 -105 172 -123 q 241 -48 224 -88 l 241 -48 l 260 0 l 0 661 l 153 661 l 339 146 l 508 661 l 656 661 l 414 0 l 386 -73 q 332 -175 361 -138 q 258 -227 302 -212 q 149 -243 214 -243 l 149 -243 z m 519 789 l 143 789 l 143 886 l 519 886 l 519 789 z "},"ȷ":{"ha":352,"x_min":-24,"x_max":250,"o":"m 30 -243 l -24 -243 l -24 -125 l 9 -125 q 80 -103 56 -125 q 103 -31 103 -81 l 103 -31 l 103 661 l 250 661 l 250 -19 q 197 -185 250 -127 q 30 -243 144 -243 l 30 -243 z "},"ɓ":{"ha":797,"x_min":102,"x_max":730,"o":"m 452 -12 l 452 -12 q 329 16 378 -12 q 248 93 280 44 l 248 93 l 241 0 l 102 0 l 102 694 l 250 700 l 250 561 q 337 642 284 611 q 466 673 391 673 l 466 673 q 604 635 545 673 q 696 521 663 597 q 730 330 730 446 l 730 330 q 694 139 730 216 q 596 25 659 63 q 452 -12 533 -12 z m 418 103 l 418 103 q 538 161 496 103 q 579 328 579 220 l 579 328 q 540 500 579 442 q 429 559 501 559 l 429 559 q 319 524 365 559 q 250 439 274 488 l 250 439 l 250 214 q 315 136 273 168 q 418 103 357 103 z m 250 700 l 102 694 q 152 861 102 810 q 310 913 201 913 l 310 913 l 377 913 l 377 795 l 342 795 q 273 773 296 795 q 250 700 250 751 l 250 700 z "},"ɔ":{"ha":746,"x_min":67,"x_max":679,"o":"m 360 -13 l 360 -13 q 212 16 278 -13 q 108 100 146 44 q 67 239 69 156 l 67 239 l 210 239 q 252 137 212 172 q 359 102 292 102 l 359 102 q 488 161 446 102 q 530 328 530 220 l 530 328 q 488 498 530 437 q 359 559 446 559 l 359 559 q 257 525 294 559 q 216 434 220 492 l 216 434 l 73 434 q 113 568 75 515 q 216 648 151 621 q 360 674 280 674 l 360 674 q 527 636 455 674 q 638 521 598 598 q 679 328 679 444 l 679 328 q 637 136 679 212 q 524 24 595 60 q 360 -13 452 -13 z "},"ɖ":{"ha":796,"x_min":67,"x_max":817,"o":"m 330 -12 l 330 -12 q 193 26 252 -12 q 100 141 134 64 q 67 334 67 218 l 67 334 q 103 523 67 448 q 201 635 138 597 q 346 673 264 673 l 346 673 q 466 643 415 673 q 547 564 517 613 l 547 564 l 547 913 l 694 913 l 694 4 l 548 8 l 547 95 q 458 18 512 47 q 330 -12 405 -12 z m 817 -210 l 749 -210 q 596 -154 644 -210 q 548 8 548 -98 l 548 8 l 694 4 q 715 -70 692 -47 q 783 -93 738 -93 l 783 -93 l 817 -93 l 817 -210 z m 368 103 l 368 103 q 477 136 433 103 q 547 214 522 169 l 547 214 l 547 439 q 482 523 524 488 q 378 558 440 558 l 378 558 q 258 500 300 558 q 217 334 217 442 l 217 334 q 256 161 217 219 q 368 103 295 103 z "},"ɗ":{"ha":821,"x_min":67,"x_max":821,"o":"m 330 -12 l 330 -12 q 193 26 252 -12 q 100 141 134 64 q 67 334 67 218 l 67 334 q 103 523 67 448 q 201 635 138 597 q 346 673 264 673 l 346 673 q 466 643 415 673 q 547 564 517 613 l 547 564 l 548 692 l 694 698 l 694 0 l 555 0 l 547 95 q 458 18 512 47 q 330 -12 405 -12 z m 368 103 l 368 103 q 477 136 433 103 q 547 214 522 169 l 547 214 l 547 439 q 482 523 524 488 q 378 558 440 558 l 378 558 q 258 500 300 558 q 217 334 217 442 l 217 334 q 256 161 217 219 q 368 103 295 103 z m 694 698 l 548 692 q 597 856 548 800 q 753 913 646 913 l 753 913 l 821 913 l 821 795 l 787 795 q 717 772 740 795 q 694 698 694 749 l 694 698 z "},"ə":{"ha":752,"x_min":68,"x_max":685,"o":"m 360 673 l 360 673 q 541 630 469 673 q 649 510 613 587 q 685 330 685 432 l 685 330 q 650 150 685 227 q 546 32 615 74 q 372 -11 476 -11 l 372 -11 q 149 73 231 -11 q 68 313 68 157 l 68 313 q 69 337 68 323 q 71 357 71 351 l 71 357 l 538 357 q 520 460 538 414 q 463 536 502 507 q 360 564 424 564 l 360 564 q 254 534 294 564 q 213 445 215 504 l 213 445 l 68 445 q 108 569 72 518 q 209 647 144 621 q 360 673 273 673 z m 537 258 l 537 258 l 214 258 q 258 137 216 178 q 372 95 300 95 l 372 95 q 488 137 445 95 q 537 258 531 178 z "},"ɛ":{"ha":707,"x_min":60,"x_max":662,"o":"m 351 -11 l 351 -11 q 135 39 210 -11 q 60 181 60 90 l 60 181 q 101 290 60 251 q 224 347 143 330 l 224 347 q 119 406 149 364 q 89 495 89 448 l 89 495 q 113 577 89 537 q 195 644 138 618 q 351 671 252 671 l 351 671 q 550 622 477 671 q 627 473 623 572 l 627 473 l 490 473 q 451 539 489 513 q 351 566 413 566 l 351 566 q 256 543 285 566 q 227 484 227 519 l 227 484 q 265 421 227 444 q 361 398 304 398 l 361 398 l 434 398 l 434 292 l 378 292 q 245 268 288 292 q 203 195 203 243 l 203 195 q 244 120 203 143 q 353 98 285 98 l 353 98 q 477 126 432 98 q 525 214 522 154 l 525 214 l 662 214 q 622 91 658 142 q 519 15 587 41 q 351 -11 452 -11 z "},"ɣ":{"ha":684,"x_min":0,"x_max":684,"o":"m 412 155 l 274 155 l 0 661 l 153 661 l 342 289 l 534 661 l 684 661 l 412 155 z m 340 -138 l 340 -138 q 378 -120 366 -138 q 389 -71 389 -102 l 389 -71 q 378 -3 389 -43 q 340 74 366 37 l 340 74 q 307 -3 317 37 q 296 -71 296 -43 l 296 -71 q 307 -120 296 -102 q 340 -138 317 -138 z m 340 -243 l 340 -243 q 212 -198 256 -243 q 167 -75 167 -153 l 167 -75 q 188 27 167 -31 q 248 151 208 85 q 342 280 287 216 l 342 280 q 440 151 401 216 q 499 28 479 87 q 519 -75 519 -30 l 519 -75 q 473 -198 519 -153 q 340 -243 427 -243 z "},"ʃ":{"ha":382,"x_min":-3,"x_max":387,"o":"m 39 -224 l -3 -224 l -3 -109 l 33 -109 q 103 -81 89 -109 q 118 -1 118 -54 l 118 -1 l 118 690 q 137 813 118 764 q 205 887 156 863 q 345 912 254 912 l 345 912 l 387 912 l 387 796 l 351 796 q 279 768 294 796 q 264 682 264 739 l 264 682 l 264 -1 q 246 -125 264 -76 q 178 -200 227 -175 q 39 -224 130 -224 l 39 -224 z "},"ʋ":{"ha":808,"x_min":96,"x_max":712,"o":"m 397 -7 l 397 -7 q 230 25 297 -7 q 130 119 163 58 q 96 267 96 180 l 96 267 l 96 661 l 242 661 l 242 286 q 256 197 242 235 q 303 137 269 158 q 395 115 336 115 l 395 115 q 499 135 462 115 q 551 193 536 155 q 566 286 566 231 l 566 286 l 712 286 q 675 123 712 189 q 569 25 639 58 q 397 -7 498 -7 z m 712 286 l 566 286 l 566 439 q 551 525 566 496 q 479 553 536 553 l 479 553 l 451 553 l 451 669 l 486 669 q 626 644 577 669 q 693 571 675 620 q 712 447 712 522 l 712 447 l 712 286 z "},"ʒ":{"ha":688,"x_min":24,"x_max":651,"o":"m 333 -257 l 333 -257 q 107 -193 189 -257 q 24 -1 24 -128 l 24 -1 l 161 -1 q 207 -106 161 -70 q 332 -142 254 -142 l 332 -142 q 459 -100 414 -142 q 505 29 505 -58 l 505 29 q 478 124 505 86 q 404 182 452 163 q 288 201 356 201 l 288 201 l 189 201 l 189 304 l 431 546 l 79 546 l 79 661 l 605 661 l 605 558 l 347 301 q 508 268 439 301 q 613 175 576 235 q 651 28 651 114 l 651 28 q 566 -182 651 -107 q 333 -257 481 -257 z "},"ˆ":{"ha":766,"x_min":170,"x_max":598,"o":"m 284 751 l 170 751 l 315 937 l 453 937 l 598 751 l 484 751 l 384 860 l 284 751 z "},"ˇ":{"ha":766,"x_min":169,"x_max":597,"o":"m 452 751 l 314 751 l 169 937 l 283 937 l 383 828 l 482 937 l 597 937 l 452 751 z "},"˘":{"ha":766,"x_min":193,"x_max":571,"o":"m 382 754 l 382 754 q 250 802 298 754 q 193 933 201 850 l 193 933 l 276 933 q 314 860 282 880 q 382 840 345 840 l 382 840 q 456 861 422 840 q 496 933 490 882 l 496 933 l 571 933 q 515 802 564 850 q 382 754 467 754 z "},"˙":{"ha":766,"x_min":297,"x_max":469,"o":"m 383 767 l 383 767 q 320 789 342 767 q 297 843 297 810 l 297 843 q 320 899 297 877 q 383 920 342 920 l 383 920 q 447 899 424 920 q 469 843 469 877 l 469 843 q 447 789 469 810 q 383 767 424 767 z "},"˚":{"ha":766,"x_min":240,"x_max":526,"o":"m 383 732 l 383 732 q 280 769 321 732 q 240 869 240 807 l 240 869 q 280 968 240 930 q 383 1006 321 1006 l 383 1006 q 486 968 446 1006 q 526 869 526 930 l 526 869 q 486 769 526 807 q 383 732 446 732 z m 383 802 l 383 802 q 430 821 412 802 q 448 869 448 840 l 448 869 q 430 917 448 899 q 383 936 412 936 l 383 936 q 336 917 355 936 q 318 869 318 899 l 318 869 q 336 821 318 840 q 383 802 355 802 z "},"˛":{"ha":766,"x_min":260,"x_max":506,"o":"m 393 -256 l 393 -256 q 299 -225 337 -256 q 260 -142 260 -195 l 260 -142 q 281 -74 260 -107 q 339 -15 302 -40 q 420 21 376 11 l 420 21 l 473 6 q 396 -58 419 -25 q 374 -117 374 -92 l 374 -117 q 386 -150 374 -138 q 420 -162 398 -162 l 420 -162 q 462 -156 441 -162 q 506 -141 483 -151 l 506 -141 l 506 -229 q 459 -249 484 -241 q 393 -256 433 -256 z "},"˜":{"ha":766,"x_min":174,"x_max":592,"o":"m 255 764 l 174 764 q 211 873 181 834 q 294 912 240 912 l 294 912 q 352 903 324 912 q 404 882 379 893 l 404 882 q 444 867 426 873 q 477 861 462 861 l 477 861 q 500 873 492 861 q 512 914 509 886 l 512 914 l 592 914 q 559 809 585 846 q 480 772 534 772 l 480 772 q 421 781 449 772 q 370 800 394 790 l 370 800 q 329 816 347 810 q 296 823 311 823 l 296 823 q 269 809 279 823 q 255 764 258 795 l 255 764 z "},"˝":{"ha":766,"x_min":201,"x_max":662,"o":"m 503 751 l 407 751 l 530 937 l 662 937 l 503 751 z m 296 751 l 201 751 l 323 937 l 456 937 l 296 751 z "},"̀":{"ha":0,"x_min":163,"x_max":460,"o":"m 460 751 l 351 751 l 163 937 l 325 937 l 460 751 z "},"́":{"ha":0,"x_min":303,"x_max":602,"o":"m 414 751 l 303 751 l 439 937 l 602 937 l 414 751 z "},"̂":{"ha":0,"x_min":170,"x_max":598,"o":"m 284 751 l 170 751 l 315 937 l 453 937 l 598 751 l 484 751 l 384 860 l 284 751 z "},"̃":{"ha":0,"x_min":174,"x_max":592,"o":"m 255 764 l 174 764 q 211 873 181 834 q 294 912 240 912 l 294 912 q 352 903 324 912 q 404 882 379 893 l 404 882 q 444 867 426 873 q 477 861 462 861 l 477 861 q 500 873 492 861 q 512 914 509 886 l 512 914 l 592 914 q 559 809 585 846 q 480 772 534 772 l 480 772 q 421 781 449 772 q 370 800 394 790 l 370 800 q 329 816 347 810 q 296 823 311 823 l 296 823 q 269 809 279 823 q 255 764 258 795 l 255 764 z "},"̄":{"ha":0,"x_min":195,"x_max":572,"o":"m 572 789 l 195 789 l 195 886 l 572 886 l 572 789 z "},"̆":{"ha":0,"x_min":193,"x_max":571,"o":"m 382 754 l 382 754 q 250 802 298 754 q 193 933 201 850 l 193 933 l 276 933 q 314 860 282 880 q 382 840 345 840 l 382 840 q 456 861 422 840 q 496 933 490 882 l 496 933 l 571 933 q 515 802 564 850 q 382 754 467 754 z "},"̇":{"ha":0,"x_min":297,"x_max":469,"o":"m 383 767 l 383 767 q 320 789 342 767 q 297 843 297 810 l 297 843 q 320 899 297 877 q 383 920 342 920 l 383 920 q 447 899 424 920 q 469 843 469 877 l 469 843 q 447 789 469 810 q 383 767 424 767 z "},"̈":{"ha":0,"x_min":186,"x_max":581,"o":"m 508 773 l 508 773 q 456 793 477 773 q 435 843 435 812 l 435 843 q 456 894 435 874 q 508 913 477 913 l 508 913 q 560 894 539 913 q 581 843 581 874 l 581 843 q 560 793 581 812 q 508 773 539 773 z m 259 773 l 259 773 q 207 793 228 773 q 186 843 186 812 l 186 843 q 207 894 186 874 q 259 913 228 913 l 259 913 q 310 894 289 913 q 331 843 331 874 l 331 843 q 310 793 331 812 q 259 773 289 773 z "},"̉":{"ha":0,"x_min":300,"x_max":501,"o":"m 351 762 l 351 762 l 317 811 q 361 833 341 818 q 380 871 380 848 l 380 871 q 363 904 380 896 q 313 912 345 912 l 313 912 l 300 912 l 300 987 l 326 987 q 458 963 414 987 q 501 886 501 938 l 501 886 q 481 826 501 852 q 428 784 462 800 q 351 762 394 768 z m 317 731 l 317 811 l 405 795 l 405 731 l 317 731 z "},"̊":{"ha":0,"x_min":240,"x_max":526,"o":"m 383 732 l 383 732 q 280 769 321 732 q 240 869 240 807 l 240 869 q 280 968 240 930 q 383 1006 321 1006 l 383 1006 q 486 968 446 1006 q 526 869 526 930 l 526 869 q 486 769 526 807 q 383 732 446 732 z m 383 802 l 383 802 q 430 821 412 802 q 448 869 448 840 l 448 869 q 430 917 448 899 q 383 936 412 936 l 383 936 q 336 917 355 936 q 318 869 318 899 l 318 869 q 336 821 318 840 q 383 802 355 802 z "},"̋":{"ha":0,"x_min":201,"x_max":662,"o":"m 503 751 l 407 751 l 530 937 l 662 937 l 503 751 z m 296 751 l 201 751 l 323 937 l 456 937 l 296 751 z "},"̌":{"ha":0,"x_min":169,"x_max":597,"o":"m 452 751 l 314 751 l 169 937 l 283 937 l 383 828 l 482 937 l 597 937 l 452 751 z "},"̒":{"ha":0,"x_min":300,"x_max":468,"o":"m 384 772 l 384 772 q 323 794 347 772 q 300 859 300 816 l 300 859 q 321 934 300 900 q 377 990 342 968 q 453 1017 412 1012 l 453 1017 l 468 965 q 422 941 443 956 q 391 903 401 925 l 391 903 q 443 881 424 899 q 461 838 461 864 l 461 838 q 440 791 461 810 q 384 772 418 772 z "},"̛":{"ha":0,"x_min":-77,"x_max":160,"o":"m -68 460 l -68 460 l -77 532 q 16 581 -18 551 q 56 655 50 610 l 56 655 l 64 648 q -1 673 24 648 q -26 734 -26 697 l -26 734 q -1 796 -26 772 q 64 820 24 820 l 64 820 q 134 792 107 820 q 160 708 160 764 l 160 708 q 143 620 160 660 q 95 549 126 580 q 23 496 64 517 q -68 460 -19 474 z "},"̣":{"ha":0,"x_min":-86,"x_max":86,"o":"m 0 -215 l 0 -215 q -63 -193 -41 -215 q -86 -139 -86 -172 l -86 -139 q -63 -83 -86 -105 q 0 -62 -41 -62 l 0 -62 q 63 -83 41 -62 q 86 -139 86 -105 l 86 -139 q 63 -193 86 -172 q 0 -215 41 -215 z "},"̦":{"ha":0,"x_min":303,"x_max":465,"o":"m 317 -270 l 317 -270 l 303 -222 q 352 -199 330 -214 q 380 -165 373 -184 l 380 -165 q 329 -145 347 -163 q 311 -101 311 -127 l 311 -101 q 330 -58 311 -76 q 385 -40 349 -40 l 385 -40 q 443 -61 420 -40 q 465 -121 465 -81 l 465 -121 q 421 -220 465 -180 q 317 -270 378 -260 z "},"̧":{"ha":0,"x_min":258,"x_max":537,"o":"m 391 -258 l 391 -258 q 316 -251 347 -258 q 258 -233 286 -244 l 258 -233 l 279 -163 q 328 -178 300 -172 q 385 -184 356 -184 l 385 -184 q 426 -173 410 -184 q 441 -141 441 -161 l 441 -141 q 421 -109 441 -120 q 345 -91 400 -98 l 345 -91 l 315 -87 l 407 32 l 469 7 l 425 -50 l 397 -37 q 499 -66 461 -39 q 537 -143 537 -92 l 537 -143 q 517 -208 537 -182 q 465 -245 498 -233 q 391 -258 431 -258 z "},"̨":{"ha":0,"x_min":260,"x_max":506,"o":"m 393 -256 l 393 -256 q 299 -225 337 -256 q 260 -142 260 -195 l 260 -142 q 281 -74 260 -107 q 339 -15 302 -40 q 420 21 376 11 l 420 21 l 473 6 q 396 -58 419 -25 q 374 -117 374 -92 l 374 -117 q 386 -150 374 -138 q 420 -162 398 -162 l 420 -162 q 462 -156 441 -162 q 506 -141 483 -151 l 506 -141 l 506 -229 q 459 -249 484 -241 q 393 -256 433 -256 z "},"̵":{"ha":0,"x_min":17,"x_max":405,"o":"m 405 256 l 17 256 l 17 340 l 405 340 l 405 256 z "},"̶":{"ha":0,"x_min":0,"x_max":496,"o":"m 496 399 l 0 399 l 0 525 l 496 525 l 496 399 z "},"ͅ":{"ha":0,"x_min":-72,"x_max":90,"o":"m 90 -243 l 41 -243 q -51 -209 -31 -243 q -72 -121 -72 -175 l -72 -121 l -72 -37 l 28 -37 l 28 -104 q 35 -146 28 -132 q 70 -161 42 -161 l 70 -161 l 90 -161 l 90 -243 z "},"Ͱ":{"ha":589,"x_min":115,"x_max":564,"o":"m 271 0 l 115 0 l 115 913 l 271 913 l 271 543 l 564 543 l 564 406 l 271 406 l 271 0 z "},"ͱ":{"ha":522,"x_min":102,"x_max":480,"o":"m 250 0 l 102 0 l 102 661 l 250 661 l 250 0 z m 480 283 l 200 283 l 200 397 l 480 397 l 480 283 z "},"Ͳ":{"ha":825,"x_min":40,"x_max":785,"o":"m 491 0 l 335 0 l 335 782 l 71 782 l 71 913 l 785 913 l 785 782 l 491 782 l 491 0 z m 186 621 l 40 621 l 40 913 l 186 913 l 186 621 z m 785 621 l 639 621 l 639 913 l 785 913 l 785 621 z "},"ͳ":{"ha":723,"x_min":18,"x_max":682,"o":"m 581 1 l 492 1 q 353 25 401 1 q 285 99 304 50 q 267 222 267 148 l 267 222 l 267 546 l 142 546 l 142 404 l 18 404 l 18 661 l 682 661 l 682 404 l 557 404 l 557 546 l 412 546 l 412 231 q 427 145 412 174 q 499 116 443 116 l 499 116 l 581 116 l 581 1 z "},"ʹ":{"ha":352,"x_min":27,"x_max":326,"o":"m 137 751 l 26 751 l 162 937 l 325 937 l 137 751 z "},"͵":{"ha":352,"x_min":27,"x_max":326,"o":"m 137 -93 l 26 -93 l 162 92 l 325 92 l 137 -93 z "},"Ͷ":{"ha":992,"x_min":115,"x_max":878,"o":"m 878 913 l 878 0 l 731 0 l 731 692 l 270 0 l 115 0 l 115 913 l 262 913 l 262 223 l 722 913 l 878 913 z "},"ͷ":{"ha":819,"x_min":102,"x_max":716,"o":"m 239 0 l 102 0 l 102 661 l 239 661 l 239 195 l 579 661 l 716 661 l 716 0 l 579 0 l 579 467 l 239 0 z "},"ͺ":{"ha":585,"x_min":207,"x_max":368,"o":"m 368 -243 l 320 -243 q 228 -209 248 -243 q 207 -121 207 -175 l 207 -121 l 207 -37 l 307 -37 l 307 -104 q 314 -146 307 -132 q 349 -161 321 -161 l 349 -161 l 368 -161 l 368 -243 z "},"ͻ":{"ha":746,"x_min":67,"x_max":679,"o":"m 360 -10 l 360 -10 q 212 18 278 -10 q 108 102 146 46 q 67 241 69 159 l 67 241 l 210 241 q 252 140 212 175 q 359 104 292 104 l 359 104 q 490 163 447 104 q 532 328 532 222 l 532 328 q 490 497 532 437 q 359 557 447 557 l 359 557 q 256 524 294 557 q 216 433 219 490 l 216 433 l 73 433 q 113 566 75 513 q 216 646 151 619 q 360 672 280 672 l 360 672 q 527 634 455 672 q 638 521 598 597 q 679 328 679 445 l 679 328 q 637 138 679 213 q 524 26 595 63 q 360 -10 452 -10 z "},"ͼ":{"ha":746,"x_min":67,"x_max":679,"o":"m 386 -10 l 386 -10 q 222 26 294 -10 q 109 138 151 62 q 67 328 67 213 l 67 328 q 107 520 67 444 q 219 634 148 597 q 386 672 291 672 l 386 672 q 530 647 466 672 q 633 572 595 623 q 673 446 671 522 l 673 446 l 530 446 q 490 527 527 498 q 387 557 452 557 l 387 557 q 258 497 299 557 q 217 328 217 437 l 217 328 q 258 163 217 222 q 387 104 299 104 l 387 104 q 494 136 454 104 q 536 229 534 168 l 536 229 l 679 229 q 638 97 677 150 q 534 17 600 43 q 386 -10 469 -10 z m 412 273 l 412 273 q 355 292 375 273 q 334 340 334 311 l 334 340 q 355 390 334 370 q 412 409 375 409 l 412 409 q 469 390 449 409 q 490 340 490 370 l 490 340 q 469 292 490 311 q 412 273 449 273 z "},"ͽ":{"ha":746,"x_min":67,"x_max":679,"o":"m 360 -10 l 360 -10 q 212 17 278 -10 q 108 97 146 43 q 67 229 69 150 l 67 229 l 210 229 q 252 136 212 168 q 359 104 292 104 l 359 104 q 487 163 446 104 q 528 328 528 222 l 528 328 q 487 497 528 437 q 359 557 446 557 l 359 557 q 256 527 294 557 q 216 446 219 498 l 216 446 l 73 446 q 113 572 75 522 q 216 647 151 623 q 360 672 280 672 l 360 672 q 527 634 455 672 q 638 521 598 597 q 679 328 679 445 l 679 328 q 637 138 679 213 q 524 26 595 63 q 360 -10 452 -10 z m 336 273 l 336 273 q 279 292 299 273 q 258 340 258 311 l 258 340 q 279 390 258 370 q 336 409 299 409 l 336 409 q 393 390 372 409 q 413 340 413 370 l 413 340 q 393 292 413 311 q 336 273 372 273 z "},";":{"ha":394,"x_min":85,"x_max":304,"o":"m 112 -199 l 112 -199 l 85 -123 q 159 -76 130 -107 q 195 0 189 -45 l 195 0 l 204 -8 q 131 20 159 -8 q 102 90 102 49 l 102 90 q 131 161 102 134 q 204 188 159 188 l 204 188 q 277 157 249 188 q 304 63 304 125 l 304 63 q 277 -64 304 -12 q 207 -150 250 -117 q 112 -199 163 -182 z m 204 465 l 204 465 q 131 494 159 465 q 102 564 102 522 l 102 564 q 131 634 102 607 q 204 661 159 661 l 204 661 q 277 634 249 661 q 304 564 304 607 l 304 564 q 277 494 304 522 q 204 465 249 465 z "},"Ϳ":{"ha":485,"x_min":25,"x_max":382,"o":"m 95 -7 l 25 -7 l 25 127 l 83 127 q 196 165 163 127 q 229 292 229 203 l 229 292 l 229 913 l 382 913 l 382 290 q 352 122 382 187 q 259 25 322 56 q 95 -7 195 -7 l 95 -7 z "},"΄":{"ha":766,"x_min":314,"x_max":503,"o":"m 403 751 l 314 751 l 353 970 l 503 970 l 403 751 z "},"΅":{"ha":766,"x_min":163,"x_max":611,"o":"m 400 751 l 324 751 l 363 977 l 486 977 l 400 751 z m 231 769 l 231 769 q 182 788 202 769 q 163 836 163 806 l 163 836 q 182 883 163 865 q 231 902 202 902 l 231 902 q 280 883 261 902 q 300 836 300 865 l 300 836 q 280 788 300 806 q 231 769 261 769 z m 542 769 l 542 769 q 494 788 513 769 q 474 836 474 806 l 474 836 q 494 883 474 865 q 542 902 513 902 l 542 902 q 591 883 572 902 q 611 836 611 865 l 611 836 q 591 788 611 806 q 542 769 572 769 z "},"Ά":{"ha":840,"x_min":3,"x_max":836,"o":"m 165 0 l 3 0 l 339 913 l 503 913 l 836 0 l 674 0 l 598 228 l 244 228 l 165 0 z m 420 758 l 283 359 l 557 359 l 420 758 z m 108 694 l 19 694 l 58 913 l 208 913 l 108 694 z "},"·":{"ha":408,"x_min":102,"x_max":304,"o":"m 204 255 l 204 255 q 131 283 159 255 q 102 353 102 312 l 102 353 q 131 424 102 397 q 204 451 159 451 l 204 451 q 277 424 249 451 q 304 353 304 397 l 304 353 q 277 283 304 312 q 204 255 249 255 z "},"Έ":{"ha":785,"x_min":-118,"x_max":711,"o":"m 711 0 l 115 0 l 115 913 l 711 913 l 711 783 l 271 783 l 271 531 l 673 531 l 673 405 l 271 405 l 271 130 l 711 130 l 711 0 z m -29 694 l -118 694 l -79 913 l 71 913 l -29 694 z "}}}
